<svg width="36" height="50" viewBox="0 0 36 50" fill="none" xmlns="http://www.w3.org/2000/svg">
<path opacity="0.5" d="M19.469 27.2079C21.9869 25.1096 23.9453 23.1512 25.2043 21.3327C26.4633 19.5141 27.1627 17.5557 27.1627 15.3875C27.1627 12.6597 26.3234 10.4915 24.6448 8.95272C22.9661 7.41398 20.658 6.6446 17.7903 6.6446C14.9926 6.6446 12.6845 7.55386 11.0058 9.37239C9.32725 11.1909 8.48793 13.569 8.48793 16.5066V17.4159H0.72424V16.0869C0.72424 13.0094 1.42367 10.2816 2.82253 7.83363C4.2214 5.45557 6.24975 3.49716 8.83765 2.09829C11.3556 0.699431 14.3631 0 17.7903 0C23.2459 0 27.4425 1.39886 30.52 4.12665C33.5275 6.85443 35.0663 10.4915 35.0663 15.0378C35.0663 18.3951 34.157 21.2627 32.4784 23.7807C30.7298 26.2986 28.1419 28.9565 24.7147 31.8241L11.7053 42.6653H35.3461V49.4498H0.654297V43.2249L19.469 27.2079Z" fill="url(#paint0_linear_93_221)"/>
<defs>
<linearGradient id="paint0_linear_93_221" x1="18.0002" y1="0" x2="18.0002" y2="49.4498" gradientUnits="userSpaceOnUse">
<stop stop-color="#F24664"/>
<stop offset="0.69" stop-color="#F24664" stop-opacity="0.63"/>
<stop offset="1" stop-color="#F24664" stop-opacity="0"/>
</linearGradient>
</defs>
</svg>
