<svg width="26" height="37" viewBox="0 0 26 37" fill="none" xmlns="http://www.w3.org/2000/svg">
<path d="M13.9799 20.464C15.8519 18.904 17.3079 17.448 18.2439 16.096C19.1799 14.744 19.6999 13.288 19.6999 11.676C19.6999 9.648 19.0759 8.036 17.8279 6.892C16.5799 5.748 14.8639 5.176 12.7319 5.176C10.6519 5.176 8.93588 5.852 7.68788 7.204C6.43988 8.556 5.81587 10.324 5.81587 12.508V13.184H0.0438751V12.196C0.0438751 9.908 0.563875 7.88 1.60387 6.06C2.64388 4.292 4.15188 2.836 6.07588 1.796C7.94788 0.755999 10.1839 0.235999 12.7319 0.235999C16.7879 0.235999 19.9079 1.276 22.1959 3.304C24.4319 5.332 25.5759 8.036 25.5759 11.416C25.5759 13.912 24.8999 16.044 23.6519 17.916C22.3519 19.788 20.4279 21.764 17.8799 23.896L8.20788 31.956H25.7839V37H-0.00812499V32.372L13.9799 20.464Z" fill="#F24664"/>
</svg>
