<svg width="36" height="50" viewBox="0 0 36 50" fill="none" xmlns="http://www.w3.org/2000/svg">
<path opacity="0.5" d="M19.4688 27.2079C21.9867 25.1096 23.9451 23.1512 25.2041 21.3327C26.4631 19.5141 27.1625 17.5557 27.1625 15.3875C27.1625 12.6597 26.3232 10.4915 24.6446 8.95272C22.9659 7.41398 20.6578 6.6446 17.7901 6.6446C14.9924 6.6446 12.6843 7.55386 11.0056 9.37239C9.32701 11.1909 8.48769 13.569 8.48769 16.5066V17.4159H0.723996V16.0869C0.723996 13.0094 1.42343 10.2816 2.82229 7.83363C4.22116 5.45557 6.24951 3.49716 8.83741 2.09829C11.3554 0.699431 14.3629 0 17.7901 0C23.2457 0 27.4423 1.39886 30.5198 4.12665C33.5273 6.85443 35.0661 10.4915 35.0661 15.0378C35.0661 18.3951 34.1568 21.2627 32.4782 23.7807C30.7296 26.2986 28.1417 28.9565 24.7145 31.8241L11.7051 42.6653H35.3459V49.4498H0.654053V43.2249L19.4688 27.2079Z" fill="#F24664"/>
</svg>
