<svg width="36" height="51" viewBox="0 0 36 51" fill="none" xmlns="http://www.w3.org/2000/svg">
<path opacity="0.5" d="M19.469 28.1913C21.987 26.093 23.9454 24.1346 25.2044 22.3161C26.4633 20.4975 27.1628 18.5391 27.1628 16.3709C27.1628 13.6431 26.3234 11.4749 24.6448 9.93612C22.9662 8.39738 20.658 7.628 17.7904 7.628C14.9927 7.628 12.6845 8.53726 11.0059 10.3558C9.32725 12.1743 8.48793 14.5524 8.48793 17.49V18.3993H0.72424V17.0703C0.72424 13.9928 1.42367 11.265 2.82254 8.81703C4.2214 6.43897 6.24975 4.48056 8.83765 3.08169C11.3556 1.68283 14.3632 0.983398 17.7904 0.983398C23.2459 0.983398 27.4425 2.38226 30.52 5.11005C33.5276 7.83783 35.0663 11.4749 35.0663 16.0212C35.0663 19.3785 34.1571 22.2461 32.4784 24.7641C30.7299 27.282 28.142 29.9399 24.7148 32.8075L11.7053 43.6487H35.3461V50.4332H0.654297V44.2083L19.469 28.1913Z" fill="url(#paint0_linear_169_1898)"/>
<defs>
<linearGradient id="paint0_linear_169_1898" x1="18.0002" y1="0.983398" x2="18.0002" y2="50.4332" gradientUnits="userSpaceOnUse">
<stop stop-color="#38ACDD"/>
<stop offset="1" stop-color="#001A72"/>
</linearGradient>
</defs>
</svg>
