<svg width="38" height="50" viewBox="0 0 38 50" fill="none" xmlns="http://www.w3.org/2000/svg">
<path opacity="0.5" d="M34.2475 27.9773C36.2759 29.9357 37.325 32.5236 37.325 35.741C37.325 38.5387 36.5557 41.0566 35.0169 43.1549C33.4782 45.2532 31.3799 46.9319 28.5821 48.051C25.7844 49.24 22.567 49.7995 18.93 49.7995C13.3345 49.7995 8.85816 48.4007 5.57083 45.533C2.2835 42.6653 0.674805 38.7485 0.674805 33.7126H8.4385C8.4385 36.7202 9.48765 39.0982 11.516 40.7769C13.4744 42.5255 16.1322 43.3648 19.4196 43.3648C22.2872 43.3648 24.6653 42.6653 26.5538 41.1266C28.4423 39.6578 29.4215 37.6994 29.4215 35.1814C29.4215 32.8733 28.4422 31.0548 26.6237 29.7259C24.8052 28.3969 22.1474 27.6975 18.7901 27.6975H14.3137V21.2627H18.3005C21.5179 21.2627 23.9659 20.5633 25.6445 19.1644C27.3232 17.7656 28.2324 15.947 28.2324 13.569C28.2324 11.4007 27.3931 9.65216 25.7145 8.39318C24.0358 7.1342 21.8676 6.43477 19.2097 6.43477C16.412 6.43477 14.1039 7.20415 12.2854 8.67296C10.4669 10.1418 9.55759 12.1002 9.55759 14.6181H1.93378C1.93378 10.1418 3.54248 6.57466 6.61998 3.91682C9.69748 1.32892 13.7542 0 18.93 0C22.4271 0 25.5046 0.559546 28.0925 1.60869C30.6804 2.72778 32.6388 4.26653 34.0377 6.22494C35.4366 8.18335 36.136 10.4915 36.136 13.0094C36.136 15.947 35.2267 18.3951 33.5481 20.2835C31.8695 22.172 29.5613 23.431 26.6937 24.0605C29.7012 24.6899 32.2192 26.0189 34.2475 27.9773Z" fill="#F24664"/>
</svg>
