<svg width="38" height="51" viewBox="0 0 38 51" fill="none" xmlns="http://www.w3.org/2000/svg">
<path opacity="0.5" d="M34.2475 28.9607C36.2759 30.9191 37.325 33.507 37.325 36.7244C37.325 39.5221 36.5557 42.04 35.0169 44.1383C33.4782 46.2366 31.3799 47.9153 28.5821 49.0344C25.7844 50.2234 22.567 50.7829 18.93 50.7829C13.3345 50.7829 8.85816 49.3841 5.57083 46.5164C2.2835 43.6487 0.674805 39.7319 0.674805 34.696H8.4385C8.4385 37.7036 9.48765 40.0816 11.516 41.7603C13.4744 43.5089 16.1322 44.3482 19.4196 44.3482C22.2872 44.3482 24.6653 43.6487 26.5538 42.11C28.4423 40.6412 29.4215 38.6828 29.4215 36.1648C29.4215 33.8567 28.4422 32.0382 26.6237 30.7093C24.8052 29.3803 22.1474 28.6809 18.7901 28.6809H14.3137V22.2461H18.3005C21.5179 22.2461 23.9659 21.5467 25.6445 20.1478C27.3232 18.749 28.2324 16.9304 28.2324 14.5524C28.2324 12.3841 27.3931 10.6356 25.7145 9.37658C24.0358 8.1176 21.8676 7.41817 19.2097 7.41817C16.412 7.41817 14.1039 8.18755 12.2854 9.65635C10.4669 11.1252 9.55759 13.0836 9.55759 15.6015H1.93378C1.93378 11.1252 3.54248 7.55806 6.61998 4.90022C9.69748 2.31232 13.7542 0.983398 18.93 0.983398C22.4271 0.983398 25.5046 1.54294 28.0925 2.59209C30.6804 3.71118 32.6388 5.24993 34.0377 7.20834C35.4366 9.16675 36.136 11.4749 36.136 13.9928C36.136 16.9304 35.2267 19.3785 33.5481 21.2669C31.8695 23.1554 29.5613 24.4144 26.6937 25.0439C29.7012 25.6733 32.2192 27.0023 34.2475 28.9607Z" fill="url(#paint0_linear_169_1897)"/>
<defs>
<linearGradient id="paint0_linear_169_1897" x1="18.9999" y1="0.983398" x2="18.9999" y2="50.7829" gradientUnits="userSpaceOnUse">
<stop stop-color="#38ACDD"/>
<stop offset="1" stop-color="#001A72"/>
</linearGradient>
</defs>
</svg>
