<svg width="28" height="38" viewBox="0 0 28 38" fill="none" xmlns="http://www.w3.org/2000/svg">
<path d="M25.2458 21.088C26.7538 22.544 27.5338 24.468 27.5338 26.86C27.5338 28.94 26.9618 30.812 25.8178 32.372C24.6738 33.932 23.1138 35.18 21.0338 36.012C18.9538 36.896 16.5618 37.312 13.8578 37.312C9.69781 37.312 6.36981 36.272 3.92581 34.14C1.48181 32.008 0.285813 29.096 0.285813 25.352H6.05781C6.05781 27.588 6.83781 29.356 8.34581 30.604C9.80181 31.904 11.7778 32.528 14.2218 32.528C16.3538 32.528 18.1218 32.008 19.5258 30.864C20.9298 29.772 21.6578 28.316 21.6578 26.444C21.6578 24.728 20.9298 23.376 19.5778 22.388C18.2258 21.4 16.2498 20.88 13.7538 20.88H10.4258V16.096H13.3898C15.7818 16.096 17.6018 15.576 18.8498 14.536C20.0978 13.496 20.7738 12.144 20.7738 10.376C20.7738 8.764 20.1498 7.464 18.9018 6.528C17.6538 5.592 16.0418 5.072 14.0658 5.072C11.9858 5.072 10.2698 5.644 8.91781 6.736C7.56581 7.828 6.88981 9.284 6.88981 11.156H1.22181C1.22181 7.828 2.41781 5.176 4.70581 3.2C6.99381 1.276 10.0098 0.287998 13.8578 0.287998C16.4578 0.287998 18.7458 0.703999 20.6698 1.484C22.5938 2.316 24.0498 3.46 25.0898 4.916C26.1298 6.372 26.6498 8.088 26.6498 9.96C26.6498 12.144 25.9738 13.964 24.7258 15.368C23.4778 16.772 21.7618 17.708 19.6298 18.176C21.8658 18.644 23.7378 19.632 25.2458 21.088Z" fill="#F24664"/>
</svg>
