<svg width="38" height="50" viewBox="0 0 38 50" fill="none" xmlns="http://www.w3.org/2000/svg">
<path opacity="0.5" d="M34.2485 27.9773C36.2769 29.9357 37.326 32.5236 37.326 35.741C37.326 38.5387 36.5567 41.0566 35.0179 43.1549C33.4792 45.2532 31.3809 46.9319 28.5831 48.051C25.7854 49.24 22.568 49.7995 18.931 49.7995C13.3355 49.7995 8.85914 48.4007 5.57181 45.533C2.28448 42.6653 0.675781 38.7485 0.675781 33.7126H8.43948C8.43948 36.7202 9.48863 39.0982 11.517 40.7769C13.4754 42.5255 16.1332 43.3648 19.4206 43.3648C22.2882 43.3648 24.6663 42.6653 26.5548 41.1266C28.4433 39.6578 29.4225 37.6994 29.4225 35.1814C29.4225 32.8733 28.4432 31.0548 26.6247 29.7259C24.8062 28.3969 22.1484 27.6975 18.7911 27.6975H14.3147V21.2627H18.3015C21.5189 21.2627 23.9669 20.5633 25.6455 19.1644C27.3242 17.7656 28.2334 15.947 28.2334 13.569C28.2334 11.4007 27.3941 9.65216 25.7155 8.39318C24.0368 7.1342 21.8686 6.43477 19.2107 6.43477C16.413 6.43477 14.1049 7.20415 12.2864 8.67296C10.4679 10.1418 9.55857 12.1002 9.55857 14.6181H1.93476C1.93476 10.1418 3.54346 6.57466 6.62096 3.91682C9.69846 1.32892 13.7552 0 18.931 0C22.4281 0 25.5056 0.559546 28.0935 1.60869C30.6814 2.72778 32.6398 4.26653 34.0387 6.22494C35.4376 8.18335 36.137 10.4915 36.137 13.0094C36.137 15.947 35.2277 18.3951 33.5491 20.2835C31.8705 22.172 29.5623 23.431 26.6947 24.0605C29.7022 24.6899 32.2202 26.0189 34.2485 27.9773Z" fill="url(#paint0_linear_93_224)"/>
<defs>
<linearGradient id="paint0_linear_93_224" x1="19.0009" y1="0" x2="19.0009" y2="49.7995" gradientUnits="userSpaceOnUse">
<stop stop-color="#F24664"/>
<stop offset="0.69" stop-color="#F24664" stop-opacity="0.63"/>
<stop offset="1" stop-color="#8C283A"/>
</linearGradient>
</defs>
</svg>
