<svg width="612" height="344" viewBox="0 0 612 344" fill="none" xmlns="http://www.w3.org/2000/svg">
<g clip-path="url(#clip0_549_192)">
<path d="M596 0H16C7.16344 0 0 7.16344 0 16V328C0 336.837 7.16344 344 16 344H596C604.837 344 612 336.837 612 328V16C612 7.16344 604.837 0 596 0Z" fill="#161127" fill-opacity="0.74902"/>
<path d="M404 36.5C404 29.5964 409.596 24 416.5 24H575.5C582.404 24 588 29.5964 588 36.5C588 43.4036 582.404 49 575.5 49H416.5C409.596 49 404 43.4036 404 36.5Z" fill="#A99CD3" fill-opacity="0.75"/>
<path d="M24 38.7143C24 30.5878 30.5903 24 38.72 24H193.28C201.41 24 208 30.5878 208 38.7143V112.286C208 120.413 201.41 127 193.28 127H38.72C30.5903 127 24 120.413 24 112.286V38.7143Z" fill="#302555"/>
<path d="M136.93 93.9199H94.1498C82.3364 93.9199 72.7598 103.497 72.7598 115.31V126.005H115.54H136.93H158.32V115.31C158.32 103.497 148.743 93.9199 136.93 93.9199Z" fill="#514A6A" stroke="#514A6A" stroke-width="1.5" stroke-linecap="round" stroke-linejoin="round"/>
<path d="M116.23 84.2605C128.043 84.2605 137.62 74.6838 137.62 62.8705C137.62 51.0571 128.043 41.4805 116.23 41.4805C104.416 41.4805 94.8398 51.0571 94.8398 62.8705C94.8398 74.6838 104.416 84.2605 116.23 84.2605Z" fill="#514A6A" stroke="#514A6A" stroke-width="1.5" stroke-linecap="round" stroke-linejoin="round"/>
<path d="M114.159 240.455H56.6876C54.7039 240.455 53.0957 243.396 53.0957 247.024V254.478C53.0957 258.105 54.7039 261.047 56.6876 261.047H114.159C116.143 261.047 117.751 258.105 117.751 254.478V247.024C117.751 243.396 116.143 240.455 114.159 240.455Z" fill="#A99CD3" fill-opacity="0.4"/>
<path d="M40.1638 240.551H30.4655C26.8947 240.551 24 243.462 24 247.054V254.433C24 258.024 26.8947 260.936 30.4655 260.936H40.1638C43.7346 260.936 46.6293 258.024 46.6293 254.433V247.054C46.6293 243.462 43.7346 240.551 40.1638 240.551Z" fill="#A99CD3" fill-opacity="0.4"/>
<path d="M97.8759 304.398H55.7298C54.275 304.398 53.0957 307.339 53.0957 310.966V318.42C53.0957 322.048 54.275 324.989 55.7298 324.989H97.8759C99.3306 324.989 100.51 322.048 100.51 318.42V310.966C100.51 307.339 99.3306 304.398 97.8759 304.398Z" fill="#A99CD3" fill-opacity="0.4"/>
<path d="M40.1638 304.615H30.4655C26.8947 304.615 24 307.526 24 311.118V318.497C24 322.088 26.8947 325 30.4655 325H40.1638C43.7346 325 46.6293 322.088 46.6293 318.497V311.118C46.6293 307.526 43.7346 304.615 40.1638 304.615Z" fill="#A99CD3" fill-opacity="0.4"/>
<path d="M143.673 209.025H58.4237C55.4812 209.025 53.0957 211.812 53.0957 215.248V222.31C53.0957 225.747 55.4812 228.533 58.4237 228.533H143.673C146.615 228.533 149.001 225.747 149.001 222.31V215.248C149.001 211.812 146.615 209.025 143.673 209.025Z" fill="#A99CD3" fill-opacity="0.4"/>
<path d="M40.1638 208.518H30.4655C26.8947 208.518 24 211.429 24 215.021V222.4C24 225.991 26.8947 228.903 30.4655 228.903H40.1638C43.7346 228.903 46.6293 225.991 46.6293 222.4V215.021C46.6293 211.429 43.7346 208.518 40.1638 208.518Z" fill="#A99CD3" fill-opacity="0.4"/>
<path d="M133.496 272.969H57.8251C55.2132 272.969 53.0957 275.755 53.0957 279.192V286.254C53.0957 289.691 55.2132 292.477 57.8251 292.477H133.496C136.108 292.477 138.225 289.691 138.225 286.254V279.192C138.225 275.755 136.108 272.969 133.496 272.969Z" fill="#A99CD3" fill-opacity="0.4"/>
<path d="M40.1638 272.582H30.4655C26.8947 272.582 24 275.493 24 279.085V286.464C24 290.055 26.8947 292.967 30.4655 292.967H40.1638C43.7346 292.967 46.6293 290.055 46.6293 286.464V279.085C46.6293 275.493 43.7346 272.582 40.1638 272.582Z" fill="#A99CD3" fill-opacity="0.4"/>
<path d="M113.141 176.514H56.6278C54.6771 176.514 53.0957 179.456 53.0957 183.083V190.537C53.0957 194.165 54.6771 197.106 56.6278 197.106H113.141C115.092 197.106 116.673 194.165 116.673 190.537V183.083C116.673 179.456 115.092 176.514 113.141 176.514Z" fill="#A99CD3" fill-opacity="0.4"/>
<path d="M40.1638 176.484H30.4655C26.8947 176.484 24 179.395 24 182.987V190.366C24 193.957 26.8947 196.869 30.4655 196.869H40.1638C43.7346 196.869 46.6293 193.957 46.6293 190.366V182.987C46.6293 179.395 43.7346 176.484 40.1638 176.484Z" fill="#A99CD3" fill-opacity="0.4"/>
<path d="M118.229 144H56.9272C54.8111 144 53.0957 146.941 53.0957 150.569V158.023C53.0957 161.65 54.8111 164.592 56.9272 164.592H118.229C120.346 164.592 122.061 161.65 122.061 158.023V150.569C122.061 146.941 120.346 144 118.229 144Z" fill="#A99CD3" fill-opacity="0.4"/>
<path d="M40.1638 144.453H30.4655C26.8947 144.453 24 147.364 24 150.956V158.335C24 161.926 26.8947 164.838 30.4655 164.838H40.1638C43.7346 164.838 46.6293 161.926 46.6293 158.335V150.956C46.6293 147.364 43.7346 144.453 40.1638 144.453Z" fill="#A99CD3" fill-opacity="0.4"/>
</g>
<defs>
<clipPath id="clip0_549_192">
<rect width="612" height="344" fill="white"/>
</clipPath>
</defs>
</svg>
