<svg width="612" height="344" viewBox="0 0 612 344" fill="none" xmlns="http://www.w3.org/2000/svg">
<g clip-path="url(#clip0_549_230)">
<path d="M596 0H16C7.16344 0 0 7.16344 0 16V328C0 336.837 7.16344 344 16 344H596C604.837 344 612 336.837 612 328V16C612 7.16344 604.837 0 596 0Z" fill="#161127" fill-opacity="0.74902"/>
<path d="M24 38.7143C24 30.5878 30.5903 24 38.72 24H193.28C201.41 24 208 30.5878 208 38.7143V112.286C208 120.413 201.41 127 193.28 127H38.72C30.5903 127 24 120.413 24 112.286V38.7143Z" fill="#302555"/>
<path d="M136.93 93.9199H94.1498C82.3364 93.9199 72.7598 103.497 72.7598 115.31V126.005H115.54H136.93H158.32V115.31C158.32 103.497 148.743 93.9199 136.93 93.9199Z" fill="#514A6A" stroke="#514A6A" stroke-width="1.5" stroke-linecap="round" stroke-linejoin="round"/>
<path d="M116.23 84.2605C128.043 84.2605 137.62 74.6838 137.62 62.8705C137.62 51.0571 128.043 41.4805 116.23 41.4805C104.416 41.4805 94.8398 51.0571 94.8398 62.8705C94.8398 74.6838 104.416 84.2605 116.23 84.2605Z" fill="#514A6A" stroke="#514A6A" stroke-width="1.5" stroke-linecap="round" stroke-linejoin="round"/>
</g>
<defs>
<clipPath id="clip0_549_230">
<rect width="612" height="344" fill="white"/>
</clipPath>
</defs>
</svg>
