<svg xmlns="http://www.w3.org/2000/svg" version="1.1" xmlns:xlink="http://www.w3.org/1999/xlink" xmlns:svgjs="http://svgjs.dev/svgjs" width="128" height="128"><svg width="128" height="128" viewBox="0 0 128 128" fill="none" xmlns="http://www.w3.org/2000/svg">
<rect width="128" height="128" rx="20" fill="#161127"></rect>
<path d="M20.0898 70.5196H29.1968V80.5103H77.6004V70.5196H86.7073V90.2832H20.1027V70.5196H20.0898Z" fill="#F24664"></path>
<path d="M72.5536 52.6004C72.1566 52.6004 71.4649 52.7028 70.4787 52.895L64.4074 54.3039C63.6132 54.496 62.7807 54.5985 61.8969 54.5985C59.8731 54.5985 58.1056 53.9453 56.6069 52.6388C55.1083 51.3323 54.0324 49.5007 53.392 47.1311C52.9949 49.5007 52.0855 51.3451 50.651 52.6772C49.2164 54.0093 47.4744 54.6753 45.3994 54.6753C44.6053 54.6753 43.5934 54.5473 42.3638 54.3039L36.2925 52.895C35.2038 52.7028 34.4865 52.6004 34.1407 52.6004C32.5652 52.6004 31.3356 53.0743 30.4774 54.0093C29.6193 54.9443 29.1838 56.2764 29.1838 58.0056L29.1069 60.5929H20V58.4411C20 53.561 21.0759 49.7056 23.215 46.9005C25.354 44.0955 28.2872 42.6865 31.9888 42.6865C33.0776 42.6865 34.0895 42.789 35.0245 42.9811L41.6849 44.2363C42.1717 44.3901 42.9146 44.4541 43.9008 44.4541C47.103 44.4541 48.7553 42.2126 48.8577 37.7168H57.8878C57.939 39.9327 58.3745 41.6234 59.1815 42.789C59.9884 43.9546 61.218 44.5309 62.8447 44.5309C63.5876 44.5309 64.3177 44.4285 65.0606 44.2363L71.7211 42.9811C72.6561 42.789 73.668 42.6865 74.7567 42.6865C78.4584 42.6865 81.3788 44.0955 83.5306 46.9005C85.6824 49.7184 86.7456 53.561 86.7456 58.4411V60.5929H77.6386L77.5618 58.0056C77.5618 56.2764 77.1135 54.9443 76.2297 54.0093C75.3459 53.0743 74.1035 52.6004 72.528 52.6004H72.5536Z" fill="#F24664"></path>
<path d="M86.7715 60.6826L116.001 48.54V58.6076L98.3889 65.5627L116.001 72.5177V82.5853L86.7715 70.4427V60.6698V60.6826Z" fill="#F24664"></path>
</svg><style>@media (prefers-color-scheme: light) { :root { filter: none; } }
@media (prefers-color-scheme: dark) { :root { filter: none; } }
</style></svg>