<svg width="1263" height="719" viewBox="0 0 1263 719" fill="none" xmlns="http://www.w3.org/2000/svg">
<g filter="url(#filter0_f_14_60)">
<path d="M369.387 450.78C322.205 462.818 296.844 491.57 248.921 482.946C137.974 462.98 152.328 252.466 248.921 194.363C307.039 159.403 360.427 167.269 422.606 194.363C483.269 220.797 506.775 243.901 540.327 300.924C552.526 321.657 566.809 360.563 559.236 388.429C550.599 420.21 525.956 434.965 493.666 441.48C460.423 448.188 427.943 435.84 369.387 450.78Z" fill="#302555"/>
</g>
<g filter="url(#filter1_f_14_60)">
<path d="M340.96 410.756C300.539 421.072 278.812 445.712 237.755 438.321C142.706 421.211 155.003 240.812 237.756 191.021C287.547 161.062 333.285 167.802 386.554 191.021C438.524 213.674 458.662 233.472 487.407 282.338C497.858 300.105 510.094 333.445 503.606 357.325C496.207 384.559 475.095 397.204 447.431 402.787C418.952 408.535 391.126 397.953 340.96 410.756Z" fill="#302555"/>
</g>
<g filter="url(#filter2_f_14_60)">
<ellipse cx="442.34" cy="357.385" rx="145.402" ry="99.0246" transform="rotate(-158.089 442.34 357.385)" fill="#FBC6CF"/>
</g>
<defs>
<filter id="filter0_f_14_60" x="0.818848" y="0.817871" width="730.714" height="653.898" filterUnits="userSpaceOnUse" color-interpolation-filters="sRGB">
<feFlood flood-opacity="0" result="BackgroundImageFix"/>
<feBlend mode="normal" in="SourceGraphic" in2="BackgroundImageFix" result="shape"/>
<feGaussianBlur stdDeviation="85.0911" result="effect1_foregroundBlur_14_60"/>
</filter>
<filter id="filter1_f_14_60" x="0.818848" y="0.817871" width="674.781" height="609.046" filterUnits="userSpaceOnUse" color-interpolation-filters="sRGB">
<feFlood flood-opacity="0" result="BackgroundImageFix"/>
<feBlend mode="normal" in="SourceGraphic" in2="BackgroundImageFix" result="shape"/>
<feGaussianBlur stdDeviation="85.0911" result="effect1_foregroundBlur_14_60"/>
</filter>
<filter id="filter2_f_14_60" x="132.255" y="80.4883" width="620.171" height="553.793" filterUnits="userSpaceOnUse" color-interpolation-filters="sRGB">
<feFlood flood-opacity="0" result="BackgroundImageFix"/>
<feBlend mode="normal" in="SourceGraphic" in2="BackgroundImageFix" result="shape"/>
<feGaussianBlur stdDeviation="85.0911" result="effect1_foregroundBlur_14_60"/>
</filter>
</defs>
</svg>
