<svg width="582" height="422" viewBox="0 0 582 422" fill="none" xmlns="http://www.w3.org/2000/svg">
<g clip-path="url(#clip0_185_324)">
<path d="M549 1H33C15.3269 1 1 15.3269 1 33V389C1 406.673 15.3269 421 33 421H549C566.673 421 581 406.673 581 389V33C581 15.3269 566.673 1 549 1Z" fill="#161127" fill-opacity="0.75"/>
<path d="M549 1H33C15.3269 1 1 15.3269 1 33V389C1 406.673 15.3269 421 33 421H549C566.673 421 581 406.673 581 389V33C581 15.3269 566.673 1 549 1Z" stroke="url(#paint0_linear_185_324)"/>
<path id="overlay_layer" d="M549 17H33C24.1634 17 17 24.1634 17 33V389C17 397.837 24.1634 405 33 405H549C557.837 405 565 397.837 565 389V33C565 24.1634 557.837 17 549 17Z" fill="url(#backgroundGradient)" fill-opacity="0.05"/>
</g>
<defs>
<linearGradient id="paint0_linear_185_324" x1="1.00002" y1="-0.410353" x2="581" y2="421" gradientUnits="userSpaceOnUse">
<stop stop-color="#FBC6CF"/>
<stop offset="1" stop-color="#161127"/>
</linearGradient>
<linearGradient id="paint1_linear_185_324" x1="291" y1="32.8374" x2="291" y2="388.837" gradientUnits="userSpaceOnUse">
<stop stop-color="#161127"/>
<stop offset="1" stop-color="#161127"/>
</linearGradient>
<clipPath id="clip0_185_324">
<rect width="582" height="422" fill="white"/>
</clipPath>
<linearGradient id="backgroundGradient" x1="291" y1="32.8374" x2="291" y2="388.837" gradientUnits="userSpaceOnUse">
    <stop id="backgroundGradient_stop1" offset="0%" stop-color="#161127"/>
    <stop id="backgroundGradient_stop2" offset="100%" stop-color="#161127"/>
</linearGradient>
</defs>
</svg>
