<svg width="582" height="422" viewBox="0 0 582 422" fill="none" xmlns="http://www.w3.org/2000/svg">
<g clip-path="url(#clip0_105_388)">
<path id="opacity_layer" d="M549 1H33C15.3269 1 1 15.3269 1 33V389C1 406.673 15.3269 421 33 421H549C566.673 421 581 406.673 581 389V33C581 15.3269 566.673 1 549 1Z" fill="#161127" fill-opacity="0.75"/>
<path d="M549 1H33C15.3269 1 1 15.3269 1 33V389C1 406.673 15.3269 421 33 421H549C566.673 421 581 406.673 581 389V33C581 15.3269 566.673 1 549 1Z" stroke="url(#paint0_linear_105_388)"/>
<g clip-path="url(#clip1_105_388)">
<rect x="33" y="134" width="128" height="255" rx="16" fill="white" fill-opacity="0.05"/>
<rect x="49.2578" y="149" width="24" height="24" rx="8" fill="white" fill-opacity="0.1"/>
<rect x="81.2578" y="149" width="80.7393" height="24" rx="8" fill="white" fill-opacity="0.1"/>
<rect x="49.2578" y="189" width="24" height="24" rx="8" fill="white" fill-opacity="0.1"/>
<rect x="81.2578" y="189" width="80.7393" height="24" rx="8" fill="white" fill-opacity="0.1"/>
<rect x="49.2578" y="229" width="24" height="24" rx="8" fill="white" fill-opacity="0.1"/>
<rect x="81.2578" y="229" width="80.7393" height="24" rx="8" fill="white" fill-opacity="0.1"/>
<rect x="49.2578" y="269" width="24" height="24" rx="8" fill="white" fill-opacity="0.1"/>
<rect x="81.2578" y="269" width="80.7393" height="24" rx="8" fill="white" fill-opacity="0.1"/>
<rect x="49.2578" y="309" width="24" height="24" rx="8" fill="white" fill-opacity="0.1"/>
<rect x="81.2578" y="309" width="80.7393" height="24" rx="8" fill="white" fill-opacity="0.1"/>
<rect x="73.2578" y="349" width="24" height="24" rx="8" fill="white" fill-opacity="0.1"/>
<rect x="105.258" y="349" width="56.7393" height="24" rx="8" fill="white" fill-opacity="0.1"/>
</g>
<rect x="34" y="135" width="126" height="253" rx="15" stroke="white" stroke-opacity="0.1" stroke-width="2"/>
</g>
<defs>
<linearGradient id="paint0_linear_105_388" x1="1.00002" y1="-0.410353" x2="581" y2="421" gradientUnits="userSpaceOnUse">
<stop stop-color="#FBC6CF"/>
<stop offset="1" stop-color="#161127"/>
</linearGradient>
<clipPath id="clip0_105_388">
<rect width="582" height="422" fill="white"/>
</clipPath>
<clipPath id="clip1_105_388">
<rect x="33" y="134" width="128" height="255" rx="16" fill="white"/>
</clipPath>
</defs>
</svg>
