<svg width="582" height="422" viewBox="0 0 582 422" fill="none" xmlns="http://www.w3.org/2000/svg">
<rect id="opacity_layer" x="1" y="1" width="580" height="420" rx="32" fill="#161127" fill-opacity="0.75"/>
<rect x="1" y="1" width="580" height="420" rx="32" stroke="url(#paint0_linear_33_234)"/>
<path d="M29 48C29 37.5066 37.5066 29 48 29H169C179.493 29 188 37.5066 188 48V119C188 129.493 179.493 138 169 138H48C37.5066 138 29 129.493 29 119V48Z" fill="white" fill-opacity="0.25"/>
<path d="M48 30H169C178.941 30 187 38.0589 187 48V119C187 128.941 178.941 137 169 137H48C38.0589 137 30 128.941 30 119V48C30 38.0589 38.0589 30 48 30Z" stroke="white" stroke-opacity="0.25" stroke-width="2"/>
<defs>
<linearGradient id="paint0_linear_33_234" x1="1.00001" y1="-0.410343" x2="581" y2="421" gradientUnits="userSpaceOnUse">
<stop stop-color="#FBC6CF"/>
<stop offset="1" stop-color="#161127"/>
</linearGradient>
</defs>
</svg>
