<svg width="582" height="422" viewBox="0 0 582 422" fill="none" xmlns="http://www.w3.org/2000/svg">
<g clip-path="url(#clip0_185_353)">
<path id="opacity_layer" d="M549 1H33C15.3269 1 1 15.3269 1 33V389C1 406.673 15.3269 421 33 421H549C566.673 421 581 406.673 581 389V33C581 15.3269 566.673 1 549 1Z" fill="#161127" fill-opacity="0.75"/>
<path d="M549 1H33C15.3269 1 1 15.3269 1 33V389C1 406.673 15.3269 421 33 421H549C566.673 421 581 406.673 581 389V33C581 15.3269 566.673 1 549 1Z" stroke="url(#paint0_linear_185_353)"/>
<path d="M48 172H190C199.941 172 208 180.059 208 190V282V374C208 383.941 199.941 392 190 392H48C38.0589 392 30 383.941 30 374V190C30 180.059 38.0589 172 48 172Z" stroke="white" stroke-opacity="0.25" stroke-width="2"/>
<rect x="68" y="272.087" width="108" height="18.8087" rx="6" fill="white" fill-opacity="0.25"/>
<rect x="41" y="272.087" width="21" height="18.8087" rx="6" fill="white" fill-opacity="0.25"/>
<rect x="68" y="360.757" width="108" height="18.8087" rx="6" fill="white" fill-opacity="0.25"/>
<rect x="41" y="360.757" width="21" height="18.8087" rx="6" fill="white" fill-opacity="0.25"/>
<rect x="68" y="331.2" width="108" height="18.8087" rx="6" fill="white" fill-opacity="0.25"/>
<rect x="41" y="331.2" width="21" height="18.8087" rx="6" fill="white" fill-opacity="0.25"/>
<rect x="68" y="242.531" width="108" height="18.8087" rx="6" fill="white" fill-opacity="0.25"/>
<rect x="41" y="242.531" width="21" height="18.8087" rx="6" fill="white" fill-opacity="0.25"/>
<rect x="68" y="301.644" width="108" height="18.8087" rx="6" fill="white" fill-opacity="0.25"/>
<rect x="41" y="301.644" width="21" height="18.8087" rx="6" fill="white" fill-opacity="0.25"/>
<rect x="68" y="212.974" width="108" height="18.8087" rx="6" fill="white" fill-opacity="0.25"/>
<rect x="41" y="212.974" width="21" height="18.8087" rx="6" fill="white" fill-opacity="0.25"/>
<rect x="68" y="183.418" width="108" height="18.8087" rx="6" fill="white" fill-opacity="0.25"/>
<rect x="41" y="183.418" width="21" height="18.8087" rx="6" fill="white" fill-opacity="0.25"/>
</g>
<defs>
<linearGradient id="paint0_linear_185_353" x1="1.00002" y1="-0.410353" x2="581" y2="421" gradientUnits="userSpaceOnUse">
<stop stop-color="#FBC6CF"/>
<stop offset="1" stop-color="#161127"/>
</linearGradient>
<clipPath id="clip0_185_353">
<rect width="582" height="422" fill="white"/>
</clipPath>
</defs>
</svg>
