<svg width="582" height="422" viewBox="0 0 582 422" fill="none" xmlns="http://www.w3.org/2000/svg">
<g clip-path="url(#clip0_218_124)">
<mask id="mask0_218_124" style="mask-type:luminance" maskUnits="userSpaceOnUse" x="0" y="0" width="582" height="422">
<path d="M582 0H0V422H582V0Z" fill="white"/>
</mask>
<g mask="url(#mask0_218_124)">
<path id="opacity_layer" d="M549 1H33C15.3269 1 1 15.3269 1 33V389C1 406.673 15.3269 421 33 421H549C566.673 421 581 406.673 581 389V33C581 15.3269 566.673 1 549 1Z" fill="#161127" fill-opacity="0.75"/>
<path d="M549 1H33C15.3269 1 1 15.3269 1 33V389C1 406.673 15.3269 421 33 421H549C566.673 421 581 406.673 581 389V33C581 15.3269 566.673 1 549 1Z" stroke="url(#paint0_linear_218_124)"/>
</g>
<path d="M124.667 272H71.3333C69.4924 272 68 274.714 68 278.061V284.939C68 288.286 69.4924 291 71.3333 291H124.667C126.508 291 128 288.286 128 284.939V278.061C128 274.714 126.508 272 124.667 272Z" fill="white" fill-opacity="0.4"/>
<path d="M56 272.087H47C43.6863 272.087 41 274.773 41 278.087V284.896C41 288.209 43.6863 290.896 47 290.896H56C59.3137 290.896 62 288.209 62 284.896V278.087C62 274.773 59.3137 272.087 56 272.087Z" fill="white" fill-opacity="0.4"/>
<path d="M140.722 361H72.2778C69.9152 361 68 363.714 68 367.061V373.939C68 377.286 69.9152 380 72.2778 380H140.722C143.085 380 145 377.286 145 373.939V367.061C145 363.714 143.085 361 140.722 361Z" fill="white" fill-opacity="0.4"/>
<path d="M56 360.757H47C43.6863 360.757 41 363.443 41 366.757V373.566C41 376.879 43.6863 379.566 47 379.566H56C59.3137 379.566 62 376.879 62 373.566V366.757C62 363.443 59.3137 360.757 56 360.757Z" fill="white" fill-opacity="0.4"/>
<path d="M109.556 331H70.4444C69.0944 331 68 333.714 68 337.061V343.939C68 347.286 69.0944 350 70.4444 350H109.556C110.906 350 112 347.286 112 343.939V337.061C112 333.714 110.906 331 109.556 331Z" fill="white" fill-opacity="0.4"/>
<path d="M56 331.2H47C43.6863 331.2 41 333.886 41 337.2V344.009C41 347.322 43.6863 350.009 47 350.009H56C59.3137 350.009 62 347.322 62 344.009V337.2C62 333.886 59.3137 331.2 56 331.2Z" fill="white" fill-opacity="0.4"/>
<path d="M152.056 243H72.9444C70.2137 243 68 245.571 68 248.742V255.258C68 258.429 70.2137 261 72.9444 261H152.056C154.786 261 157 258.429 157 255.258V248.742C157 245.571 154.786 243 152.056 243Z" fill="white" fill-opacity="0.4"/>
<path d="M56 242.531H47C43.6863 242.531 41 245.217 41 248.531V255.34C41 258.653 43.6863 261.34 47 261.34H56C59.3137 261.34 62 258.653 62 255.34V248.531C62 245.217 59.3137 242.531 56 242.531Z" fill="white" fill-opacity="0.4"/>
<path d="M142.611 302H72.3889C69.965 302 68 304.571 68 307.742V314.258C68 317.429 69.965 320 72.3889 320H142.611C145.035 320 147 317.429 147 314.258V307.742C147 304.571 145.035 302 142.611 302Z" fill="white" fill-opacity="0.4"/>
<path d="M56 301.644H47C43.6863 301.644 41 304.33 41 307.644V314.453C41 317.766 43.6863 320.453 47 320.453H56C59.3137 320.453 62 317.766 62 314.453V307.644C62 304.33 59.3137 301.644 56 301.644Z" fill="white" fill-opacity="0.4"/>
<path d="M123.722 213H71.2778C69.4675 213 68 215.714 68 219.061V225.939C68 229.286 69.4675 232 71.2778 232H123.722C125.532 232 127 229.286 127 225.939V219.061C127 215.714 125.532 213 123.722 213Z" fill="white" fill-opacity="0.4"/>
<path d="M56 212.974H47C43.6863 212.974 41 215.66 41 218.974V225.783C41 229.096 43.6863 231.783 47 231.783H56C59.3137 231.783 62 229.096 62 225.783V218.974C62 215.66 59.3137 212.974 56 212.974Z" fill="white" fill-opacity="0.4"/>
<path d="M128.444 183H71.5556C69.5919 183 68 185.714 68 189.061V195.939C68 199.286 69.5919 202 71.5556 202H128.444C130.408 202 132 199.286 132 195.939V189.061C132 185.714 130.408 183 128.444 183Z" fill="white" fill-opacity="0.4"/>
<path d="M56 183.418H47C43.6863 183.418 41 186.104 41 189.418V196.227C41 199.54 43.6863 202.227 47 202.227H56C59.3137 202.227 62 199.54 62 196.227V189.418C62 186.104 59.3137 183.418 56 183.418Z" fill="white" fill-opacity="0.4"/>
</g>
<defs>
<linearGradient id="paint0_linear_218_124" x1="1.00002" y1="-0.410351" x2="581" y2="421" gradientUnits="userSpaceOnUse">
<stop stop-color="#FBC6CF"/>
<stop offset="1" stop-color="#161127"/>
</linearGradient>
<clipPath id="clip0_218_124">
<rect width="582" height="422" fill="white"/>
</clipPath>
</defs>
</svg>
