<svg width="582" height="422" viewBox="0 0 582 422" fill="none" xmlns="http://www.w3.org/2000/svg">
<rect id="opacity_layer" x="1" y="1" width="580" height="420" rx="32" fill="#161127" fill-opacity="0.75"/>
<rect x="1" y="1" width="580" height="420" rx="32" stroke="url(#paint0_linear_33_233)"/>
<path d="M29 164C29 153.507 37.5066 145 48 145H169C179.493 145 188 153.507 188 164V269V374C188 384.493 179.493 393 169 393H48C37.5066 393 29 384.493 29 374V164Z" fill="white" fill-opacity="0.25"/>
<path d="M48 146H169C178.941 146 187 154.059 187 164V269V374C187 383.941 178.941 392 169 392H48C38.0589 392 30 383.941 30 374V164C30 154.059 38.0589 146 48 146Z" stroke="white" stroke-opacity="0.25" stroke-width="2"/>
<rect x="68" y="258" width="108" height="21" rx="6" fill="white" fill-opacity="0.25"/>
<rect x="41" y="258" width="21" height="21" rx="6" fill="white" fill-opacity="0.25"/>
<rect x="68" y="357" width="108" height="21" rx="6" fill="white" fill-opacity="0.25"/>
<rect x="41" y="357" width="21" height="21" rx="6" fill="white" fill-opacity="0.25"/>
<rect x="68" y="324" width="108" height="21" rx="6" fill="white" fill-opacity="0.25"/>
<rect x="41" y="324" width="21" height="21" rx="6" fill="white" fill-opacity="0.25"/>
<rect x="68" y="225" width="108" height="21" rx="6" fill="white" fill-opacity="0.25"/>
<rect x="41" y="225" width="21" height="21" rx="6" fill="white" fill-opacity="0.25"/>
<rect x="68" y="291" width="108" height="21" rx="6" fill="white" fill-opacity="0.25"/>
<rect x="41" y="291" width="21" height="21" rx="6" fill="white" fill-opacity="0.25"/>
<rect x="68" y="192" width="108" height="21" rx="6" fill="white" fill-opacity="0.25"/>
<rect x="41" y="192" width="21" height="21" rx="6" fill="white" fill-opacity="0.25"/>
<rect x="68" y="159" width="108" height="21" rx="6" fill="white" fill-opacity="0.25"/>
<rect x="41" y="159" width="21" height="21" rx="6" fill="white" fill-opacity="0.25"/>
<defs>
<linearGradient id="paint0_linear_33_233" x1="1.00001" y1="-0.410343" x2="581" y2="421" gradientUnits="userSpaceOnUse">
<stop stop-color="#FBC6CF"/>
<stop offset="1" stop-color="#161127"/>
</linearGradient>
</defs>
</svg>
