<svg width="49" height="25" viewBox="0 0 49 25" fill="none" xmlns="http://www.w3.org/2000/svg">
<g clip-path="url(#clip0_177_2537)">
<path fill-rule="evenodd" clip-rule="evenodd" d="M0.541992 1.02466H42.929L48.3743 6.39956V24.9419H5.96634L0.541992 19.5877V1.02466ZM1.17081 2.08636V19.3306L5.78217 23.8823V6.65629L1.17081 2.08636ZM1.61332 1.64535L6.22718 6.21776H47.3008L42.6685 1.64535H1.61332ZM47.7455 24.3212H6.41099V6.83845H47.7455V24.3212Z" fill="#FAFAFA"/>
<path d="M13.8312 13.749C13.8312 14.3697 13.412 14.9076 12.4058 14.9076C11.9657 14.9076 11.6093 14.8042 11.2949 14.68V13.8111C11.6303 13.9766 12.0285 14.08 12.3849 14.08C12.7202 14.08 12.8879 13.9766 12.8879 13.7904C12.8879 13.2111 11.2949 13.3973 11.2949 12.2179C11.2949 11.4938 11.8818 11.0593 12.6993 11.0593C13.0347 11.0593 13.3491 11.1421 13.6844 11.3283V12.2179C13.2443 11.949 12.9299 11.8662 12.6783 11.8662C12.3849 11.8662 12.2172 11.9697 12.2172 12.1559C12.2172 12.7145 13.8312 12.4869 13.8312 13.749Z" fill="#FAFAFA"/>
<path d="M14.6484 12.9835C14.6484 11.9283 15.5288 11.0593 16.5978 11.0593C17.6668 11.0593 18.5471 11.9283 18.5471 12.9835C18.5471 14.0386 17.6668 14.9076 16.5978 14.9076C15.5078 14.8869 14.6484 14.0386 14.6484 12.9835ZM17.5829 12.9835C17.5829 12.4042 17.1428 11.9697 16.5978 11.9697C16.0528 11.9697 15.5917 12.4042 15.5917 12.9835C15.5917 13.5628 16.0318 13.9973 16.5768 13.9973C17.1218 13.9973 17.5829 13.5628 17.5829 12.9835Z" fill="#FAFAFA"/>
<path d="M20.7064 10.8317V11.1421H21.9431L21.5239 12.0111H20.7274V14.8248H19.8261V12.0111H19.1973V11.1421H19.8261V10.7904C19.8261 9.67312 20.413 9.1145 21.3353 9.1145C21.5658 9.1145 21.7754 9.15588 21.9641 9.19726V10.0662C21.7964 10.0042 21.6077 9.98347 21.4191 9.98347C20.916 9.96278 20.7064 10.2938 20.7064 10.8317Z" fill="#FAFAFA"/>
<path d="M23.8296 12.011V13.48C23.8296 13.8731 24.0602 14.0386 24.4165 14.0386C24.6471 14.0386 24.8776 13.9765 25.0663 13.8524V14.742C24.8147 14.8455 24.5842 14.9075 24.2488 14.9075C23.4313 14.9075 22.9283 14.4731 22.9283 13.5834V12.011H22.3833V11.142H22.9283V10.211L23.8296 9.9834V11.1627H25.0663V12.0317H23.8296V12.011Z" fill="#FAFAFA"/>
<path d="M31.5848 11.1421L30.3901 14.8248H29.4887L28.6713 12.3007L27.8328 14.8248H26.9106L25.7158 11.1421H26.7429L27.4136 13.6042L28.2101 11.1421H29.1115L29.908 13.6042L30.5787 11.1421C30.5787 11.1421 31.5848 11.1421 31.5848 11.1421Z" fill="#FAFAFA"/>
<path d="M32.0669 12.9835C32.0669 11.9283 32.8424 11.0593 33.9114 11.0593C34.3306 11.0593 34.666 11.1835 34.9175 11.3904V11.1421H35.8189V14.8248H34.9385V14.5352C34.687 14.7628 34.3306 14.9076 33.8905 14.9076C32.8424 14.8869 32.0669 14.0386 32.0669 12.9835ZM35.0014 12.9835C35.0014 12.4042 34.5612 11.9697 34.0162 11.9697C33.4713 11.9697 33.0311 12.4042 33.0311 12.9835C33.0311 13.5628 33.4713 13.9973 34.0162 13.9973C34.5403 13.9973 35.0014 13.5628 35.0014 12.9835Z" fill="#FAFAFA"/>
<path d="M37.0767 11.1421H37.957V11.6594C38.2295 11.1628 38.7326 11.0801 39.1727 11.0801V12.1353C38.5439 11.9697 37.978 12.3215 37.978 13.1077V14.8249H37.0767V11.1421Z" fill="#FAFAFA"/>
<path d="M42.0235 14.0386C42.3798 14.0386 42.799 13.9766 43.2182 13.8111L42.7571 14.7421C42.5475 14.8248 42.2331 14.9076 41.8558 14.9076C40.5353 14.9076 39.7388 14.1007 39.7388 12.9835C39.7388 11.9283 40.5353 11.0593 41.6881 11.0593C42.4637 11.0593 43.0925 11.4524 43.344 11.949V13.2731H40.703C40.8497 13.7283 41.2689 14.0386 42.0235 14.0386ZM40.703 12.5904H42.6523C42.5265 12.1559 42.1492 11.8869 41.6672 11.8869C41.1851 11.8869 40.8287 12.1766 40.703 12.5904Z" fill="#FAFAFA"/>
<path d="M16.5143 17.9284V20.3491H15.613V18.0732C15.613 17.6801 15.3196 17.4525 15.0261 17.4525C14.7117 17.4525 14.4392 17.6801 14.4392 18.0732V20.3491H13.5379V18.0732C13.5379 17.6801 13.2444 17.4525 12.951 17.4525C12.6366 17.4525 12.3641 17.6801 12.3641 18.0732V20.3491H11.3999V16.687H12.2803V16.956C12.5527 16.687 12.8252 16.6042 13.1816 16.6042C13.5798 16.6042 13.9152 16.7698 14.1458 17.0801C14.4602 16.7491 14.8375 16.6042 15.2776 16.6042C15.9693 16.6042 16.5143 17.1422 16.5143 17.9284Z" fill="#FAFAFA"/>
<path d="M17.4785 18.5076C17.4785 17.4525 18.2541 16.5835 19.3231 16.5835C19.7423 16.5835 20.0776 16.7076 20.3292 16.9145V16.6663H21.2305V20.349H20.3501V20.0594C20.0986 20.2869 19.7423 20.4318 19.3021 20.4318C18.2541 20.4318 17.4785 19.5628 17.4785 18.5076ZM20.413 18.5076C20.413 17.9283 19.9728 17.4938 19.4279 17.4938C18.8829 17.4938 18.4427 17.9283 18.4427 18.5076C18.4427 19.0869 18.8829 19.5214 19.4279 19.5214C19.9519 19.5421 20.413 19.0869 20.413 18.5076Z" fill="#FAFAFA"/>
<path d="M22.4458 16.687H23.3262V16.956C23.5986 16.687 23.955 16.6042 24.3113 16.6042C25.0868 16.6042 25.7157 17.1836 25.7157 17.9698V20.3491H24.8144V18.156C24.8144 17.7629 24.4999 17.4525 24.1017 17.4525C23.7034 17.4525 23.389 17.7629 23.389 18.156V20.3491H22.4877V16.687H22.4458Z" fill="#FAFAFA"/>
<path d="M29.3419 19.2732C29.3419 19.8938 28.9227 20.4318 27.9166 20.4318C27.4764 20.4318 27.1201 20.3283 26.8057 20.2042V19.3352C27.141 19.5007 27.5393 19.6042 27.8956 19.6042C28.231 19.6042 28.3987 19.5007 28.3987 19.3145C28.3987 18.7352 26.8057 18.9214 26.8057 17.7421C26.8057 17.018 27.3926 16.5835 28.21 16.5835C28.5454 16.5835 28.8598 16.6663 29.1952 16.8525V17.7421C28.755 17.4732 28.4406 17.3904 28.1891 17.3904C27.8956 17.3904 27.7279 17.4938 27.7279 17.68C27.707 18.2387 29.3419 18.0318 29.3419 19.2732Z" fill="#FAFAFA"/>
<path d="M31.2914 16.687V20.3698H30.3901V16.687H31.2914Z" fill="#FAFAFA"/>
<path d="M32.2349 18.5076C32.2349 17.4525 33.1152 16.5835 34.1842 16.5835C35.2532 16.5835 36.1336 17.4525 36.1336 18.5076C36.1336 19.5628 35.2532 20.4318 34.1842 20.4318C33.1152 20.4318 32.2349 19.5628 32.2349 18.5076ZM35.1694 18.5076C35.1694 17.9283 34.7292 17.4938 34.1842 17.4938C33.6392 17.4938 33.1991 17.9283 33.1991 18.5076C33.1991 19.0869 33.6392 19.5214 34.1842 19.5214C34.7292 19.5214 35.1694 19.0869 35.1694 18.5076Z" fill="#FAFAFA"/>
<path d="M37.0767 16.687H37.957V16.956C38.2295 16.687 38.5858 16.6042 38.9422 16.6042C39.7177 16.6042 40.3465 17.1836 40.3465 17.9698V20.3491H39.4452V18.156C39.4452 17.7629 39.1308 17.4525 38.7326 17.4525C38.3343 17.4525 38.0199 17.7629 38.0199 18.156V20.3491H37.1186V16.687H37.0767Z" fill="#FAFAFA"/>
<path d="M42.1071 19.3352V19.48H41.7926V20.349H41.625V19.48H41.3105V19.3352H42.1071Z" fill="#FAFAFA"/>
<path d="M42.4635 19.3352L42.7989 20.1421L43.1133 19.3352H43.3229V20.349H43.1552V19.6042L42.8408 20.349H42.6941L42.4216 19.6042V20.349H42.2539V19.3352H42.4635Z" fill="#FAFAFA"/>
</g>
<defs>
<clipPath id="clip0_177_2537">
<rect width="48" height="24" fill="white" transform="translate(0.5 0.983398)"/>
</clipPath>
</defs>
</svg>
