<svg width="64" height="64" viewBox="0 0 64 64" fill="none" xmlns="http://www.w3.org/2000/svg">
<circle cx="32" cy="32" r="32" fill="#151026"/>
<path d="M13.0391 34.0283H17.0301V38.301H38.2427V34.0283H42.2336V42.4805H13.0447V34.0283H13.0391Z" fill="#F24664"/>
<path d="M36.0312 26.3652C35.8573 26.3652 35.5542 26.409 35.1219 26.4912L32.4611 27.0937C32.1132 27.1759 31.7483 27.2197 31.361 27.2197C30.4741 27.2197 29.6995 26.9403 29.0427 26.3816C28.386 25.8229 27.9144 25.0395 27.6338 24.0262C27.4598 25.0395 27.0612 25.8283 26.4326 26.398C25.8039 26.9677 25.0405 27.2526 24.1311 27.2526C23.7831 27.2526 23.3396 27.1978 22.8008 27.0937L20.1401 26.4912C19.6629 26.409 19.3486 26.3652 19.1971 26.3652C18.5066 26.3652 17.9677 26.5679 17.5917 26.9677C17.2156 27.3676 17.0247 27.9373 17.0247 28.6768L16.991 29.7833H13V28.863C13 26.776 13.4715 25.1272 14.4089 23.9276C15.3463 22.7279 16.6318 22.1254 18.254 22.1254C18.7311 22.1254 19.1746 22.1692 19.5844 22.2514L22.5033 22.7882C22.7166 22.8539 23.0421 22.8813 23.4744 22.8813C24.8777 22.8813 25.6018 21.9227 25.6467 20H29.6041C29.6265 20.9477 29.8173 21.6707 30.171 22.1692C30.5246 22.6677 31.0635 22.9142 31.7764 22.9142C32.102 22.9142 32.4219 22.8704 32.7475 22.7882L35.6664 22.2514C36.0762 22.1692 36.5197 22.1254 36.9967 22.1254C38.619 22.1254 39.8987 22.7279 40.8418 23.9276C41.7848 25.1327 42.2508 26.776 42.2508 28.863V29.7833H38.2597L38.226 28.6768C38.226 27.9373 38.0295 27.3676 37.6423 26.9677C37.2549 26.5679 36.7105 26.3652 36.02 26.3652H36.0312Z" fill="#F24664"/>
<path d="M42.2617 29.8218L55.0711 24.6289V28.9344L47.353 31.9089L55.0711 34.8833V39.1888L42.2617 33.9959V29.8164V29.8218Z" fill="#F24664"/>
</svg>
