<svg width="64" height="64" viewBox="0 0 64 64" fill="none" xmlns="http://www.w3.org/2000/svg">
<circle cx="32" cy="32" r="32" fill="#151026"/>
<path d="M37.5 32V21C37.5 17.9624 35.0377 15.5 32 15.5C28.9623 15.5 26.5 17.9624 26.5 21V32C26.5 35.0377 28.9623 37.5 32 37.5C35.0377 37.5 37.5 35.0377 37.5 32Z" stroke="white" stroke-width="1.5" stroke-linecap="round" stroke-linejoin="round"/>
<path d="M43 32C43 38.0751 38.0751 43 32 43C25.9249 43 21 38.0751 21 32" stroke="white" stroke-width="1.5" stroke-linecap="round" stroke-linejoin="round"/>
<path d="M32 43V48.5" stroke="white" stroke-width="1.5" stroke-linecap="round" stroke-linejoin="round"/>
<path d="M37.5 48.5H32H26.5" stroke="white" stroke-width="1.5" stroke-linecap="round" stroke-linejoin="round"/>
<path d="M27.2363 18.25C28.1873 16.606 29.9647 15.5 32.0005 15.5C35.0381 15.5 37.5005 17.9624 37.5005 21V28.3333" stroke="white" stroke-width="1.5" stroke-linecap="round" stroke-linejoin="round"/>
<path d="M42.9996 32C42.9996 32.6246 42.9476 33.2371 42.8477 33.8333" stroke="white" stroke-width="1.5" stroke-linecap="round" stroke-linejoin="round"/>
<path d="M15.5 15.5L48.5 48.5" stroke="white" stroke-width="1.5" stroke-linecap="round" stroke-linejoin="round"/>
<path d="M21 32C21 38.0751 25.9249 43 32 43C32.6246 43 33.2371 42.9479 33.8333 42.8478" stroke="white" stroke-width="1.5" stroke-linecap="round" stroke-linejoin="round"/>
<path d="M32 43V48.5" stroke="white" stroke-width="1.5" stroke-linecap="round" stroke-linejoin="round"/>
<path d="M37.5 48.5H32H26.5" stroke="white" stroke-width="1.5" stroke-linecap="round" stroke-linejoin="round"/>
</svg>
