<svg width="32" height="25" viewBox="0 0 32 25" fill="none" xmlns="http://www.w3.org/2000/svg">
<path d="M31.4798 10.2262C30.6953 9.70579 28.6338 9.48354 27.135 9.88133C27.0542 8.41027 26.2845 7.17062 24.8763 6.089L24.355 5.74417L24.0076 6.26121C23.3247 7.28278 23.037 8.64377 23.1389 9.88092C23.2193 10.6431 23.4884 11.5 24.0076 12.1217C22.057 13.2367 20.2591 12.9836 12.2965 12.9836H0.00275998C-0.0332065 14.7553 0.255795 18.1636 2.45525 20.9381C2.69813 21.2446 2.9647 21.541 3.25371 21.8267C5.04187 23.5913 7.74359 24.8851 11.7837 24.8889C17.9471 24.8943 23.2278 21.6115 26.4398 13.6737C27.4968 13.6908 30.2869 13.8605 31.6524 11.2602C31.6858 11.2165 31.9998 10.5706 31.9998 10.5706L31.4793 10.2258L31.4798 10.2262ZM8.02582 8.60583H4.56881V12.0125H8.02582V8.60583ZM12.492 8.60583H9.035V12.0125H12.492V8.60583ZM16.9582 8.60583H13.5012V12.0125H16.9582V8.60583ZM21.4244 8.60583H17.9674V12.0125H21.4244V8.60583ZM3.55963 8.60583H0.10262V12.0125H3.55963V8.60583ZM8.02582 4.30312H4.56881V7.70976H8.02582V4.30312ZM12.492 4.30312H9.035V7.70976H12.492V4.30312ZM16.9582 4.30312H13.5012V7.70976H16.9582V4.30312ZM16.9582 0H13.5012V3.40664H16.9582V0Z" fill="white"/>
</svg>
