<svg width="32" height="32" viewBox="0 0 32 32" fill="none" xmlns="http://www.w3.org/2000/svg">
<path fill-rule="evenodd" clip-rule="evenodd" d="M16.1006 0.125C9.17564 3.475 0.47564 20.85 7.72564 28.475C14.4256 36.85 29.0756 28.8 24.8256 18.35C19.4506 9.35 16.0756 8.875 16.1006 0.125Z" fill="url(#paint0_linear_99_237)"/>
<path fill-rule="evenodd" clip-rule="evenodd" d="M16.0986 0.0499878C9.19859 3.39999 0.473594 20.725 7.74859 28.375C10.4236 31.475 14.7486 32.5 17.1736 30.65C23.7736 25.95 19.0236 17.375 19.7736 11.025C17.0236 8.47499 16.0486 2.82499 16.0986 0.0499878Z" fill="url(#paint1_linear_99_237)"/>
<path fill-rule="evenodd" clip-rule="evenodd" d="M14.1753 1.07501C8.60026 5.05001 7.12526 19.825 8.15026 24.625C10.2003 36.65 26.9503 31.7 25.5503 20.5C24.0503 13.2 13.3503 10.7 14.1753 1.07501Z" fill="url(#paint2_linear_99_237)"/>
<path fill-rule="evenodd" clip-rule="evenodd" d="M19.6985 12.45C22.2985 15.8 22.8735 18.1 21.3985 19.425C14.4735 24.275 6.07349 21.275 7.89849 10.1C5.52349 15.75 1.12349 24.2 10.8235 25.4C16.0235 26.3 24.3235 25.9 25.5485 21.375C25.4985 17.4 22.8485 15.65 19.6985 12.45Z" fill="url(#paint3_linear_99_237)"/>
<path fill-rule="evenodd" clip-rule="evenodd" d="M9.52656 9.09998C8.80156 14.4 18.3016 28.575 24.1016 26.85C19.6766 35.75 9.87656 21.55 8.10156 16.425C8.47656 13.675 8.65156 12.325 9.52656 9.09998Z" fill="url(#paint4_linear_99_237)"/>
<path fill-rule="evenodd" clip-rule="evenodd" d="M15.0992 12.425C15.2992 14.4 16.0742 17.55 15.0992 19.625C14.1242 21.7 9.67416 25.5 10.8992 28.825C13.7492 35.025 20.1742 27.725 20.1242 24.075C20.3992 21.125 18.4742 14.4 19.6742 10.95L19.1242 10.25L15.7242 9.25C15.1742 10.05 14.9742 11.125 15.0992 12.425Z" fill="url(#paint5_linear_99_237)"/>
<path fill-rule="evenodd" clip-rule="evenodd" d="M16.3268 2.70001C9.00181 6.85001 12.0018 13.35 12.3268 20.4L17.1018 6.55001C16.7518 5.12501 16.5268 4.17501 16.3268 2.70001Z" fill="url(#paint6_linear_99_237)"/>
<path fill-rule="evenodd" clip-rule="evenodd" d="M17.0758 6.52502C13.3758 9.45002 13.5508 14.35 12.4258 20.025C14.4508 14.7 13.4508 10.475 17.0758 6.52502Z" fill="#330A4C" fill-opacity="0.316"/>
<path fill-rule="evenodd" clip-rule="evenodd" d="M11.4492 29.925C13.4492 30.2 14.4742 30.475 14.5742 30.675C14.6492 31.725 11.7992 30.975 11.4492 29.925Z" fill="white"/>
<path fill-rule="evenodd" clip-rule="evenodd" d="M12.4505 2.70001C10.7255 4.62501 8.85054 8.15001 7.90054 10.125C7.65054 11.75 7.77554 14.05 8.05054 16C8.27554 11.45 9.92554 6.20001 12.4505 2.70001Z" fill="#EDEDED" fill-opacity="0.603"/>
<defs>
<linearGradient id="paint0_linear_99_237" x1="15.5872" y1="2.4722" x2="14.4793" y2="31.9461" gradientUnits="userSpaceOnUse">
<stop stop-color="#D9D8DC"/>
<stop offset="1" stop-color="white" stop-opacity="0.385"/>
</linearGradient>
<linearGradient id="paint1_linear_99_237" x1="15.1396" y1="2.00257" x2="3.56507" y2="27.3705" gradientUnits="userSpaceOnUse">
<stop stop-color="#8D67AF" stop-opacity="0.672"/>
<stop offset="1" stop-color="#9F8DAF"/>
</linearGradient>
<linearGradient id="paint2_linear_99_237" x1="16.7405" y1="10.6736" x2="16.7405" y2="31.0484" gradientUnits="userSpaceOnUse">
<stop stop-color="#26053D" stop-opacity="0.762"/>
<stop offset="1" stop-color="#B7B4B4" stop-opacity="0.278"/>
</linearGradient>
<linearGradient id="paint3_linear_99_237" x1="9.17516" y1="11.25" x2="14.3932" y2="25.0715" gradientUnits="userSpaceOnUse">
<stop stop-color="#91739F" stop-opacity="0.46"/>
<stop offset="1" stop-color="#32054F" stop-opacity="0.54"/>
</linearGradient>
<linearGradient id="paint4_linear_99_237" x1="20.8789" y1="29.0156" x2="6.57719" y2="17.1701" gradientUnits="userSpaceOnUse">
<stop stop-color="#463D49" stop-opacity="0.331"/>
<stop offset="1" stop-color="#340A50" stop-opacity="0.821"/>
</linearGradient>
<linearGradient id="paint5_linear_99_237" x1="17.3113" y1="10.4637" x2="7.25761" y2="25.761" gradientUnits="userSpaceOnUse">
<stop stop-color="#715383" stop-opacity="0.145"/>
<stop offset="1" stop-color="#F4F4F4" stop-opacity="0.234"/>
</linearGradient>
<linearGradient id="paint6_linear_99_237" x1="18.9336" y1="14.2223" x2="11.9448" y2="13.7957" gradientUnits="userSpaceOnUse">
<stop stop-color="#A5A1A8" stop-opacity="0.356"/>
<stop offset="1" stop-color="#370C50" stop-opacity="0.582"/>
</linearGradient>
</defs>
</svg>
