<svg width="32" height="29" viewBox="0 0 32 29" fill="none" xmlns="http://www.w3.org/2000/svg">
<g clip-path="url(#clip0_99_231)">
<path d="M16.0006 17.0876C17.5758 17.0876 18.8528 15.8107 18.8528 14.2355C18.8528 12.6603 17.5758 11.3833 16.0006 11.3833C14.4254 11.3833 13.1484 12.6603 13.1484 14.2355C13.1484 15.8107 14.4254 17.0876 16.0006 17.0876Z" fill="#61DAFB"/>
<path d="M15.9997 20.0789C24.452 20.0789 31.304 17.4627 31.304 14.2354C31.304 11.0082 24.452 8.39197 15.9997 8.39197C7.5473 8.39197 0.695312 11.0082 0.695312 14.2354C0.695312 17.4627 7.5473 20.0789 15.9997 20.0789Z" stroke="#61DAFB"/>
<path d="M10.9372 17.1572C15.1634 24.4771 20.8551 29.103 23.65 27.4894C26.4449 25.8758 25.2846 18.6337 21.0584 11.3137C16.8322 3.99375 11.1405 -0.63214 8.34565 0.981493C5.55076 2.59512 6.71104 9.83723 10.9372 17.1572Z" stroke="#61DAFB"/>
<path d="M10.9376 11.3137C6.71138 18.6337 5.5511 25.8758 8.34599 27.4894C11.1409 29.1031 16.8326 24.4772 21.0588 17.1572C25.2849 9.83726 26.4452 2.59515 23.6503 0.98152C20.8554 -0.632112 15.1637 3.99378 10.9376 11.3137Z" stroke="#61DAFB"/>
</g>
<defs>
<clipPath id="clip0_99_231">
<rect width="32" height="28.4709" fill="white"/>
</clipPath>
</defs>
</svg>
