<svg width="102" height="26" viewBox="0 0 102 26" fill="none" xmlns="http://www.w3.org/2000/svg">
<path fill-rule="evenodd" clip-rule="evenodd" d="M40.1032 2.39893H38.3877V10.6193H43.8104L43.9946 9.14563H40.1032V2.39893ZM46.723 4.60945H45.1112V10.6193H46.723V4.60945ZM46.7461 2.39893H45.0882V3.84958H46.7461V2.39893ZM49.5164 4.60945H47.6513L50.0115 10.6193H51.6233L53.995 4.60945H52.2105L50.8635 8.78872L49.5164 4.60945ZM59.2578 10.2854C59.6953 9.93236 59.9678 9.41811 60.0752 8.74267H58.5094C58.3943 9.27995 58.0182 9.54859 57.3812 9.54859C56.9206 9.54859 56.5752 9.41427 56.345 9.14563C56.1147 8.86931 55.9919 8.48938 55.9766 8.00583H60.1443V7.36109C60.1443 6.46307 59.9102 5.74925 59.442 5.21965C58.9815 4.69004 58.2907 4.42524 57.3696 4.42524C56.9245 4.42524 56.5177 4.49816 56.1493 4.64399C55.7808 4.78215 55.4623 4.98938 55.1937 5.2657C54.9327 5.54201 54.7293 5.87973 54.5835 6.27886C54.4376 6.6703 54.3647 7.11932 54.3647 7.62589C54.3647 8.63905 54.6142 9.42194 55.1131 9.97458C55.6196 10.5272 56.3718 10.8035 57.3696 10.8035C58.1986 10.8035 58.828 10.6308 59.2578 10.2854ZM58.2792 5.97951C58.4864 6.20978 58.59 6.53215 58.59 6.94662H55.9996C56.0073 6.76241 56.0418 6.59355 56.1032 6.44004C56.1646 6.27886 56.249 6.1407 56.3565 6.02557C56.4716 5.90276 56.6098 5.80682 56.771 5.73774C56.9321 5.66866 57.1202 5.63412 57.3351 5.63412C57.7649 5.63412 58.0796 5.74925 58.2792 5.97951ZM44.8811 18.9541C45.0423 18.5933 45.1459 18.2057 45.192 17.7912H44.0982C44.0522 18.0829 43.9792 18.3515 43.8795 18.5971C43.7797 18.8428 43.6415 19.0538 43.465 19.2304C43.2961 19.4069 43.0774 19.5451 42.8087 19.6448C42.5478 19.7369 42.2292 19.783 41.8532 19.783C41.4387 19.783 41.0703 19.7024 40.7479 19.5412C40.4332 19.38 40.1646 19.1498 39.942 18.8504C39.7271 18.5511 39.562 18.1942 39.4469 17.7797C39.3318 17.3576 39.2742 16.8932 39.2742 16.3866C39.2742 15.88 39.3318 15.4195 39.4469 15.005C39.562 14.5829 39.7271 14.226 39.942 13.9343C40.1646 13.635 40.4332 13.4047 40.7479 13.2435C41.0703 13.0747 41.4348 12.9902 41.8416 12.9902C42.187 12.9902 42.4787 13.0363 42.7166 13.1284C42.9623 13.2128 43.1695 13.3395 43.3384 13.5083C43.5149 13.6772 43.6569 13.8844 43.7643 14.13C43.8795 14.368 43.9716 14.6366 44.0407 14.936L45.0768 14.7633C44.9924 14.3641 44.8696 13.9996 44.7084 13.6695C44.5549 13.3395 44.3477 13.0555 44.0867 12.8175C43.8334 12.5796 43.5226 12.3954 43.1541 12.2649C42.7857 12.1344 42.3482 12.0692 41.8416 12.0692C41.3197 12.0692 40.8323 12.1651 40.3795 12.357C39.9343 12.5489 39.5467 12.8291 39.2166 13.1975C38.8866 13.5659 38.6295 14.0188 38.4453 14.556C38.2611 15.0933 38.1689 15.7073 38.1689 16.3981C38.1689 17.0812 38.2534 17.6914 38.4222 18.2287C38.5988 18.7583 38.8444 19.2073 39.1591 19.5758C39.4738 19.9442 39.8575 20.2243 40.3104 20.4162C40.7632 20.6081 41.2737 20.7041 41.8416 20.7041C42.3636 20.7041 42.8203 20.6311 43.2117 20.4853C43.6108 20.3395 43.9485 20.1361 44.2249 19.8751C44.5012 19.6141 44.7199 19.3071 44.8811 18.9541ZM48.0698 20.4623C48.4229 20.6081 48.8258 20.681 49.2787 20.681C49.7239 20.681 50.1268 20.6081 50.4876 20.4623C50.8483 20.3088 51.1515 20.0939 51.3971 19.8175C51.6504 19.5412 51.8423 19.2073 51.9728 18.8159C52.1109 18.4244 52.18 17.9831 52.18 17.4919C52.18 17.0083 52.1148 16.5747 51.9843 16.1909C51.8538 15.8071 51.6619 15.4809 51.4086 15.2123C51.163 14.936 50.8637 14.7249 50.5106 14.5791C50.1575 14.4332 49.7584 14.3603 49.3132 14.3603C48.8757 14.3603 48.4766 14.4371 48.1159 14.5906C47.7628 14.7364 47.4596 14.9475 47.2063 15.2238C46.953 15.5001 46.7573 15.834 46.6191 16.2254C46.481 16.6169 46.4119 17.0544 46.4119 17.5379C46.4119 18.0215 46.4772 18.459 46.6076 18.8504C46.7381 19.2419 46.9262 19.5719 47.1718 19.8406C47.4174 20.1092 47.7167 20.3164 48.0698 20.4623ZM50.1191 19.6794C49.8889 19.7945 49.6126 19.8521 49.2902 19.8521C48.9678 19.8521 48.6915 19.7945 48.4613 19.6794C48.231 19.5643 48.0429 19.4031 47.8971 19.1958C47.7513 18.9886 47.6438 18.743 47.5747 18.459C47.5057 18.175 47.4711 17.8603 47.4711 17.5149C47.4711 17.1695 47.5057 16.8548 47.5747 16.5708C47.6438 16.2868 47.7513 16.0451 47.8971 15.8455C48.0506 15.6383 48.2387 15.4771 48.4613 15.362C48.6915 15.2468 48.9678 15.1893 49.2902 15.1893C49.6126 15.1893 49.8889 15.2468 50.1191 15.362C50.3494 15.4771 50.5375 15.6383 50.6833 15.8455C50.8368 16.0451 50.9481 16.2868 51.0172 16.5708C51.0863 16.8548 51.1208 17.1657 51.1208 17.5034C51.1208 17.8488 51.0863 18.1673 51.0172 18.459C50.9481 18.743 50.8368 18.9886 50.6833 19.1958C50.5375 19.4031 50.3494 19.5643 50.1191 19.6794ZM54.6275 14.5445H53.6374V20.4968H54.639V16.9508C54.639 16.6284 54.6966 16.3713 54.8117 16.1794C54.9346 15.9875 55.0612 15.8302 55.1917 15.7073C55.5371 15.385 55.9055 15.2238 56.2969 15.2238C56.6347 15.2238 56.8918 15.3274 57.0683 15.5346C57.2525 15.7342 57.3446 16.095 57.3446 16.6169V20.4968H58.3463V16.7435C58.3463 16.5056 58.3962 16.2945 58.496 16.1103C58.5957 15.9261 58.7224 15.7687 58.8759 15.6383C59.0601 15.4848 59.2481 15.3773 59.44 15.3159C59.6319 15.2545 59.8161 15.2238 59.9927 15.2238C60.1615 15.2238 60.3112 15.2468 60.4417 15.2929C60.5722 15.3313 60.6796 15.4042 60.764 15.5116C60.8561 15.6114 60.9252 15.7534 60.9713 15.9376C61.0173 16.1141 61.0404 16.3367 61.0404 16.6054V20.4968H62.042V16.3751C62.042 15.669 61.8808 15.1586 61.5584 14.8439C61.2438 14.5215 60.7947 14.3603 60.2114 14.3603C59.82 14.3603 59.4515 14.4563 59.1061 14.6481C58.7608 14.8323 58.4537 15.1087 58.1851 15.4771C58.0546 15.1163 57.8512 14.84 57.5749 14.6481C57.3063 14.4563 56.9494 14.3603 56.5042 14.3603C56.1665 14.3603 55.8364 14.4524 55.514 14.6366C55.1917 14.8132 54.8962 15.0856 54.6275 15.4541V14.5445ZM64.6593 14.5445H63.6691V22.7304H64.6708V19.76C64.9317 20.1054 65.2234 20.3471 65.5458 20.4853C65.8758 20.6158 66.2097 20.681 66.5474 20.681C66.9542 20.681 67.3188 20.6081 67.6412 20.4623C67.9712 20.3088 68.2514 20.0939 68.4816 19.8175C68.7119 19.5412 68.8884 19.2073 69.0112 18.8159C69.134 18.4168 69.1954 17.9716 69.1954 17.4804C69.1954 17.0198 69.1417 16.6015 69.0343 16.2254C68.9345 15.8417 68.7771 15.5116 68.5622 15.2353C68.355 14.959 68.0902 14.7441 67.7678 14.5906C67.4531 14.4371 67.0847 14.3603 66.6626 14.3603C66.2251 14.3603 65.8413 14.4486 65.5112 14.6251C65.1889 14.8016 64.9049 15.0588 64.6593 15.3965V14.5445ZM64.7859 18.6777C64.7015 18.4014 64.6593 18.0714 64.6593 17.6876V17.2846C64.6593 16.9393 64.7053 16.6361 64.7974 16.3751C64.8895 16.1065 65.0162 15.8877 65.1774 15.7189C65.3462 15.5423 65.5419 15.4118 65.7645 15.3274C65.9871 15.2353 66.2289 15.1893 66.4899 15.1893C66.6971 15.1893 66.8967 15.2276 67.0885 15.3044C67.2881 15.3811 67.4646 15.5078 67.6181 15.6843C67.7717 15.8609 67.8945 16.0988 67.9866 16.3981C68.0863 16.6898 68.1362 17.0544 68.1362 17.4919C68.1362 17.9217 68.0902 18.2863 67.9981 18.5856C67.9136 18.885 67.7947 19.1306 67.6412 19.3225C67.4877 19.5067 67.3035 19.641 67.0885 19.7254C66.8813 19.8099 66.6549 19.8521 66.4093 19.8521C66.156 19.8521 65.9219 19.8137 65.707 19.7369C65.492 19.6525 65.3078 19.522 65.1543 19.3455C65.0008 19.169 64.878 18.9464 64.7859 18.6777ZM72.1161 20.4623C72.4692 20.6081 72.8721 20.681 73.325 20.681C73.7702 20.681 74.1731 20.6081 74.5339 20.4623C74.8946 20.3088 75.1978 20.0939 75.4434 19.8175C75.6967 19.5412 75.8886 19.2073 76.0191 18.8159C76.1572 18.4244 76.2263 17.9831 76.2263 17.4919C76.2263 17.0083 76.1611 16.5747 76.0306 16.1909C75.9001 15.8071 75.7082 15.4809 75.4549 15.2123C75.2093 14.936 74.91 14.7249 74.5569 14.5791C74.2038 14.4332 73.8047 14.3603 73.3595 14.3603C72.922 14.3603 72.5229 14.4371 72.1622 14.5906C71.8091 14.7364 71.5059 14.9475 71.2526 15.2238C70.9993 15.5001 70.8036 15.834 70.6654 16.2254C70.5273 16.6169 70.4582 17.0544 70.4582 17.5379C70.4582 18.0215 70.5234 18.459 70.6539 18.8504C70.7844 19.2419 70.9725 19.5719 71.2181 19.8406C71.4637 20.1092 71.763 20.3164 72.1161 20.4623ZM74.1654 19.6794C73.9352 19.7945 73.6589 19.8521 73.3365 19.8521C73.0141 19.8521 72.7378 19.7945 72.5075 19.6794C72.2773 19.5643 72.0892 19.4031 71.9434 19.1958C71.7976 18.9886 71.6901 18.743 71.621 18.459C71.552 18.175 71.5174 17.8603 71.5174 17.5149C71.5174 17.1695 71.552 16.8548 71.621 16.5708C71.6901 16.2868 71.7976 16.0451 71.9434 15.8455C72.0969 15.6383 72.285 15.4771 72.5075 15.362C72.7378 15.2468 73.0141 15.1893 73.3365 15.1893C73.6589 15.1893 73.9352 15.2468 74.1654 15.362C74.3957 15.4771 74.5838 15.6383 74.7296 15.8455C74.8831 16.0451 74.9944 16.2868 75.0635 16.5708C75.1325 16.8548 75.1671 17.1657 75.1671 17.5034C75.1671 17.8488 75.1325 18.1673 75.0635 18.459C74.9944 18.743 74.8831 18.9886 74.7296 19.1958C74.5838 19.4031 74.3957 19.5643 74.1654 19.6794ZM78.8465 19.6333C78.5702 19.4645 78.3975 19.1728 78.3284 18.7583H77.3613C77.3844 19.1114 77.4688 19.4107 77.6146 19.6564C77.7605 19.902 77.9523 20.1015 78.1903 20.255C78.4282 20.4009 78.7007 20.5083 79.0077 20.5774C79.3224 20.6465 79.6601 20.681 80.0209 20.681C80.42 20.681 80.7692 20.635 81.0686 20.5429C81.3679 20.4584 81.6174 20.3395 81.8169 20.186C82.0165 20.0248 82.1661 19.8406 82.2659 19.6333C82.3657 19.4184 82.4156 19.1843 82.4156 18.931C82.4156 18.3861 82.2621 17.9716 81.9551 17.6876C81.6557 17.4036 81.1568 17.2041 80.4584 17.0889L79.5949 16.9508C79.3646 16.9124 79.1766 16.8663 79.0307 16.8126C78.8849 16.7589 78.7698 16.6975 78.6853 16.6284C78.6009 16.5516 78.5433 16.4672 78.5126 16.3751C78.4819 16.2753 78.4666 16.164 78.4666 16.0412C78.4666 15.9261 78.4896 15.8186 78.5357 15.7189C78.5817 15.6114 78.6585 15.5155 78.7659 15.431C78.8811 15.3466 79.0307 15.2814 79.2149 15.2353C79.3992 15.1816 79.6294 15.1547 79.9057 15.1547C80.1513 15.1547 80.3547 15.1777 80.5159 15.2238C80.6848 15.2622 80.8268 15.3236 80.9419 15.408C81.057 15.4848 81.1492 15.5845 81.2182 15.7073C81.2873 15.8302 81.3487 15.9721 81.4024 16.1333L82.312 15.9837C82.2583 15.7611 82.1815 15.55 82.0817 15.3504C81.9819 15.1509 81.8399 14.9782 81.6557 14.8323C81.4715 14.6865 81.2336 14.5714 80.9419 14.487C80.6579 14.4025 80.301 14.3603 79.8712 14.3603C79.5335 14.3603 79.2188 14.4025 78.9271 14.487C78.6431 14.5637 78.3937 14.6788 78.1788 14.8323C77.9715 14.9782 77.8065 15.1586 77.6837 15.3735C77.5686 15.5884 77.511 15.834 77.511 16.1103C77.511 16.3866 77.5532 16.6246 77.6376 16.8241C77.7297 17.016 77.8641 17.181 78.0406 17.3192C78.2171 17.4497 78.4321 17.5571 78.6853 17.6416C78.9386 17.726 79.2341 17.7951 79.5719 17.8488L80.3317 17.9639C80.5543 18.0023 80.7347 18.0522 80.8728 18.1136C81.011 18.175 81.1185 18.2479 81.1952 18.3323C81.272 18.4091 81.3218 18.5012 81.3449 18.6087C81.3756 18.7084 81.3909 18.8159 81.3909 18.931C81.3909 19.215 81.2835 19.4453 81.0686 19.6218C80.8613 19.7907 80.5044 19.8751 79.9978 19.8751C79.5143 19.8751 79.1305 19.7945 78.8465 19.6333ZM84.8387 14.5445H83.837V20.4968H84.8387V14.5445ZM84.8732 12.2764H83.8025V13.4393H84.8732V12.2764ZM85.9394 15.3389H86.8605V18.5626C86.8605 18.8619 86.8797 19.1383 86.918 19.3916C86.9641 19.6448 87.0485 19.8636 87.1713 20.0478C87.2941 20.232 87.4592 20.374 87.6664 20.4738C87.8736 20.5736 88.1461 20.6235 88.4838 20.6235C88.7295 20.6235 88.9405 20.6043 89.1171 20.5659C89.3013 20.5352 89.4701 20.493 89.6236 20.4393L89.4509 19.6679C89.3435 19.7062 89.2245 19.7369 89.094 19.76C88.9712 19.783 88.8254 19.7945 88.6565 19.7945C88.3879 19.7945 88.1883 19.7062 88.0578 19.5297C87.9274 19.3532 87.8621 19.1191 87.8621 18.8274V15.3389H89.4394V14.5445H87.8621V12.9212H86.8605V14.5445H85.9394V15.3389ZM91.9151 20.4623C92.2682 20.6081 92.6711 20.681 93.124 20.681C93.5692 20.681 93.9721 20.6081 94.3329 20.4623C94.6936 20.3088 94.9968 20.0939 95.2424 19.8175C95.4957 19.5412 95.6876 19.2073 95.8181 18.8159C95.9562 18.4244 96.0253 17.9831 96.0253 17.4919C96.0253 17.0083 95.9601 16.5747 95.8296 16.1909C95.6991 15.8071 95.5072 15.4809 95.2539 15.2123C95.0083 14.936 94.709 14.7249 94.3559 14.5791C94.0028 14.4332 93.6037 14.3603 93.1585 14.3603C92.721 14.3603 92.3219 14.4371 91.9612 14.5906C91.6081 14.7364 91.3049 14.9475 91.0516 15.2238C90.7983 15.5001 90.6026 15.834 90.4645 16.2254C90.3263 16.6169 90.2572 17.0544 90.2572 17.5379C90.2572 18.0215 90.3225 18.459 90.4529 18.8504C90.5834 19.2419 90.7715 19.5719 91.0171 19.8406C91.2627 20.1092 91.562 20.3164 91.9151 20.4623ZM93.9645 19.6794C93.7342 19.7945 93.4579 19.8521 93.1355 19.8521C92.8131 19.8521 92.5368 19.7945 92.3066 19.6794C92.0763 19.5643 91.8883 19.4031 91.7424 19.1958C91.5966 18.9886 91.4891 18.743 91.4201 18.459C91.351 18.175 91.3164 17.8603 91.3164 17.5149C91.3164 17.1695 91.351 16.8548 91.4201 16.5708C91.4891 16.2868 91.5966 16.0451 91.7424 15.8455C91.8959 15.6383 92.084 15.4771 92.3066 15.362C92.5368 15.2468 92.8131 15.1893 93.1355 15.1893C93.4579 15.1893 93.7342 15.2468 93.9645 15.362C94.1947 15.4771 94.3828 15.6383 94.5286 15.8455C94.6821 16.0451 94.7934 16.2868 94.8625 16.5708C94.9316 16.8548 94.9661 17.1657 94.9661 17.5034C94.9661 17.8488 94.9316 18.1673 94.8625 18.459C94.7934 18.743 94.6821 18.9886 94.5286 19.1958C94.3828 19.4031 94.1947 19.5643 93.9645 19.6794ZM98.4729 14.5445H97.4827V20.4968H98.4844V16.9623C98.4844 16.709 98.5304 16.4864 98.6225 16.2945C98.7223 16.1026 98.8566 15.9338 99.0255 15.7879C99.1943 15.6344 99.3747 15.527 99.5666 15.4656C99.7585 15.3965 99.9465 15.362 100.131 15.362C100.223 15.362 100.307 15.3696 100.384 15.385C100.461 15.3927 100.538 15.4042 100.614 15.4195L100.741 14.487C100.595 14.4563 100.419 14.4409 100.211 14.4409C99.8736 14.4409 99.5551 14.5292 99.2557 14.7057C98.9564 14.8822 98.6954 15.1355 98.4729 15.4656V14.5445Z" fill="#FAFAFA"/>
<path d="M5.98183 5.26812C6.33366 4.9163 6.33366 4.34588 5.98183 3.99406C5.63001 3.64224 5.0596 3.64224 4.70777 3.99406L1.74042 6.96141C1.62147 7.05955 1.51237 7.16919 1.41482 7.28864C1.38124 7.32578 1.3513 7.36504 1.32501 7.40597C1.04974 7.78997 0.887695 8.26063 0.887695 8.76915V20.0969C0.887695 21.3905 1.93639 22.4392 3.23003 22.4392H23.2931C24.0405 22.4392 24.7062 22.0891 25.1351 21.5439L27.9004 18.802C28.2537 18.4516 28.2561 17.8812 27.9058 17.5279C27.5554 17.1746 26.985 17.1722 26.6317 17.5225L25.6354 18.5104H4.70777L4.82314 6.42681L5.98183 5.26812Z" fill="#FAFAFA"/>
<path d="M34.6183 6.23486C34.6183 5.89265 34.4486 5.57273 34.1652 5.38087C33.8818 5.18902 33.5217 5.15023 33.204 5.27732L27.6715 7.49032C27.1427 7.70185 26.8854 8.30204 27.097 8.83087C27.3085 9.3597 27.9087 9.61693 28.4375 9.40539L32.5557 7.75812V15.7766L28.4375 14.1293C27.9087 13.9178 27.3085 14.175 27.097 14.7038C26.8854 15.2327 27.1427 15.8329 27.6715 16.0444L33.204 18.2574C33.5217 18.3845 33.8818 18.3457 34.1652 18.1538C34.4486 17.962 34.6183 17.6421 34.6183 17.2998V6.23486Z" fill="#FAFAFA"/>
<path fill-rule="evenodd" clip-rule="evenodd" d="M26.1759 5.34574H6.1129C5.81436 5.34574 5.57236 5.58775 5.57236 5.88628V17.214C5.57236 17.5125 5.81436 17.7545 6.1129 17.7545H26.1759C26.4745 17.7545 26.7165 17.5125 26.7165 17.214V5.88628C26.7165 5.58775 26.4745 5.34574 26.1759 5.34574ZM6.1129 3.54395C4.81926 3.54395 3.77056 4.59264 3.77056 5.88628V17.214C3.77056 18.5076 4.81926 19.5563 6.1129 19.5563H26.1759C27.4696 19.5563 28.5183 18.5076 28.5183 17.214V5.88628C28.5183 4.59264 27.4696 3.54395 26.1759 3.54395H6.1129Z" fill="#FAFAFA"/>
<path fill-rule="evenodd" clip-rule="evenodd" d="M18.4398 8.81623C18.6396 8.42762 18.4865 7.95062 18.0979 7.75081C17.7093 7.551 17.2323 7.70406 17.0325 8.09267L13.8491 14.2841C13.6493 14.6727 13.8024 15.1497 14.191 15.3495C14.5796 15.5493 15.0566 15.3962 15.2564 15.0076L18.4398 8.81623ZM12.1591 15.1459C11.8828 15.4844 11.3844 15.5349 11.0459 15.2586L7.85375 12.6534C7.15552 12.0835 7.15552 11.0166 7.85375 10.4467L11.0459 7.84146C11.3844 7.56518 11.8828 7.61563 12.1591 7.95416C12.4354 8.2927 12.385 8.7911 12.0464 9.06739L9.00449 11.55L12.0464 14.0327C12.385 14.309 12.4354 14.8074 12.1591 15.1459ZM20.1297 7.95436C20.406 7.61583 20.9044 7.56536 21.2429 7.84164L24.4352 10.4469C25.1335 11.0167 25.1335 12.0837 24.4352 12.6536L21.2429 15.2588C20.9044 15.5351 20.406 15.4846 20.1297 15.1461C19.8534 14.8075 19.9039 14.3091 20.2424 14.0329L23.2845 11.5502L20.2424 9.06759C19.9039 8.79131 19.8534 8.2929 20.1297 7.95436Z" fill="#FAFAFA"/>
</svg>
