<svg width="24" height="24" viewBox="0 0 24 24" fill="none" xmlns="http://www.w3.org/2000/svg">
<g clip-path="url(#clip0_169_522)">
<path d="M8.15107 18.6198C8.15107 18.7136 8.04326 18.7886 7.90732 18.7886C7.75264 18.8026 7.64482 18.7276 7.64482 18.6198C7.64482 18.5261 7.75264 18.4511 7.88857 18.4511C8.0292 18.437 8.15107 18.512 8.15107 18.6198ZM6.69326 18.4089C6.66045 18.5026 6.7542 18.6104 6.89482 18.6386C7.0167 18.6854 7.15732 18.6386 7.18545 18.5448C7.21357 18.4511 7.12451 18.3433 6.98389 18.3011C6.86201 18.2683 6.72607 18.3151 6.69326 18.4089ZM8.76514 18.3292C8.6292 18.362 8.53545 18.4511 8.54951 18.5589C8.56357 18.6526 8.68545 18.7136 8.82607 18.6808C8.96201 18.6479 9.05576 18.5589 9.0417 18.4651C9.02764 18.3761 8.90107 18.3151 8.76514 18.3292ZM11.8495 0.366699C5.34795 0.366699 0.374512 5.30264 0.374512 11.8042C0.374512 17.0026 3.64639 21.4511 8.31982 23.0167C8.91982 23.1245 9.13076 22.7542 9.13076 22.4495C9.13076 22.1589 9.1167 20.5558 9.1167 19.5714C9.1167 19.5714 5.83545 20.2745 5.14639 18.1745C5.14639 18.1745 4.61201 16.8104 3.84326 16.4589C3.84326 16.4589 2.76982 15.7229 3.91826 15.737C3.91826 15.737 5.08545 15.8308 5.72764 16.9464C6.7542 18.7558 8.47451 18.2354 9.14482 17.9261C9.25264 17.1761 9.55732 16.6558 9.89482 16.3464C7.27451 16.0558 4.63076 15.6761 4.63076 11.1667C4.63076 9.87764 4.98701 9.23076 5.73701 8.40576C5.61514 8.10107 5.2167 6.84482 5.85889 5.22295C6.83857 4.91826 9.09326 6.48857 9.09326 6.48857C10.0308 6.22607 11.0386 6.09014 12.037 6.09014C13.0354 6.09014 14.0433 6.22607 14.9808 6.48857C14.9808 6.48857 17.2354 4.91357 18.2151 5.22295C18.8573 6.84951 18.4589 8.10107 18.337 8.40576C19.087 9.23545 19.5464 9.88232 19.5464 11.1667C19.5464 15.6901 16.7854 16.0511 14.1651 16.3464C14.5964 16.7167 14.962 17.4198 14.962 18.5214C14.962 20.1011 14.9479 22.0558 14.9479 22.4401C14.9479 22.7448 15.1636 23.1151 15.7589 23.0073C20.4464 21.4511 23.6245 17.0026 23.6245 11.8042C23.6245 5.30264 18.3511 0.366699 11.8495 0.366699ZM4.93076 16.5339C4.86982 16.5808 4.88389 16.6886 4.96357 16.7776C5.03857 16.8526 5.14639 16.8855 5.20732 16.8245C5.26826 16.7776 5.2542 16.6698 5.17451 16.5808C5.09951 16.5058 4.9917 16.4729 4.93076 16.5339ZM4.42451 16.1542C4.3917 16.2151 4.43857 16.2901 4.53232 16.337C4.60732 16.3839 4.70107 16.3698 4.73389 16.3042C4.7667 16.2433 4.71982 16.1683 4.62607 16.1214C4.53232 16.0933 4.45732 16.1073 4.42451 16.1542ZM5.94326 17.8229C5.86826 17.8839 5.89639 18.0245 6.0042 18.1136C6.11201 18.2214 6.24795 18.2354 6.30889 18.1604C6.36982 18.0995 6.3417 17.9589 6.24795 17.8698C6.14482 17.762 6.0042 17.7479 5.94326 17.8229ZM5.40889 17.1339C5.33389 17.1808 5.33389 17.3026 5.40889 17.4104C5.48389 17.5183 5.61045 17.5651 5.67139 17.5183C5.74639 17.4573 5.74639 17.3354 5.67139 17.2276C5.60576 17.1198 5.48389 17.073 5.40889 17.1339Z" fill="#FAFAFA"/>
</g>
<defs>
<clipPath id="clip0_169_522">
<rect width="24" height="24" fill="white" transform="translate(-0.000488281 -0.00830078)"/>
</clipPath>
</defs>
</svg>
