<svg width="31" height="17" viewBox="0 0 31 17" fill="none" xmlns="http://www.w3.org/2000/svg">
<path d="M0.0292969 10.2844H2.95513V13.4167H18.5061V10.2844H21.4319V16.4807H0.0334129V10.2844H0.0292969Z" fill="#F24664"/>
<path d="M16.8842 4.66632C16.7567 4.66632 16.5345 4.69844 16.2176 4.75868L14.267 5.20042C14.0119 5.26065 13.7444 5.29278 13.4605 5.29278C12.8103 5.29278 12.2424 5.08798 11.7609 4.67837C11.2795 4.26876 10.9338 3.6945 10.7281 2.95159C10.6005 3.6945 10.3083 4.27277 9.84743 4.69041C9.38653 5.10805 8.82688 5.31687 8.16024 5.31687C7.9051 5.31687 7.58001 5.27672 7.18496 5.20042L5.2344 4.75868C4.88462 4.69844 4.65417 4.66632 4.54307 4.66632C4.03691 4.66632 3.64186 4.81491 3.36615 5.10806C3.09044 5.40121 2.95052 5.81885 2.95052 6.36097L2.92583 7.17216H0V6.49751C0 4.9675 0.345669 3.75876 1.03289 2.8793C1.72011 1.99985 2.66247 1.55811 3.85173 1.55811C4.20151 1.55811 4.52661 1.59024 4.82701 1.65048L6.96686 2.04402C7.12323 2.09221 7.36191 2.11229 7.67877 2.11229C8.70755 2.11229 9.23839 1.40953 9.27131 0H12.1725C12.1889 0.694728 12.3288 1.22481 12.5881 1.59024C12.8473 1.95568 13.2424 2.13639 13.765 2.13639C14.0037 2.13639 14.2382 2.10426 14.4769 2.04402L16.6168 1.65048C16.9172 1.59024 17.2423 1.55811 17.592 1.55811C18.7813 1.55811 19.7195 1.99985 20.4109 2.8793C21.1022 3.76277 21.4438 4.9675 21.4438 6.49751V7.17216H18.5179L18.4932 6.36097C18.4932 5.81885 18.3492 5.40121 18.0653 5.10806C17.7813 4.81491 17.3822 4.66632 16.876 4.66632H16.8842Z" fill="#F24664"/>
<path d="M21.4512 7.20026L30.8418 3.39331V6.5497L25.1836 8.73026L30.8418 10.9108V14.0672L21.4512 10.2603V7.19624V7.20026Z" fill="#F24664"/>
</svg>
