<svg width="131" height="25" viewBox="0 0 131 25" fill="none" xmlns="http://www.w3.org/2000/svg">
<path d="M7.17422 4.70361C7.52604 4.35179 7.52604 3.78137 7.17422 3.42955C6.82239 3.07773 6.25198 3.07773 5.90016 3.42955L2.9328 6.3969C2.81385 6.49503 2.70475 6.60468 2.6072 6.72413C2.57362 6.76127 2.54368 6.80053 2.51739 6.84145C2.24212 7.22545 2.08008 7.69612 2.08008 8.20463V19.5324C2.08008 20.826 3.12878 21.8747 4.42241 21.8747H24.4854C25.2329 21.8747 25.8986 21.5246 26.3274 20.9794L29.0927 18.2374C29.446 17.8871 29.4485 17.3167 29.0981 16.9634C28.7478 16.6101 28.1774 16.6077 27.8241 16.958L26.8278 17.9459H5.90016L6.01552 5.8623L7.17422 4.70361Z" fill="#F24664"/>
<path d="M35.8107 5.67034C35.8107 5.32814 35.6409 5.00821 35.3576 4.81636C35.0742 4.62451 34.7141 4.58571 34.3964 4.71281L28.8639 6.9258C28.335 7.13734 28.0778 7.73752 28.2894 8.26636C28.5009 8.79519 29.1011 9.05241 29.6299 8.84088L33.7481 7.19361V15.2121L29.6299 13.5648C29.1011 13.3533 28.5009 13.6105 28.2894 14.1393C28.0778 14.6681 28.335 15.2683 28.8639 15.4799L34.3964 17.6929C34.7141 17.82 35.0742 17.7812 35.3576 17.5893C35.6409 17.3975 35.8107 17.0775 35.8107 16.7353V5.67034Z" fill="#F24664"/>
<path fill-rule="evenodd" clip-rule="evenodd" d="M27.3683 4.78122H7.30528C7.00675 4.78122 6.76474 5.02323 6.76474 5.32176V16.6495C6.76474 16.948 7.00675 17.19 7.30528 17.19H27.3683C27.6668 17.19 27.9088 16.948 27.9088 16.6495V5.32176C27.9088 5.02323 27.6668 4.78122 27.3683 4.78122ZM7.30528 2.97943C6.01164 2.97943 4.96295 4.02813 4.96295 5.32176V16.6495C4.96295 17.9431 6.01164 18.9918 7.30528 18.9918H27.3683C28.6619 18.9918 29.7106 17.9431 29.7106 16.6495V5.32176C29.7106 4.02813 28.6619 2.97943 27.3683 2.97943H7.30528Z" fill="#F24664"/>
<path fill-rule="evenodd" clip-rule="evenodd" d="M19.6312 8.2517C19.831 7.86309 19.6779 7.38609 19.2893 7.18628C18.9007 6.98648 18.4237 7.13953 18.2239 7.52814L15.0405 13.7195C14.8407 14.1082 14.9938 14.5852 15.3824 14.785C15.771 14.9848 16.248 14.8317 16.4478 14.4431L19.6312 8.2517ZM13.3505 14.5814C13.0742 14.9199 12.5758 14.9704 12.2373 14.6941L9.04516 12.0888C8.34693 11.519 8.34692 10.452 9.04516 9.88217L12.2373 7.27694C12.5758 7.00065 13.0742 7.05111 13.3505 7.38964C13.6268 7.72817 13.5764 8.22658 13.2378 8.50286L10.1959 10.9855L13.2378 13.4681C13.5764 13.7444 13.6268 14.2428 13.3505 14.5814ZM21.3211 7.38984C21.5974 7.0513 22.0958 7.00083 22.4343 7.27711L25.6266 9.88234C26.3249 10.4522 26.3249 11.5192 25.6266 12.089L22.4343 14.6943C22.0958 14.9706 21.5974 14.9201 21.3211 14.5816C21.0448 14.243 21.0953 13.7446 21.4338 13.4683L24.4759 10.9857L21.4338 8.50306C21.0953 8.22678 21.0448 7.72837 21.3211 7.38984Z" fill="#F24664"/>
<path d="M46.6828 17.2299C47.2497 17.6935 48.0082 17.9271 48.9505 17.9271C49.732 17.9271 50.3717 17.7624 50.8658 17.4291C51.36 17.0959 51.6052 16.6362 51.6052 16.0463C51.6052 15.6326 51.4673 15.3031 51.1953 15.0618C50.9233 14.8166 50.5402 14.6251 50.0461 14.4872C49.5519 14.3493 48.7896 14.1731 47.7554 13.9662C46.7364 13.7747 45.8822 13.5257 45.1888 13.2231C44.4955 12.9205 43.9324 12.4723 43.4957 11.8747C43.059 11.2771 42.8406 10.4842 42.8406 9.49586C42.8406 8.59565 43.0896 7.79122 43.5838 7.08255C44.0779 6.37388 44.7636 5.81843 45.6408 5.41238C46.518 5.00634 47.5102 4.80331 48.6172 4.80331C49.7243 4.80331 50.7739 5.014 51.6818 5.43537C52.5896 5.85674 53.306 6.43517 53.8269 7.17448C54.3479 7.9138 54.6199 8.74505 54.6352 9.6759H51.383C51.3102 9.0132 51.0306 8.47691 50.5402 8.07086C50.0537 7.66481 49.4102 7.46178 48.6134 7.46178C47.8741 7.46178 47.2842 7.61501 46.8437 7.92529C46.3993 8.23558 46.181 8.6761 46.181 9.25453C46.181 9.66824 46.315 9.99001 46.5793 10.216C46.8437 10.4459 47.2191 10.6297 47.7094 10.7676C48.1959 10.9094 48.9505 11.0741 49.9656 11.2656C50.9999 11.4572 51.8695 11.6985 52.5781 11.9858C53.2868 12.2731 53.8576 12.7098 54.2943 13.292C54.731 13.8743 54.9455 14.6519 54.9455 15.6249C54.9455 16.5979 54.6888 17.4138 54.1717 18.157C53.6546 18.9039 52.9382 19.49 52.015 19.9152C51.0918 20.3443 50.0576 20.5588 48.9045 20.5588C47.6672 20.5588 46.564 20.3328 45.5949 19.8846C44.6295 19.4364 43.8711 18.812 43.3271 18.0152C42.7832 17.2185 42.4997 16.3259 42.4844 15.3376L45.7366 15.3836C45.7941 16.1497 46.1082 16.7664 46.6789 17.2299H46.6828Z" fill="#FCF5F5"/>
<path d="M74.9296 14.1846V20.4477H71.8076V14.0735C71.8076 12.3459 71.1525 11.484 69.8386 11.484C69.1606 11.484 68.6128 11.7253 68.2029 12.2041C67.7892 12.683 67.5824 13.3495 67.5824 14.2076V20.4477H64.4604V14.0735C64.4604 12.3459 63.7977 11.484 62.4685 11.484C61.7904 11.484 61.2465 11.733 60.8404 12.2271C60.4344 12.7213 60.2314 13.3878 60.2314 14.2305V20.4477H57.1094V9.05151H59.833L60.1203 10.4688C60.5033 9.98235 60.963 9.60695 61.4916 9.33881C62.0203 9.07066 62.6868 8.93275 63.4836 8.91743C65.1078 8.91743 66.234 9.56098 66.8699 10.8442C67.2836 10.2237 67.8237 9.74868 68.4979 9.41542C69.1683 9.08215 69.9344 8.91743 70.7886 8.91743C72.0144 8.91743 73.0104 9.32348 73.7766 10.1356C74.5427 10.9477 74.9257 12.2961 74.9257 14.1846H74.9296Z" fill="#FCF5F5"/>
<path d="M79.6101 9.6376C80.472 9.15876 81.4718 8.91743 82.6095 8.91743C83.7472 8.91743 84.7738 9.14344 85.651 9.59162C86.5282 10.0398 87.2139 10.6757 87.7081 11.4955C88.2022 12.3152 88.4551 13.2767 88.4704 14.3838C88.4704 14.7822 88.4397 15.1346 88.3823 15.4449H80.1272V15.533C80.2 16.3604 80.4681 17.0078 80.924 17.4789C81.3798 17.9501 82.0081 18.1876 82.8048 18.1876C83.4407 18.1876 83.9655 18.0497 84.3869 17.7777C84.8083 17.5058 85.0841 17.1035 85.2182 16.5711H88.2942C88.1754 17.3219 87.8881 18.0037 87.4323 18.6052C86.9764 19.2066 86.3712 19.6854 85.6166 20.034C84.8657 20.3826 84 20.555 83.027 20.555C81.7591 20.555 80.6635 20.3175 79.7403 19.8463C78.8171 19.3751 78.1085 18.7009 77.6143 17.8199C77.1202 16.9427 76.875 15.9199 76.875 14.7553C76.875 13.5908 77.1125 12.5451 77.5952 11.6678C78.0778 10.7906 78.7444 10.1126 79.6101 9.63376V9.6376ZM84.5018 11.8057C84.0383 11.4303 83.4522 11.2426 82.7436 11.2426C82.0349 11.2426 81.4948 11.438 81.0274 11.8287C80.5639 12.2195 80.2881 12.7481 80.1962 13.4108H85.3522C85.2488 12.7174 84.9653 12.1812 84.5018 11.8057Z" fill="#FCF5F5"/>
<path d="M93.7196 4.93737V20.4285H90.5977V4.93737H93.7196Z" fill="#FCF5F5"/>
<path d="M99.4306 5.8644V9.05151H102.02V11.687H99.4306V16.6668C99.4306 17.0652 99.5148 17.3525 99.6834 17.5287C99.8519 17.7049 100.135 17.7931 100.534 17.7931H102.15V20.4285H99.5608C97.3927 20.4285 96.3086 19.3445 96.3086 17.1763V5.86824H99.4306V5.8644Z" fill="#FCF5F5"/>
<path d="M105.993 9.6376C106.855 9.15876 107.855 8.91743 108.992 8.91743C110.13 8.91743 111.157 9.14344 112.034 9.59162C112.911 10.0398 113.597 10.6757 114.091 11.4955C114.585 12.3152 114.838 13.2767 114.853 14.3838C114.853 14.7822 114.823 15.1346 114.765 15.4449H106.51V15.533C106.583 16.3604 106.851 17.0078 107.307 17.4789C107.763 17.9501 108.391 18.1876 109.188 18.1876C109.824 18.1876 110.348 18.0497 110.77 17.7777C111.191 17.5058 111.467 17.1035 111.601 16.5711H114.677C114.558 17.3219 114.271 18.0037 113.815 18.6052C113.359 19.2066 112.754 19.6854 111.999 20.034C111.249 20.3826 110.383 20.555 109.41 20.555C108.142 20.555 107.046 20.3175 106.123 19.8463C105.2 19.3751 104.491 18.7009 103.997 17.8199C103.503 16.9427 103.258 15.9199 103.258 14.7553C103.258 13.5908 103.495 12.5451 103.978 11.6678C104.461 10.7906 105.127 10.1126 105.993 9.63376V9.6376ZM110.881 11.8057C110.417 11.4303 109.831 11.2426 109.123 11.2426C108.414 11.2426 107.874 11.438 107.406 11.8287C106.943 12.2195 106.667 12.7481 106.575 13.4108H111.731C111.628 12.7174 111.344 12.1812 110.881 11.8057Z" fill="#FCF5F5"/>
<path d="M123.904 11.8862H122.663C121.778 11.8862 121.127 12.1505 120.717 12.683C120.303 13.2154 120.097 13.9356 120.097 14.8511V20.4285H116.975V9.05534H119.805L120.093 10.76C120.434 10.2007 120.851 9.7755 121.353 9.4882C121.855 9.2009 122.525 9.05534 123.368 9.05534H123.9V11.8862H123.904Z" fill="#FCF5F5"/>
<path d="M125.061 17.0384C125.593 17.0384 126.037 17.2146 126.401 17.5709C126.761 17.9233 126.945 18.3677 126.945 18.9001C126.945 19.4326 126.765 19.8693 126.401 20.2179C126.041 20.5664 125.593 20.7388 125.061 20.7388C124.528 20.7388 124.065 20.5664 123.712 20.2179C123.36 19.8693 123.18 19.4326 123.18 18.9001C123.18 18.3677 123.356 17.908 123.712 17.5632C124.065 17.2146 124.517 17.0422 125.061 17.0422V17.0384Z" fill="#F24664"/>
</svg>
