<svg width="455" height="358" viewBox="0 0 455 358" fill="none" xmlns="http://www.w3.org/2000/svg">
<path fill-rule="evenodd" clip-rule="evenodd" d="M49.5637 9.59452C65.5473 -1.09758 86.4007 -1.09759 102.384 9.59451L124.704 24.5248C141.024 35.442 162.316 35.442 178.636 24.5248L200.956 9.59452C216.939 -1.09758 237.793 -1.09759 253.776 9.59451L276.096 24.5248C292.416 35.442 313.708 35.442 330.028 24.5248L352.348 9.59452C368.331 -1.09758 389.185 -1.09759 405.168 9.59451L454.176 42.3777L454.732 41.5465L405.724 8.76334C389.404 -2.15386 368.112 -2.15386 351.792 8.76334L329.472 23.6936C313.489 34.3857 292.635 34.3857 276.652 23.6936L254.332 8.76334C238.012 -2.15386 216.72 -2.15386 200.4 8.76334L178.08 23.6936C162.097 34.3857 141.243 34.3857 125.26 23.6936L102.94 8.76334C86.6202 -2.15386 65.3278 -2.15386 49.0077 8.76334L0 41.5465L0.556007 42.3777L49.5637 9.59452ZM49.5637 29.2854C65.5473 18.5933 86.4007 18.5933 102.384 29.2854L124.704 44.2157C141.024 55.1329 162.316 55.1329 178.636 44.2157L200.956 29.2854C216.939 18.5933 237.793 18.5933 253.776 29.2854L276.096 44.2157C292.416 55.1329 313.708 55.1329 330.028 44.2157L352.348 29.2854C368.331 18.5933 389.185 18.5933 405.168 29.2854L454.176 62.0686L454.732 61.2374L405.724 28.4543C389.404 17.5371 368.112 17.5371 351.792 28.4543L329.472 43.3845C313.489 54.0766 292.635 54.0766 276.652 43.3845L254.332 28.4543C238.012 17.5371 216.72 17.5371 200.4 28.4543L178.08 43.3845C162.097 54.0766 141.243 54.0766 125.26 43.3845L102.94 28.4543C86.6202 17.5371 65.3278 17.5371 49.0077 28.4543L0 61.2374L0.556007 62.0686L49.5637 29.2854ZM102.384 51.7908C86.4007 41.0987 65.5473 41.0987 49.5637 51.7908L0.556007 84.574L0 83.7428L49.0077 50.9596C65.3278 40.0424 86.6202 40.0424 102.94 50.9596L125.26 65.8899C141.243 76.582 162.097 76.582 178.08 65.8899L200.4 50.9596C216.72 40.0424 238.012 40.0424 254.332 50.9596L276.652 65.8899C292.635 76.582 313.489 76.582 329.472 65.8899L351.792 50.9596C368.112 40.0424 389.404 40.0424 405.724 50.9596L454.732 83.7428L454.176 84.574L405.168 51.7908C389.185 41.0987 368.331 41.0987 352.348 51.7908L330.028 66.7211C313.708 77.6383 292.416 77.6383 276.096 66.7211L253.776 51.7908C237.793 41.0987 216.939 41.0987 200.956 51.7908L178.636 66.7211C162.316 77.6383 141.024 77.6383 124.704 66.7211L102.384 51.7908ZM49.5637 71.4842C65.5473 60.7921 86.4007 60.7921 102.384 71.4842L124.704 86.4144C141.024 97.3316 162.316 97.3316 178.636 86.4144L200.956 71.4842C216.939 60.7921 237.793 60.7921 253.776 71.4842L276.096 86.4144C292.416 97.3316 313.708 97.3316 330.028 86.4144L352.348 71.4842C368.331 60.7921 389.185 60.7921 405.168 71.4842L454.176 104.267L454.732 103.436L405.724 70.653C389.404 59.7358 368.112 59.7358 351.792 70.653L329.472 85.5833C313.489 96.2754 292.635 96.2754 276.652 85.5833L254.332 70.653C238.012 59.7358 216.72 59.7358 200.4 70.653L178.08 85.5833C162.097 96.2754 141.243 96.2754 125.26 85.5833L102.94 70.653C86.6202 59.7358 65.3278 59.7358 49.0077 70.653L0 103.436L0.556007 104.267L49.5637 71.4842ZM102.384 177.966C86.4007 167.274 65.5473 167.274 49.5637 177.966L0.556007 210.749L0 209.918L49.0077 177.134C65.3278 166.217 86.6202 166.217 102.94 177.134L125.26 192.065C141.243 202.757 162.097 202.757 178.08 192.065L200.4 177.134C216.72 166.217 238.012 166.217 254.332 177.134L276.652 192.065C292.635 202.757 313.489 202.757 329.472 192.065L351.792 177.134C368.112 166.217 389.404 166.217 405.724 177.134L454.732 209.918L454.176 210.749L405.168 177.966C389.185 167.274 368.331 167.274 352.348 177.966L330.028 192.896C313.708 203.813 292.416 203.813 276.096 192.896L253.776 177.966C237.793 167.274 216.939 167.274 200.956 177.966L178.636 192.896C162.316 203.813 141.024 203.813 124.704 192.896L102.384 177.966ZM49.5637 197.656C65.5473 186.964 86.4007 186.964 102.384 197.656L124.704 212.586C141.024 223.504 162.316 223.504 178.636 212.586L200.956 197.656C216.939 186.964 237.793 186.964 253.776 197.656L276.096 212.586C292.416 223.504 313.708 223.504 330.028 212.586L352.348 197.656C368.331 186.964 389.185 186.964 405.168 197.656L454.176 230.439L454.732 229.608L405.724 196.825C389.404 185.908 368.112 185.908 351.792 196.825L329.472 211.755C313.489 222.447 292.635 222.447 276.652 211.755L254.332 196.825C238.012 185.908 216.72 185.908 200.4 196.825L178.08 211.755C162.097 222.447 141.243 222.447 125.26 211.755L102.94 196.825C86.6202 185.908 65.3278 185.908 49.0077 196.825L0 229.608L0.556007 230.439L49.5637 197.656ZM102.384 220.162C86.4007 209.47 65.5473 209.47 49.5637 220.162L0.556007 252.945L0 252.114L49.0077 219.331C65.3278 208.414 86.6202 208.414 102.94 219.331L125.26 234.261C141.243 244.953 162.097 244.953 178.08 234.261L200.4 219.331C216.72 208.414 238.012 208.414 254.332 219.331L276.652 234.261C292.635 244.953 313.489 244.953 329.472 234.261L351.792 219.331C368.112 208.414 389.404 208.414 405.724 219.331L454.732 252.114L454.176 252.945L405.168 220.162C389.185 209.47 368.331 209.47 352.348 220.162L330.028 235.092C313.708 246.009 292.416 246.009 276.096 235.092L253.776 220.162C237.793 209.47 216.939 209.47 200.956 220.162L178.636 235.092C162.316 246.009 141.024 246.009 124.704 235.092L102.384 220.162ZM49.5637 239.855C65.5473 229.163 86.4007 229.163 102.384 239.855L124.704 254.786C141.024 265.703 162.316 265.703 178.636 254.786L200.956 239.855C216.939 229.163 237.793 229.163 253.776 239.855L276.096 254.786C292.416 265.703 313.708 265.703 330.028 254.786L352.348 239.855C368.331 229.163 389.185 229.163 405.168 239.855L454.176 272.638L454.732 271.807L405.724 239.024C389.404 228.107 368.112 228.107 351.792 239.024L329.472 253.954C313.489 264.646 292.635 264.646 276.652 253.954L254.332 239.024C238.012 228.107 216.72 228.107 200.4 239.024L178.08 253.954C162.097 264.646 141.243 264.646 125.26 253.954L102.94 239.024C86.6202 228.107 65.3278 228.107 49.0077 239.024L0 271.807L0.556007 272.638L49.5637 239.855ZM102.384 94.3821C86.4007 83.69 65.5473 83.69 49.5637 94.3821L0.556007 127.165L0 126.334L49.0077 93.5509C65.3278 82.6337 86.6202 82.6337 102.94 93.5509L125.26 108.481C141.243 119.173 162.097 119.173 178.08 108.481L200.4 93.5509C216.72 82.6337 238.012 82.6337 254.332 93.5509L276.652 108.481C292.635 119.173 313.489 119.173 329.472 108.481L351.792 93.5509C368.112 82.6337 389.404 82.6337 405.724 93.5509L454.732 126.334L454.176 127.165L405.168 94.3821C389.185 83.69 368.331 83.69 352.348 94.3821L330.028 109.312C313.708 120.23 292.416 120.23 276.096 109.312L253.776 94.3821C237.793 83.69 216.939 83.69 200.956 94.3821L178.636 109.312C162.316 120.23 141.024 120.23 124.704 109.312L102.384 94.3821ZM49.5637 114.073C65.5473 103.38 86.4007 103.38 102.384 114.073L124.704 129.003C141.024 139.92 162.316 139.92 178.636 129.003L200.956 114.073C216.939 103.38 237.793 103.38 253.776 114.073L276.096 129.003C292.416 139.92 313.708 139.92 330.028 129.003L352.348 114.073C368.331 103.38 389.185 103.38 405.168 114.073L454.176 146.856L454.732 146.025L405.724 113.241C389.404 102.324 368.112 102.324 351.792 113.241L329.472 128.172C313.489 138.864 292.635 138.864 276.652 128.172L254.332 113.241C238.012 102.324 216.72 102.324 200.4 113.241L178.08 128.172C162.097 138.864 141.243 138.864 125.26 128.172L102.94 113.241C86.6202 102.324 65.3278 102.324 49.0077 113.241L0 146.025L0.556007 146.856L49.5637 114.073ZM102.384 136.577C86.4007 125.885 65.5473 125.885 49.5637 136.577L0.556007 169.36L0 168.529L49.0077 135.746C65.3278 124.829 86.6202 124.829 102.94 135.746L125.26 150.676C141.243 161.368 162.097 161.368 178.08 150.676L200.4 135.746C216.72 124.829 238.012 124.829 254.332 135.746L276.652 150.676C292.635 161.368 313.489 161.368 329.472 150.676L351.792 135.746C368.112 124.829 389.404 124.829 405.724 135.746L454.732 168.529L454.176 169.36L405.168 136.577C389.185 125.885 368.331 125.885 352.348 136.577L330.028 151.507C313.708 162.424 292.416 162.424 276.096 151.507L253.776 136.577C237.793 125.885 216.939 125.885 200.956 136.577L178.636 151.507C162.316 162.424 141.024 162.424 124.704 151.507L102.384 136.577ZM49.5637 156.27C65.5473 145.578 86.4007 145.578 102.384 156.27L124.704 171.201C141.024 182.118 162.316 182.118 178.636 171.201L200.956 156.27C216.939 145.578 237.793 145.578 253.776 156.27L276.096 171.201C292.416 182.118 313.708 182.118 330.028 171.201L352.348 156.27C368.331 145.578 389.185 145.578 405.168 156.27L454.176 189.053L454.732 188.222L405.724 155.439C389.404 144.522 368.112 144.522 351.792 155.439L329.472 170.369C313.489 181.061 292.635 181.061 276.652 170.369L254.332 155.439C238.012 144.522 216.72 144.522 200.4 155.439L178.08 170.369C162.097 181.061 141.243 181.061 125.26 170.369L102.94 155.439C86.6202 144.522 65.3278 144.522 49.0077 155.439L0 188.222L0.556007 189.053L49.5637 156.27ZM102.384 262.753C86.4007 252.061 65.5473 252.061 49.5637 262.753L0.556007 295.536L0 294.705L49.0077 261.922C65.3278 251.005 86.6202 251.005 102.94 261.922L125.26 276.852C141.243 287.544 162.097 287.544 178.08 276.852L200.4 261.922C216.72 251.005 238.012 251.005 254.332 261.922L276.652 276.852C292.635 287.544 313.489 287.544 329.472 276.852L351.792 261.922C368.112 251.005 389.404 251.005 405.724 261.922L454.732 294.705L454.176 295.536L405.168 262.753C389.185 252.061 368.331 252.061 352.348 262.753L330.028 277.683C313.708 288.601 292.416 288.601 276.096 277.683L253.776 262.753C237.793 252.061 216.939 252.061 200.956 262.753L178.636 277.683C162.316 288.601 141.024 288.601 124.704 277.683L102.384 262.753ZM49.5637 282.444C65.5473 271.752 86.4007 271.752 102.384 282.444L124.704 297.374C141.024 308.291 162.316 308.291 178.636 297.374L200.956 282.444C216.939 271.752 237.793 271.752 253.776 282.444L276.096 297.374C292.416 308.291 313.708 308.291 330.028 297.374L352.348 282.444C368.331 271.752 389.185 271.752 405.168 282.444L454.176 315.227L454.732 314.396L405.724 281.612C389.404 270.695 368.112 270.695 351.792 281.612L329.472 296.543C313.489 307.235 292.635 307.235 276.652 296.543L254.332 281.612C238.012 270.695 216.72 270.695 200.4 281.612L178.08 296.543C162.097 307.235 141.243 307.235 125.26 296.543L102.94 281.612C86.6202 270.695 65.3278 270.695 49.0077 281.612L0 314.396L0.556007 315.227L49.5637 282.444ZM102.384 304.949C86.4007 294.257 65.5473 294.257 49.5637 304.949L0.556007 337.732L0 336.901L49.0077 304.118C65.3278 293.201 86.6202 293.201 102.94 304.118L125.26 319.048C141.243 329.74 162.097 329.74 178.08 319.048L200.4 304.118C216.72 293.201 238.012 293.201 254.332 304.118L276.652 319.048C292.635 329.74 313.489 329.74 329.472 319.048L351.792 304.118C368.112 293.201 389.404 293.201 405.724 304.118L454.732 336.901L454.176 337.732L405.168 304.949C389.185 294.257 368.331 294.257 352.348 304.949L330.028 319.879C313.708 330.796 292.416 330.796 276.096 319.879L253.776 304.949C237.793 294.257 216.939 294.257 200.956 304.949L178.636 319.879C162.316 330.796 141.024 330.796 124.704 319.879L102.384 304.949ZM49.5637 324.641C65.5473 313.949 86.4007 313.949 102.384 324.641L124.704 339.572C141.024 350.489 162.316 350.489 178.636 339.572L200.956 324.641C216.939 313.949 237.793 313.949 253.776 324.641L276.096 339.572C292.416 350.489 313.708 350.489 330.028 339.572L352.348 324.641C368.331 313.949 389.185 313.949 405.168 324.641L454.176 357.425L454.732 356.593L405.724 323.81C389.404 312.893 368.112 312.893 351.792 323.81L329.472 338.74C313.489 349.433 292.635 349.433 276.652 338.74L254.332 323.81C238.012 312.893 216.72 312.893 200.4 323.81L178.08 338.74C162.097 349.433 141.243 349.433 125.26 338.74L102.94 323.81C86.6202 312.893 65.3278 312.893 49.0077 323.81L0 356.593L0.556007 357.425L49.5637 324.641Z" fill="url(#paint0_linear_605_2176)"/>
<defs>
<linearGradient id="paint0_linear_605_2176" x1="0" y1="357.425" x2="448.673" y2="-6.88661" gradientUnits="userSpaceOnUse">
<stop stop-color="#FBC6CF"/>
<stop offset="1" stop-color="#FBC6CF" stop-opacity="0"/>
</linearGradient>
</defs>
</svg>
