<svg width="32" height="32" viewBox="0 0 32 32" fill="none" xmlns="http://www.w3.org/2000/svg">
<path fill-rule="evenodd" clip-rule="evenodd" d="M19.0154 11.78C19.3214 11.1801 19.087 10.4438 18.4918 10.1354C17.8966 9.827 17.166 10.0632 16.86 10.6631L11.9844 20.2199C11.6784 20.8199 11.9129 21.5562 12.508 21.8646C13.1032 22.173 13.8338 21.9367 14.1398 21.3369L19.0154 11.78ZM9.39603 21.5503C8.97285 22.0728 8.20951 22.1508 7.69107 21.7243L2.80205 17.7028C1.73266 16.8233 1.73264 15.1763 2.80205 14.2967L7.69107 10.2753C8.20951 9.84887 8.97285 9.92676 9.39603 10.4493C9.81921 10.9719 9.74201 11.7412 9.22342 12.1676L4.5645 15.9998L9.22342 19.8319C9.74201 20.2584 9.81921 21.0277 9.39603 21.5503ZM21.6036 10.4496C22.0268 9.92705 22.7902 9.84915 23.3086 10.2756L28.1979 14.297C29.2674 15.1766 29.2674 16.8236 28.1979 17.7031L23.3086 21.7246C22.7902 22.1511 22.0268 22.0731 21.6036 21.5506C21.1805 21.028 21.2578 20.2587 21.7763 19.8322L26.4355 16.0001L21.7763 12.168C21.2578 11.7415 21.1805 10.9722 21.6036 10.4496Z" fill="white"/>
</svg>
