<svg width="455" height="358" viewBox="0 0 455 358" fill="none" xmlns="http://www.w3.org/2000/svg">
<path fill-rule="evenodd" clip-rule="evenodd" d="M49.8313 9.80619C65.8149 -0.885913 86.6683 -0.885919 102.652 9.80618L124.971 24.7365C141.291 35.6536 162.584 35.6537 178.904 24.7365L201.223 9.80619C217.207 -0.885913 238.06 -0.885919 254.044 9.80618L276.363 24.7365C292.684 35.6536 313.976 35.6537 330.296 24.7365L352.615 9.80619C368.599 -0.885913 389.452 -0.885919 405.436 9.80618L454.444 42.5893L455 41.7582L405.992 8.97501C389.672 -1.94219 368.38 -1.94219 352.059 8.97501L329.74 23.9053C313.756 34.5974 292.903 34.5974 276.919 23.9053L254.6 8.97501C238.28 -1.94219 216.987 -1.94219 200.667 8.97501L178.348 23.9053C162.364 34.5974 141.511 34.5974 125.527 23.9053L103.208 8.97501C86.8878 -1.94219 65.5954 -1.94219 49.2752 8.97501L0.267578 41.7582L0.823586 42.5893L49.8313 9.80619ZM49.8312 29.4971C65.8149 18.805 86.6683 18.805 102.652 29.4971L124.971 44.4274C141.291 55.3446 162.584 55.3446 178.904 44.4274L201.223 29.4971C217.207 18.805 238.06 18.805 254.044 29.4971L276.363 44.4274C292.683 55.3446 313.976 55.3446 330.296 44.4274L352.615 29.4971C368.599 18.805 389.452 18.805 405.436 29.4971L454.444 62.2803L455 61.4491L405.992 28.6659C389.672 17.7487 368.38 17.7487 352.059 28.6659L329.74 43.5962C313.756 54.2883 292.903 54.2883 276.919 43.5962L254.6 28.6659C238.28 17.7487 216.987 17.7487 200.667 28.6659L178.348 43.5962C162.364 54.2883 141.511 54.2883 125.527 43.5962L103.208 28.6659C86.8878 17.7487 65.5954 17.7487 49.2752 28.6659L0.267578 61.4491L0.823586 62.2803L49.8312 29.4971ZM102.652 52.0025C86.6683 41.3104 65.8149 41.3104 49.8313 52.0025L0.823586 84.7856L0.267578 83.9545L49.2752 51.1713C65.5954 40.2541 86.8878 40.2541 103.208 51.1713L125.527 66.1016C141.511 76.7937 162.364 76.7937 178.348 66.1016L200.667 51.1713C216.987 40.2541 238.28 40.2541 254.6 51.1713L276.919 66.1016C292.903 76.7937 313.756 76.7937 329.74 66.1016L352.059 51.1713C368.38 40.2541 389.672 40.2541 405.992 51.1713L455 83.9545L454.444 84.7856L405.436 52.0025C389.452 41.3104 368.599 41.3104 352.615 52.0025L330.296 66.9327C313.976 77.8499 292.684 77.8499 276.363 66.9327L254.044 52.0025C238.06 41.3104 217.207 41.3104 201.223 52.0025L178.904 66.9327C162.584 77.8499 141.291 77.8499 124.971 66.9327L102.652 52.0025ZM49.8313 71.6958C65.8149 61.0037 86.6683 61.0037 102.652 71.6958L124.971 86.6261C141.291 97.5433 162.584 97.5433 178.904 86.6261L201.223 71.6958C217.207 61.0037 238.06 61.0037 254.044 71.6958L276.363 86.6261C292.684 97.5433 313.976 97.5433 330.296 86.6261L352.615 71.6958C368.599 61.0037 389.452 61.0037 405.436 71.6958L454.444 104.479L455 103.648L405.992 70.8647C389.672 59.9475 368.38 59.9475 352.059 70.8647L329.74 85.7949C313.756 96.487 292.903 96.487 276.919 85.7949L254.6 70.8647C238.28 59.9475 216.987 59.9475 200.667 70.8647L178.348 85.7949C162.364 96.487 141.511 96.487 125.527 85.7949L103.208 70.8647C86.8878 59.9475 65.5954 59.9475 49.2752 70.8647L0.267578 103.648L0.823586 104.479L49.8313 71.6958ZM102.652 178.177C86.6683 167.485 65.8149 167.485 49.8313 178.177L0.823586 210.96L0.267578 210.129L49.2752 177.346C65.5954 166.429 86.8878 166.429 103.208 177.346L125.527 192.276C141.511 202.968 162.364 202.968 178.348 192.276L200.667 177.346C216.987 166.429 238.28 166.429 254.6 177.346L276.919 192.276C292.903 202.968 313.756 202.968 329.74 192.276L352.059 177.346C368.38 166.429 389.672 166.429 405.992 177.346L455 210.129L454.444 210.96L405.436 178.177C389.452 167.485 368.599 167.485 352.615 178.177L330.296 193.108C313.976 204.025 292.684 204.025 276.363 193.108L254.044 178.177C238.06 167.485 217.207 167.485 201.223 178.177L178.904 193.108C162.584 204.025 141.291 204.025 124.971 193.108L102.652 178.177ZM49.8312 197.868C65.8149 187.176 86.6683 187.176 102.652 197.868L124.971 212.798C141.291 223.715 162.584 223.715 178.904 212.798L201.223 197.868C217.207 187.176 238.06 187.176 254.044 197.868L276.363 212.798C292.683 223.715 313.976 223.715 330.296 212.798L352.615 197.868C368.599 187.176 389.452 187.176 405.436 197.868L454.444 230.651L455 229.82L405.992 197.037C389.672 186.119 368.38 186.119 352.059 197.037L329.74 211.967C313.756 222.659 292.903 222.659 276.919 211.967L254.6 197.037C238.28 186.119 216.987 186.119 200.667 197.037L178.348 211.967C162.364 222.659 141.511 222.659 125.527 211.967L103.208 197.037C86.8878 186.119 65.5954 186.119 49.2752 197.037L0.267578 229.82L0.823586 230.651L49.8312 197.868ZM102.652 220.374C86.6683 209.681 65.8149 209.681 49.8313 220.374L0.823586 253.157L0.267578 252.326L49.2752 219.542C65.5954 208.625 86.8878 208.625 103.208 219.542L125.527 234.473C141.511 245.165 162.364 245.165 178.348 234.473L200.667 219.542C216.987 208.625 238.28 208.625 254.6 219.542L276.919 234.473C292.903 245.165 313.756 245.165 329.74 234.473L352.059 219.542C368.38 208.625 389.672 208.625 405.992 219.542L455 252.326L454.444 253.157L405.436 220.374C389.452 209.681 368.599 209.681 352.615 220.374L330.296 235.304C313.976 246.221 292.684 246.221 276.363 235.304L254.044 220.374C238.06 209.681 217.207 209.681 201.223 220.374L178.904 235.304C162.584 246.221 141.291 246.221 124.971 235.304L102.652 220.374ZM49.8313 240.067C65.8149 229.375 86.6683 229.375 102.652 240.067L124.971 254.997C141.291 265.914 162.584 265.914 178.904 254.997L201.223 240.067C217.207 229.375 238.06 229.375 254.044 240.067L276.363 254.997C292.684 265.914 313.976 265.914 330.296 254.997L352.615 240.067C368.599 229.375 389.452 229.375 405.436 240.067L454.444 272.85L455 272.019L405.992 239.236C389.672 228.319 368.38 228.319 352.059 239.236L329.74 254.166C313.756 264.858 292.903 264.858 276.919 254.166L254.6 239.236C238.28 228.319 216.987 228.319 200.667 239.236L178.348 254.166C162.364 264.858 141.511 264.858 125.527 254.166L103.208 239.236C86.8878 228.319 65.5954 228.319 49.2752 239.236L0.267578 272.019L0.823586 272.85L49.8313 240.067ZM102.652 94.5938C86.6683 83.9017 65.8149 83.9017 49.8313 94.5938L0.823586 127.377L0.267578 126.546L49.2752 93.7626C65.5954 82.8454 86.8878 82.8454 103.208 93.7626L125.527 108.693C141.511 119.385 162.364 119.385 178.348 108.693L200.667 93.7626C216.987 82.8454 238.28 82.8454 254.6 93.7626L276.919 108.693C292.903 119.385 313.756 119.385 329.74 108.693L352.059 93.7626C368.38 82.8454 389.672 82.8454 405.992 93.7626L455 126.546L454.444 127.377L405.436 94.5938C389.452 83.9017 368.599 83.9017 352.615 94.5938L330.296 109.524C313.976 120.441 292.684 120.441 276.363 109.524L254.044 94.5938C238.06 83.9017 217.207 83.9017 201.223 94.5938L178.904 109.524C162.584 120.441 141.291 120.441 124.971 109.524L102.652 94.5938ZM49.8312 114.284C65.8149 103.592 86.6683 103.592 102.652 114.284L124.971 129.214C141.291 140.132 162.584 140.132 178.904 129.214L201.223 114.284C217.207 103.592 238.06 103.592 254.044 114.284L276.363 129.214C292.683 140.132 313.976 140.132 330.296 129.214L352.615 114.284C368.599 103.592 389.452 103.592 405.436 114.284L454.444 147.067L455 146.236L405.992 113.453C389.672 102.536 368.38 102.536 352.059 113.453L329.74 128.383C313.756 139.075 292.903 139.075 276.919 128.383L254.6 113.453C238.28 102.536 216.987 102.536 200.667 113.453L178.348 128.383C162.364 139.075 141.511 139.075 125.527 128.383L103.208 113.453C86.8878 102.536 65.5954 102.536 49.2752 113.453L0.267578 146.236L0.823586 147.067L49.8312 114.284ZM102.652 136.789C86.6683 126.097 65.8149 126.097 49.8313 136.789L0.823586 169.572L0.267578 168.741L49.2752 135.957C65.5954 125.04 86.8878 125.04 103.208 135.957L125.527 150.888C141.511 161.58 162.364 161.58 178.348 150.888L200.667 135.957C216.987 125.04 238.28 125.04 254.6 135.957L276.919 150.888C292.903 161.58 313.756 161.58 329.74 150.888L352.059 135.957C368.38 125.04 389.672 125.04 405.992 135.957L455 168.741L454.444 169.572L405.436 136.789C389.452 126.097 368.599 126.097 352.615 136.789L330.296 151.719C313.976 162.636 292.684 162.636 276.363 151.719L254.044 136.789C238.06 126.097 217.207 126.097 201.223 136.789L178.904 151.719C162.584 162.636 141.291 162.636 124.971 151.719L102.652 136.789ZM49.8313 156.482C65.8149 145.79 86.6683 145.79 102.652 156.482L124.971 171.412C141.291 182.329 162.584 182.329 178.904 171.412L201.223 156.482C217.207 145.79 238.06 145.79 254.044 156.482L276.363 171.412C292.684 182.329 313.976 182.329 330.296 171.412L352.615 156.482C368.599 145.79 389.452 145.79 405.436 156.482L454.444 189.265L455 188.434L405.992 155.651C389.672 144.734 368.38 144.734 352.059 155.651L329.74 170.581C313.756 181.273 292.903 181.273 276.919 170.581L254.6 155.651C238.28 144.734 216.987 144.734 200.667 155.651L178.348 170.581C162.364 181.273 141.511 181.273 125.527 170.581L103.208 155.651C86.8878 144.734 65.5954 144.734 49.2752 155.651L0.267578 188.434L0.823586 189.265L49.8313 156.482ZM102.652 262.965C86.6683 252.273 65.8149 252.273 49.8313 262.965L0.823586 295.748L0.267578 294.917L49.2752 262.134C65.5954 251.217 86.8878 251.217 103.208 262.134L125.527 277.064C141.511 287.756 162.364 287.756 178.348 277.064L200.667 262.134C216.987 251.217 238.28 251.217 254.6 262.134L276.919 277.064C292.903 287.756 313.756 287.756 329.74 277.064L352.059 262.134C368.38 251.217 389.672 251.217 405.992 262.134L455 294.917L454.444 295.748L405.436 262.965C389.452 252.273 368.599 252.273 352.615 262.965L330.296 277.895C313.976 288.812 292.684 288.812 276.363 277.895L254.044 262.965C238.06 252.273 217.207 252.273 201.223 262.965L178.904 277.895C162.584 288.812 141.291 288.812 124.971 277.895L102.652 262.965ZM49.8312 282.655C65.8149 271.963 86.6683 271.963 102.652 282.655L124.971 297.586C141.291 308.503 162.584 308.503 178.904 297.586L201.223 282.655C217.207 271.963 238.06 271.963 254.044 282.655L276.363 297.586C292.683 308.503 313.976 308.503 330.296 297.586L352.615 282.655C368.599 271.963 389.452 271.963 405.436 282.655L454.444 315.438L455 314.607L405.992 281.824C389.672 270.907 368.38 270.907 352.059 281.824L329.74 296.754C313.756 307.447 292.903 307.446 276.919 296.754L254.6 281.824C238.28 270.907 216.987 270.907 200.667 281.824L178.348 296.754C162.364 307.447 141.511 307.446 125.527 296.754L103.208 281.824C86.8878 270.907 65.5954 270.907 49.2752 281.824L0.267578 314.607L0.823586 315.438L49.8312 282.655ZM102.652 305.161C86.6683 294.469 65.8149 294.469 49.8313 305.161L0.823586 337.944L0.267578 337.113L49.2752 304.329C65.5954 293.412 86.8878 293.412 103.208 304.329L125.527 319.26C141.511 329.952 162.364 329.952 178.348 319.26L200.667 304.329C216.987 293.412 238.28 293.412 254.6 304.329L276.919 319.26C292.903 329.952 313.756 329.952 329.74 319.26L352.059 304.329C368.38 293.412 389.672 293.412 405.992 304.329L455 337.113L454.444 337.944L405.436 305.161C389.452 294.469 368.599 294.469 352.615 305.161L330.296 320.091C313.976 331.008 292.684 331.008 276.363 320.091L254.044 305.161C238.06 294.469 217.207 294.469 201.223 305.161L178.904 320.091C162.584 331.008 141.291 331.008 124.971 320.091L102.652 305.161ZM49.8313 324.853C65.8149 314.161 86.6683 314.161 102.652 324.853L124.971 339.783C141.291 350.701 162.584 350.701 178.904 339.783L201.223 324.853C217.207 314.161 238.06 314.161 254.044 324.853L276.363 339.783C292.684 350.701 313.976 350.701 330.296 339.783L352.615 324.853C368.599 314.161 389.452 314.161 405.436 324.853L454.444 357.636L455 356.805L405.992 324.022C389.672 313.105 368.38 313.105 352.059 324.022L329.74 338.952C313.756 349.644 292.903 349.644 276.919 338.952L254.6 324.022C238.28 313.105 216.987 313.105 200.667 324.022L178.348 338.952C162.364 349.644 141.511 349.644 125.527 338.952L103.208 324.022C86.8878 313.105 65.5954 313.105 49.2752 324.022L0.267578 356.805L0.823586 357.636L49.8313 324.853Z" fill="url(#paint0_linear_605_2072)"/>
<defs>
<linearGradient id="paint0_linear_605_2072" x1="455" y1="0.787109" x2="3.35994" y2="186.723" gradientUnits="userSpaceOnUse">
<stop stop-color="#FBC6CF"/>
<stop offset="1" stop-color="#FBC6CF" stop-opacity="0"/>
</linearGradient>
</defs>
</svg>
