<svg width="26" height="26" viewBox="0 0 26 26" fill="none" xmlns="http://www.w3.org/2000/svg">
<path d="M13.0001 16.791C11.9945 16.791 11.03 16.3915 10.319 15.6805C9.60788 14.9694 9.2084 14.005 9.2084 12.9993C9.2084 11.9937 9.60788 11.0293 10.319 10.3182C11.03 9.60716 11.9945 9.20768 13.0001 9.20768C14.0057 9.20768 14.9701 9.60716 15.6812 10.3182C16.3923 11.0293 16.7917 11.9937 16.7917 12.9993C16.7917 14.005 16.3923 14.9694 15.6812 15.6805C14.9701 16.3915 14.0057 16.791 13.0001 16.791ZM21.0492 14.0502C21.0926 13.7035 21.1251 13.3568 21.1251 12.9993C21.1251 12.6418 21.0926 12.2843 21.0492 11.916L23.3351 10.1502C23.5409 9.98768 23.5951 9.69518 23.4651 9.45685L21.2984 5.70852C21.1684 5.47018 20.8759 5.37268 20.6376 5.47018L17.9401 6.55352C17.3767 6.13102 16.7917 5.76268 16.1092 5.49185L15.7084 2.62102C15.6651 2.36102 15.4376 2.16602 15.1667 2.16602H10.8334C10.5626 2.16602 10.3351 2.36102 10.2917 2.62102L9.8909 5.49185C9.2084 5.76268 8.6234 6.13102 8.06007 6.55352L5.36257 5.47018C5.12424 5.37268 4.83174 5.47018 4.70174 5.70852L2.53507 9.45685C2.39424 9.69518 2.45924 9.98768 2.66507 10.1502L4.9509 11.916C4.90757 12.2843 4.87507 12.6418 4.87507 12.9993C4.87507 13.3568 4.90757 13.7035 4.9509 14.0502L2.66507 15.8485C2.45924 16.011 2.39424 16.3035 2.53507 16.5418L4.70174 20.2902C4.83174 20.5285 5.12424 20.6152 5.36257 20.5285L8.06007 19.4343C8.6234 19.8677 9.2084 20.236 9.8909 20.5068L10.2917 23.3777C10.3351 23.6377 10.5626 23.8327 10.8334 23.8327H15.1667C15.4376 23.8327 15.6651 23.6377 15.7084 23.3777L16.1092 20.5068C16.7917 20.2252 17.3767 19.8677 17.9401 19.4343L20.6376 20.5285C20.8759 20.6152 21.1684 20.5285 21.2984 20.2902L23.4651 16.5418C23.5951 16.3035 23.5409 16.011 23.3351 15.8485L21.0492 14.0502Z" fill="white"/>
</svg>
