<svg width="32" height="32" viewBox="0 0 32 32" fill="none" xmlns="http://www.w3.org/2000/svg">
<path d="M14.75 7.95212H11L16 3L21 7.95212H17.25V13.4366C16.3125 14.0061 15.475 14.7118 14.75 15.5289V7.95212ZM28.5 15.3803L23.5 10.4282V14.1423C18.9875 13.9566 15.1375 17.324 14.75 21.7809C12.8 22.4618 11.775 24.5913 12.4625 26.5226C13.15 28.4539 15.3 29.4691 17.25 28.7882C19.2 28.0949 20.225 25.9779 19.5375 24.0465C19.1625 22.9818 18.3125 22.1523 17.25 21.7809C17.8375 16.8288 22.8375 16.5812 23.4375 16.5812V20.2953L28.5 15.3803ZM14.2875 16.1108C12.625 14.848 10.5875 14.1423 8.5 14.1423V10.4282L3.5 15.3803L8.5 20.3324V16.6183C10.175 16.6555 11.7875 17.2374 13.05 18.3516C13.3625 17.5592 13.775 16.804 14.2875 16.1108Z" fill="white"/>
</svg>
