<svg width="32" height="32" viewBox="0 0 32 32" fill="none" xmlns="http://www.w3.org/2000/svg">
<path d="M23.8 25.8L21.15 23.2H10.5C8.96667 23.2 7.66667 22.6667 6.6 21.6C5.53333 20.5333 5 19.2333 5 17.7C5 16.42 5.39667 15.28 6.19 14.28C6.98333 13.2733 8.00333 12.63 9.25 12.35C9.30333 12.2167 9.35333 12.0867 9.4 11.96C9.46667 11.8333 9.51667 11.6967 9.55 11.55L5.4 7.4L6.8 6L25.2 24.4M10.5 21.2H19.15L11.1 13.15C11.0667 13.3367 11.0433 13.52 11.03 13.7C11.01 13.8533 11 14.02 11 14.2H10.5C9.53333 14.2 8.71 14.5433 8.03 15.23C7.34333 15.91 7 16.7333 7 17.7C7 18.6667 7.34333 19.5 8.03 20.2C8.71 20.8667 9.53333 21.2 10.5 21.2ZM25.6 21.95L24.15 20.55C24.4367 20.3167 24.65 20.0467 24.79 19.74C24.93 19.4333 25 19.0867 25 18.7C25 18 24.7567 17.41 24.27 16.93C23.79 16.4433 23.2 16.2 22.5 16.2H21V14.2C21 12.82 20.5133 11.64 19.54 10.66C18.5667 9.68667 17.3867 9.2 16 9.2C15.5533 9.2 15.12 9.25333 14.7 9.36C14.28 9.47333 13.88 9.64667 13.5 9.88L12.05 8.43C12.6367 8.03 13.2567 7.72333 13.91 7.51C14.57 7.30333 15.2667 7.2 16 7.2C17.9533 7.2 19.6067 7.88 20.96 9.24C22.32 10.5933 23 12.2467 23 14.2C24.1533 14.3333 25.1067 14.8333 25.86 15.7C26.62 16.5533 27 17.5533 27 18.7C27 19.3667 26.8767 19.97 26.63 20.51C26.3767 21.07 26.0333 21.55 25.6 21.95Z" fill="white"/>
</svg>
