<svg width="24" height="24" viewBox="0 0 24 24" fill="none" xmlns="http://www.w3.org/2000/svg">
<path d="M13.1296 22.19L11.4996 18.36C13.0696 17.78 14.5396 17 15.8996 16.09L13.1296 22.19ZM5.63957 12.5L1.80957 10.87L7.90957 8.1C6.99957 9.46 6.21957 10.93 5.63957 12.5ZM19.2196 4C19.4996 4 19.7496 4 19.9596 4.05C20.1296 5.44 19.9396 8.3 16.6596 11.58C14.9596 13.29 12.9296 14.6 10.6496 15.47L8.49957 13.37C9.41957 11.06 10.7296 9.03 12.4196 7.34C15.1796 4.58 17.6396 4 19.2196 4ZM19.2196 2C17.2396 2 14.2396 2.69 10.9996 5.93C8.80957 8.12 7.49957 10.53 6.64957 12.64C6.36957 13.39 6.55957 14.21 7.10957 14.77L9.23957 16.89C9.61957 17.27 10.1296 17.5 10.6596 17.5C10.8896 17.5 11.1296 17.44 11.3596 17.35C13.4996 16.53 15.8796 15.19 18.0696 13C23.7296 7.34 21.6096 2.39 21.6096 2.39C21.6096 2.39 20.6996 2 19.2196 2ZM14.5396 9.46C13.7596 8.68 13.7596 7.41 14.5396 6.63C15.3196 5.85 16.5896 5.85 17.3696 6.63C18.1396 7.41 18.1496 8.68 17.3696 9.46C16.5896 10.24 15.3196 10.24 14.5396 9.46ZM6.23957 22L9.87957 18.36C9.53957 18.27 9.20957 18.12 8.90957 17.91L4.82957 22H6.23957ZM1.99957 22H3.40957L8.17957 17.24L6.75957 15.83L1.99957 20.59V22ZM1.99957 19.17L6.08957 15.09C5.87957 14.79 5.72957 14.47 5.63957 14.12L1.99957 17.76V19.17Z" fill="white"/>
</svg>
