<svg width="455" height="358" viewBox="0 0 455 358" fill="none" xmlns="http://www.w3.org/2000/svg">
<path fill-rule="evenodd" clip-rule="evenodd" d="M49.8316 9.80608C65.8152 -0.886017 86.6686 -0.886023 102.652 9.80608L124.972 24.7363C141.292 35.6535 162.584 35.6536 178.904 24.7364L201.224 9.80608C217.207 -0.886017 238.061 -0.886023 254.044 9.80608L276.364 24.7363C292.684 35.6535 313.976 35.6536 330.296 24.7364L352.616 9.80608C368.599 -0.886017 389.453 -0.886023 405.436 9.80608L454.444 42.5892L455 41.7581L405.992 8.9749C389.672 -1.9423 368.38 -1.94229 352.06 8.97491L329.74 23.9052C313.757 34.5973 292.903 34.5973 276.92 23.9052L254.6 8.9749C238.28 -1.9423 216.988 -1.94229 200.668 8.97491L178.348 23.9052C162.365 34.5973 141.511 34.5973 125.528 23.9052L103.208 8.9749C86.8881 -1.9423 65.5957 -1.94229 49.2756 8.97491L0.267895 41.7581L0.823902 42.5892L49.8316 9.80608ZM49.8316 29.497C65.8152 18.8049 86.6686 18.8049 102.652 29.497L124.972 44.4273C141.292 55.3445 162.584 55.3445 178.904 44.4273L201.224 29.497C217.207 18.8049 238.061 18.8049 254.044 29.497L276.364 44.4273C292.684 55.3445 313.976 55.3445 330.296 44.4273L352.616 29.497C368.599 18.8049 389.453 18.8049 405.436 29.497L454.444 62.2802L455 61.449L405.992 28.6658C389.672 17.7486 368.38 17.7486 352.06 28.6658L329.74 43.5961C313.757 54.2882 292.903 54.2882 276.92 43.5961L254.6 28.6658C238.28 17.7486 216.988 17.7486 200.668 28.6658L178.348 43.5961C162.365 54.2882 141.511 54.2882 125.528 43.5961L103.208 28.6658C86.8881 17.7486 65.5957 17.7486 49.2756 28.6658L0.267895 61.449L0.823902 62.2802L49.8316 29.497ZM102.652 52.0024C86.6686 41.3103 65.8152 41.3103 49.8316 52.0024L0.823902 84.7855L0.267895 83.9544L49.2756 51.1712C65.5957 40.254 86.8881 40.254 103.208 51.1712L125.528 66.1015C141.511 76.7936 162.365 76.7936 178.348 66.1015L200.668 51.1712C216.988 40.254 238.28 40.254 254.6 51.1712L276.92 66.1015C292.903 76.7936 313.757 76.7936 329.74 66.1015L352.06 51.1712C368.38 40.254 389.672 40.254 405.992 51.1712L455 83.9544L454.444 84.7855L405.436 52.0024C389.453 41.3103 368.599 41.3103 352.616 52.0024L330.296 66.9326C313.976 77.8498 292.684 77.8498 276.364 66.9326L254.044 52.0024C238.061 41.3103 217.207 41.3103 201.224 52.0024L178.904 66.9326C162.584 77.8498 141.292 77.8498 124.972 66.9326L102.652 52.0024ZM49.8316 71.6957C65.8152 61.0036 86.6686 61.0036 102.652 71.6957L124.972 86.626C141.292 97.5432 162.584 97.5432 178.904 86.626L201.224 71.6957C217.207 61.0036 238.061 61.0036 254.044 71.6957L276.364 86.626C292.684 97.5432 313.976 97.5432 330.296 86.626L352.616 71.6957C368.599 61.0036 389.453 61.0036 405.436 71.6957L454.444 104.479L455 103.648L405.992 70.8645C389.672 59.9473 368.38 59.9474 352.06 70.8646L329.74 85.7948C313.757 96.4869 292.903 96.4869 276.92 85.7948L254.6 70.8645C238.28 59.9473 216.988 59.9474 200.668 70.8646L178.348 85.7948C162.365 96.4869 141.511 96.4869 125.528 85.7948L103.208 70.8645C86.8881 59.9473 65.5957 59.9474 49.2756 70.8646L0.267895 103.648L0.823902 104.479L49.8316 71.6957ZM102.652 178.177C86.6686 167.485 65.8152 167.485 49.8316 178.177L0.823902 210.96L0.267895 210.129L49.2756 177.346C65.5957 166.429 86.8881 166.429 103.208 177.346L125.528 192.276C141.511 202.968 162.365 202.968 178.348 192.276L200.668 177.346C216.988 166.429 238.28 166.429 254.6 177.346L276.92 192.276C292.903 202.968 313.757 202.968 329.74 192.276L352.06 177.346C368.38 166.429 389.672 166.429 405.992 177.346L455 210.129L454.444 210.96L405.436 178.177C389.453 167.485 368.599 167.485 352.616 178.177L330.296 193.107C313.976 204.025 292.684 204.025 276.364 193.107L254.044 178.177C238.061 167.485 217.207 167.485 201.224 178.177L178.904 193.107C162.584 204.025 141.292 204.025 124.972 193.107L102.652 178.177ZM49.8316 197.868C65.8152 187.176 86.6686 187.176 102.652 197.868L124.972 212.798C141.292 223.715 162.584 223.715 178.904 212.798L201.224 197.868C217.207 187.176 238.061 187.176 254.044 197.868L276.364 212.798C292.684 223.715 313.976 223.715 330.296 212.798L352.616 197.868C368.599 187.176 389.453 187.176 405.436 197.868L454.444 230.651L455 229.82L405.992 197.036C389.672 186.119 368.38 186.119 352.06 197.036L329.74 211.967C313.757 222.659 292.903 222.659 276.92 211.967L254.6 197.036C238.28 186.119 216.988 186.119 200.668 197.036L178.348 211.967C162.365 222.659 141.511 222.659 125.528 211.967L103.208 197.036C86.8881 186.119 65.5957 186.119 49.2756 197.036L0.267895 229.82L0.823902 230.651L49.8316 197.868ZM102.652 220.373C86.6686 209.681 65.8152 209.681 49.8316 220.373L0.823902 253.157L0.267895 252.325L49.2756 219.542C65.5957 208.625 86.8881 208.625 103.208 219.542L125.528 234.473C141.511 245.165 162.365 245.165 178.348 234.473L200.668 219.542C216.988 208.625 238.28 208.625 254.6 219.542L276.92 234.473C292.903 245.165 313.757 245.165 329.74 234.473L352.06 219.542C368.38 208.625 389.672 208.625 405.992 219.542L455 252.325L454.444 253.157L405.436 220.373C389.453 209.681 368.599 209.681 352.616 220.373L330.296 235.304C313.976 246.221 292.684 246.221 276.364 235.304L254.044 220.373C238.061 209.681 217.207 209.681 201.224 220.373L178.904 235.304C162.584 246.221 141.292 246.221 124.972 235.304L102.652 220.373ZM49.8316 240.067C65.8152 229.375 86.6686 229.375 102.652 240.067L124.972 254.997C141.292 265.914 162.584 265.914 178.904 254.997L201.224 240.067C217.207 229.375 238.061 229.375 254.044 240.067L276.364 254.997C292.684 265.914 313.976 265.914 330.296 254.997L352.616 240.067C368.599 229.375 389.453 229.375 405.436 240.067L454.444 272.85L455 272.019L405.992 239.236C389.672 228.318 368.38 228.318 352.06 239.236L329.74 254.166C313.757 264.858 292.903 264.858 276.92 254.166L254.6 239.236C238.28 228.318 216.988 228.318 200.668 239.236L178.348 254.166C162.365 264.858 141.511 264.858 125.528 254.166L103.208 239.236C86.8881 228.318 65.5957 228.318 49.2756 239.236L0.267895 272.019L0.823902 272.85L49.8316 240.067ZM102.652 94.5937C86.6686 83.9016 65.8152 83.9016 49.8316 94.5937L0.823902 127.377L0.267895 126.546L49.2756 93.7625C65.5957 82.8453 86.8881 82.8453 103.208 93.7625L125.528 108.693C141.511 119.385 162.365 119.385 178.348 108.693L200.668 93.7625C216.988 82.8453 238.28 82.8453 254.6 93.7625L276.92 108.693C292.903 119.385 313.757 119.385 329.74 108.693L352.06 93.7625C368.38 82.8453 389.672 82.8453 405.992 93.7625L455 126.546L454.444 127.377L405.436 94.5937C389.453 83.9016 368.599 83.9016 352.616 94.5937L330.296 109.524C313.976 120.441 292.684 120.441 276.364 109.524L254.044 94.5937C238.061 83.9016 217.207 83.9016 201.224 94.5937L178.904 109.524C162.584 120.441 141.292 120.441 124.972 109.524L102.652 94.5937ZM49.8316 114.284C65.8152 103.592 86.6686 103.592 102.652 114.284L124.972 129.214C141.292 140.132 162.584 140.132 178.904 129.214L201.224 114.284C217.207 103.592 238.061 103.592 254.044 114.284L276.364 129.214C292.684 140.132 313.976 140.132 330.296 129.214L352.616 114.284C368.599 103.592 389.453 103.592 405.436 114.284L454.444 147.067L455 146.236L405.992 113.453C389.672 102.536 368.38 102.536 352.06 113.453L329.74 128.383C313.757 139.075 292.903 139.075 276.92 128.383L254.6 113.453C238.28 102.536 216.988 102.536 200.668 113.453L178.348 128.383C162.365 139.075 141.511 139.075 125.528 128.383L103.208 113.453C86.8881 102.536 65.5957 102.536 49.2756 113.453L0.267895 146.236L0.823902 147.067L49.8316 114.284ZM102.652 136.788C86.6686 126.096 65.8152 126.096 49.8316 136.789L0.823902 169.572L0.267895 168.74L49.2756 135.957C65.5957 125.04 86.8881 125.04 103.208 135.957L125.528 150.888C141.511 161.58 162.365 161.58 178.348 150.888L200.668 135.957C216.988 125.04 238.28 125.04 254.6 135.957L276.92 150.888C292.903 161.58 313.757 161.58 329.74 150.888L352.06 135.957C368.38 125.04 389.672 125.04 405.992 135.957L455 168.74L454.444 169.572L405.436 136.788C389.453 126.096 368.599 126.096 352.616 136.789L330.296 151.719C313.976 162.636 292.684 162.636 276.364 151.719L254.044 136.788C238.061 126.096 217.207 126.096 201.224 136.789L178.904 151.719C162.584 162.636 141.292 162.636 124.972 151.719L102.652 136.788ZM49.8316 156.482C65.8152 145.79 86.6686 145.79 102.652 156.482L124.972 171.412C141.292 182.329 162.584 182.329 178.904 171.412L201.224 156.482C217.207 145.79 238.061 145.79 254.044 156.482L276.364 171.412C292.684 182.329 313.976 182.329 330.296 171.412L352.616 156.482C368.599 145.79 389.453 145.79 405.436 156.482L454.444 189.265L455 188.434L405.992 155.651C389.672 144.733 368.38 144.733 352.06 155.651L329.74 170.581C313.757 181.273 292.903 181.273 276.92 170.581L254.6 155.651C238.28 144.733 216.988 144.733 200.668 155.651L178.348 170.581C162.365 181.273 141.511 181.273 125.528 170.581L103.208 155.651C86.8881 144.733 65.5957 144.733 49.2756 155.651L0.267895 188.434L0.823902 189.265L49.8316 156.482ZM102.652 262.965C86.6686 252.273 65.8152 252.273 49.8316 262.965L0.823902 295.748L0.267895 294.917L49.2756 262.134C65.5957 251.216 86.8881 251.216 103.208 262.134L125.528 277.064C141.511 287.756 162.365 287.756 178.348 277.064L200.668 262.134C216.988 251.216 238.28 251.216 254.6 262.134L276.92 277.064C292.903 287.756 313.757 287.756 329.74 277.064L352.06 262.134C368.38 251.216 389.672 251.216 405.992 262.134L455 294.917L454.444 295.748L405.436 262.965C389.453 252.273 368.599 252.273 352.616 262.965L330.296 277.895C313.976 288.812 292.684 288.812 276.364 277.895L254.044 262.965C238.061 252.273 217.207 252.273 201.224 262.965L178.904 277.895C162.584 288.812 141.292 288.812 124.972 277.895L102.652 262.965ZM49.8316 282.655C65.8152 271.963 86.6686 271.963 102.652 282.655L124.972 297.585C141.292 308.503 162.584 308.503 178.904 297.585L201.224 282.655C217.207 271.963 238.061 271.963 254.044 282.655L276.364 297.585C292.684 308.503 313.976 308.503 330.296 297.585L352.616 282.655C368.599 271.963 389.453 271.963 405.436 282.655L454.444 315.438L455 314.607L405.992 281.824C389.672 270.907 368.38 270.907 352.06 281.824L329.74 296.754C313.757 307.446 292.903 307.446 276.92 296.754L254.6 281.824C238.28 270.907 216.988 270.907 200.668 281.824L178.348 296.754C162.365 307.446 141.511 307.446 125.528 296.754L103.208 281.824C86.8881 270.907 65.5957 270.907 49.2756 281.824L0.267895 314.607L0.823902 315.438L49.8316 282.655ZM102.652 305.161C86.6686 294.468 65.8152 294.468 49.8316 305.161L0.823902 337.944L0.267895 337.113L49.2756 304.329C65.5957 293.412 86.8881 293.412 103.208 304.329L125.528 319.26C141.511 329.952 162.365 329.952 178.348 319.26L200.668 304.329C216.988 293.412 238.28 293.412 254.6 304.329L276.92 319.26C292.903 329.952 313.757 329.952 329.74 319.26L352.06 304.329C368.38 293.412 389.672 293.412 405.992 304.329L455 337.113L454.444 337.944L405.436 305.161C389.453 294.468 368.599 294.468 352.616 305.161L330.296 320.091C313.976 331.008 292.684 331.008 276.364 320.091L254.044 305.161C238.061 294.468 217.207 294.468 201.224 305.161L178.904 320.091C162.584 331.008 141.292 331.008 124.972 320.091L102.652 305.161ZM49.8316 324.853C65.8152 314.161 86.6686 314.161 102.652 324.853L124.972 339.783C141.292 350.7 162.584 350.7 178.904 339.783L201.224 324.853C217.207 314.161 238.061 314.161 254.044 324.853L276.364 339.783C292.684 350.7 313.976 350.7 330.296 339.783L352.616 324.853C368.599 314.161 389.453 314.161 405.436 324.853L454.444 357.636L455 356.805L405.992 324.022C389.672 313.105 368.38 313.105 352.06 324.022L329.74 338.952C313.757 349.644 292.903 349.644 276.92 338.952L254.6 324.022C238.28 313.105 216.988 313.105 200.668 324.022L178.348 338.952C162.365 349.644 141.511 349.644 125.528 338.952L103.208 324.022C86.8881 313.105 65.5957 313.105 49.2756 324.022L0.267895 356.805L0.823902 357.636L49.8316 324.853Z" fill="url(#paint0_linear_169_1839)"/>
<defs>
<linearGradient id="paint0_linear_169_1839" x1="455" y1="0.787109" x2="3.35994" y2="186.723" gradientUnits="userSpaceOnUse">
<stop stop-color="#38ACDD"/>
<stop offset="1" stop-color="#38ACDD" stop-opacity="0"/>
</linearGradient>
</defs>
</svg>
