<svg width="24" height="24" viewBox="0 0 24 24" fill="none" xmlns="http://www.w3.org/2000/svg">
<g clip-path="url(#clip0_169_520)">
<path d="M15.4315 11.3917C15.4315 12.1237 14.8915 12.7237 14.2075 12.7237C13.5355 12.7237 12.9835 12.1237 12.9835 11.3917C12.9835 10.6597 13.5235 10.0597 14.2075 10.0597C14.8915 10.0597 15.4315 10.6597 15.4315 11.3917ZM9.82751 10.0597C9.14351 10.0597 8.60351 10.6597 8.60351 11.3917C8.60351 12.1237 9.15551 12.7237 9.82751 12.7237C10.5115 12.7237 11.0515 12.1237 11.0515 11.3917C11.0635 10.6597 10.5115 10.0597 9.82751 10.0597ZM22.4995 2.4637V23.9917C19.4764 21.3201 20.4432 22.2044 16.9315 18.9397L17.5675 21.1597H3.95951C2.60351 21.1597 1.49951 20.0557 1.49951 18.6877V2.4637C1.49951 1.0957 2.60351 -0.00830078 3.95951 -0.00830078H20.0395C21.3955 -0.00830078 22.4995 1.0957 22.4995 2.4637ZM19.0795 13.8397C19.0795 9.9757 17.3515 6.8437 17.3515 6.8437C15.6235 5.5477 13.9795 5.5837 13.9795 5.5837L13.8115 5.7757C15.8515 6.3997 16.7995 7.2997 16.7995 7.2997C13.949 5.7374 10.6006 5.73712 7.83551 6.9517C7.39151 7.1557 7.12751 7.2997 7.12751 7.2997C7.12751 7.2997 8.12351 6.3517 10.2835 5.7277L10.1635 5.5837C10.1635 5.5837 8.51951 5.5477 6.79151 6.8437C6.79151 6.8437 5.06351 9.9757 5.06351 13.8397C5.06351 13.8397 6.07151 15.5797 8.72351 15.6637C8.72351 15.6637 9.16751 15.1237 9.52751 14.6677C8.00351 14.2117 7.42751 13.2517 7.42751 13.2517C7.60404 13.3753 7.89514 13.5354 7.91951 13.5517C9.94498 14.686 12.8221 15.0576 15.4075 13.9717C15.8275 13.8157 16.2955 13.5877 16.7875 13.2637C16.7875 13.2637 16.1875 14.2477 14.6155 14.6917C14.9755 15.1477 15.4075 15.6637 15.4075 15.6637C18.0595 15.5797 19.0795 13.8397 19.0795 13.8397Z" fill="#FAFAFA"/>
</g>
<defs>
<clipPath id="clip0_169_520">
<rect width="24" height="24" fill="white" transform="translate(-0.000488281 -0.00830078)"/>
</clipPath>
</defs>
</svg>
