<svg width="1440" height="319" viewBox="0 0 1440 319" fill="none" xmlns="http://www.w3.org/2000/svg">
<g clip-path="url(#clip0_10_23)">
<path fill-rule="evenodd" clip-rule="evenodd" d="M217.35 3.60975C225.415 1.44519 233.908 1.44519 241.974 3.60975L461.35 62.4849C469.585 64.695 478.257 64.695 486.492 62.4849L705.868 3.60975C713.934 1.44519 722.427 1.44519 730.492 3.60975L949.868 62.4849C958.103 64.695 966.776 64.695 975.011 62.4849L1194.39 3.60975C1202.45 1.44519 1210.95 1.44519 1219.01 3.60975L1450.83 65.824L1451.09 64.8582L1219.27 2.64392C1211.04 0.433797 1202.36 0.433797 1194.13 2.64392L974.752 61.5191C966.686 63.6836 958.193 63.6836 950.127 61.5191L730.752 2.64392C722.516 0.433797 713.844 0.433797 705.609 2.64392L486.233 61.5191C478.168 63.6836 469.674 63.6836 461.609 61.5191L242.233 2.64392C233.998 0.433797 225.326 0.433797 217.09 2.64392L-14.7275 64.8582L-14.4683 65.824L217.35 3.60975ZM217.35 29.101C225.415 26.9364 233.908 26.9364 241.974 29.101L461.35 87.9761C469.585 90.1862 478.257 90.1862 486.492 87.9761L705.868 29.101C713.934 26.9364 722.427 26.9364 730.492 29.101L949.868 87.9761C958.103 90.1862 966.776 90.1862 975.011 87.9761L1194.39 29.101C1202.45 26.9364 1210.95 26.9364 1219.01 29.101L1450.83 91.3152L1451.09 90.3494L1219.27 28.1351C1211.04 25.925 1202.36 25.925 1194.13 28.1351L974.752 87.0103C966.686 89.1749 958.193 89.1749 950.127 87.0103L730.752 28.1351C722.516 25.925 713.844 25.925 705.609 28.1351L486.233 87.0103C478.168 89.1749 469.674 89.1749 461.609 87.0103L242.233 28.1351C233.998 25.925 225.326 25.925 217.09 28.1351L-14.7275 90.3494L-14.4683 91.3152L217.35 29.101ZM241.974 58.2362C233.908 56.0717 225.415 56.0717 217.35 58.2362L-14.4683 120.45L-14.7275 119.485L217.09 57.2704C225.326 55.0603 233.998 55.0603 242.233 57.2704L461.609 116.146C469.674 118.31 478.168 118.31 486.233 116.146L705.609 57.2704C713.844 55.0603 722.516 55.0603 730.752 57.2704L950.127 116.146C958.193 118.31 966.686 118.31 974.752 116.146L1194.13 57.2704C1202.36 55.0603 1211.04 55.0603 1219.27 57.2704L1451.09 119.485L1450.83 120.45L1219.01 58.2362C1210.95 56.0717 1202.45 56.0717 1194.39 58.2362L975.011 117.111C966.776 119.322 958.103 119.322 949.868 117.111L730.492 58.2362C722.427 56.0717 713.934 56.0717 705.868 58.2362L486.492 117.111C478.257 119.322 469.585 119.322 461.35 117.111L241.974 58.2362ZM217.35 83.7303C225.415 81.5658 233.908 81.5658 241.974 83.7304L461.35 142.605C469.585 144.816 478.257 144.816 486.492 142.605L705.868 83.7303C713.934 81.5658 722.427 81.5658 730.492 83.7304L949.868 142.605C958.103 144.816 966.776 144.816 975.011 142.605L1194.39 83.7303C1202.45 81.5658 1210.95 81.5658 1219.01 83.7304L1450.83 145.945L1451.09 144.979L1219.27 82.7645C1211.04 80.5544 1202.36 80.5544 1194.13 82.7645L974.752 141.64C966.686 143.804 958.193 143.804 950.127 141.64L730.752 82.7645C722.516 80.5544 713.844 80.5544 705.609 82.7645L486.233 141.64C478.168 143.804 469.674 143.804 461.609 141.64L242.233 82.7645C233.998 80.5544 225.326 80.5544 217.09 82.7645L-14.7275 144.979L-14.4683 145.945L217.35 83.7303ZM241.974 221.582C233.908 219.418 225.415 219.418 217.35 221.582L-14.4683 283.797L-14.7275 282.831L217.09 220.617C225.326 218.406 233.998 218.406 242.233 220.617L461.609 279.492C469.674 281.656 478.168 281.656 486.233 279.492L705.609 220.617C713.844 218.406 722.516 218.406 730.752 220.617L950.127 279.492C958.193 281.656 966.686 281.656 974.752 279.492L1194.13 220.617C1202.36 218.406 1211.04 218.406 1219.27 220.617L1451.09 282.831L1450.83 283.797L1219.01 221.582C1210.95 219.418 1202.45 219.418 1194.39 221.582L975.011 280.458C966.776 282.668 958.103 282.668 949.868 280.458L730.492 221.582C722.427 219.418 713.934 219.418 705.868 221.582L486.492 280.458C478.257 282.668 469.585 282.668 461.35 280.458L241.974 221.582ZM217.35 247.074C225.415 244.909 233.908 244.909 241.974 247.074L461.35 305.949C469.585 308.159 478.257 308.159 486.492 305.949L705.868 247.074C713.934 244.909 722.427 244.909 730.492 247.074L949.868 305.949C958.103 308.159 966.776 308.159 975.011 305.949L1194.39 247.074C1202.45 244.909 1210.95 244.909 1219.01 247.074L1450.83 309.288L1451.09 308.322L1219.27 246.108C1211.04 243.898 1202.36 243.898 1194.13 246.108L974.752 304.983C966.686 307.148 958.193 307.148 950.127 304.983L730.752 246.108C722.516 243.898 713.844 243.898 705.609 246.108L486.233 304.983C478.168 307.148 469.674 307.148 461.609 304.983L242.233 246.108C233.998 243.898 225.326 243.898 217.09 246.108L-14.7275 308.322L-14.4683 309.288L217.35 247.074ZM241.974 276.208C233.908 274.044 225.415 274.044 217.35 276.208L-14.4683 338.423L-14.7275 337.457L217.09 275.243C225.326 273.032 233.998 273.032 242.233 275.243L461.609 334.118C469.674 336.282 478.168 336.282 486.233 334.118L705.609 275.243C713.844 273.032 722.516 273.032 730.752 275.243L950.127 334.118C958.193 336.282 966.686 336.282 974.752 334.118L1194.13 275.243C1202.36 273.032 1211.04 273.032 1219.27 275.243L1451.09 337.457L1450.83 338.423L1219.01 276.208C1210.95 274.044 1202.45 274.044 1194.39 276.208L975.011 335.084C966.776 337.294 958.103 337.294 949.868 335.084L730.492 276.208C722.427 274.044 713.934 274.044 705.868 276.208L486.492 335.084C478.257 337.294 469.585 337.294 461.35 335.084L241.974 276.208ZM217.35 301.703C225.415 299.538 233.908 299.538 241.974 301.703L461.35 360.578C469.585 362.788 478.257 362.788 486.492 360.578L705.868 301.703C713.934 299.538 722.427 299.538 730.492 301.703L949.868 360.578C958.103 362.788 966.776 362.788 975.011 360.578L1194.39 301.703C1202.45 299.538 1210.95 299.538 1219.01 301.703L1450.83 363.917L1451.09 362.951L1219.27 300.737C1211.04 298.527 1202.36 298.527 1194.13 300.737L974.752 359.612C966.686 361.777 958.193 361.777 950.127 359.612L730.752 300.737C722.516 298.527 713.844 298.527 705.609 300.737L486.233 359.612C478.168 361.777 469.674 361.777 461.609 359.612L242.233 300.737C233.998 298.527 225.326 298.527 217.09 300.737L-14.7275 362.951L-14.4683 363.917L217.35 301.703ZM241.974 113.374C233.908 111.21 225.415 111.21 217.35 113.374L-14.4683 175.589L-14.7275 174.623L217.09 112.409C225.326 110.198 233.998 110.198 242.233 112.409L461.609 171.284C469.674 173.448 478.168 173.448 486.233 171.284L705.609 112.409C713.844 110.198 722.516 110.198 730.752 112.409L950.127 171.284C958.193 173.448 966.686 173.448 974.752 171.284L1194.13 112.409C1202.36 110.198 1211.04 110.198 1219.27 112.409L1451.09 174.623L1450.83 175.589L1219.01 113.374C1210.95 111.21 1202.45 111.21 1194.39 113.374L975.011 172.25C966.776 174.46 958.103 174.46 949.868 172.25L730.492 113.374C722.427 111.21 713.934 111.21 705.868 113.374L486.492 172.25C478.257 174.46 469.585 174.46 461.35 172.25L241.974 113.374ZM217.35 138.866C225.415 136.701 233.908 136.701 241.974 138.866L461.35 197.741C469.585 199.951 478.257 199.951 486.492 197.741L705.868 138.866C713.934 136.701 722.427 136.701 730.492 138.866L949.868 197.741C958.103 199.951 966.776 199.951 975.011 197.741L1194.39 138.866C1202.45 136.701 1210.95 136.701 1219.01 138.866L1450.83 201.08L1451.09 200.114L1219.27 137.9C1211.04 135.69 1202.36 135.69 1194.13 137.9L974.752 196.775C966.686 198.939 958.193 198.939 950.127 196.775L730.752 137.9C722.516 135.69 713.844 135.69 705.609 137.9L486.233 196.775C478.168 198.939 469.674 198.939 461.609 196.775L242.233 137.9C233.998 135.69 225.326 135.69 217.09 137.9L-14.7275 200.114L-14.4683 201.08L217.35 138.866ZM241.974 168C233.908 165.836 225.415 165.836 217.35 168L-14.4683 230.215L-14.7275 229.249L217.09 167.035C225.326 164.824 233.998 164.824 242.233 167.035L461.609 225.91C469.674 228.074 478.168 228.074 486.233 225.91L705.609 167.035C713.844 164.824 722.516 164.824 730.752 167.035L950.127 225.91C958.193 228.074 966.686 228.074 974.752 225.91L1194.13 167.035C1202.36 164.824 1211.04 164.824 1219.27 167.035L1451.09 229.249L1450.83 230.215L1219.01 168C1210.95 165.836 1202.45 165.836 1194.39 168L975.011 226.876C966.776 229.086 958.103 229.086 949.868 226.876L730.492 168C722.427 165.836 713.934 165.836 705.868 168L486.492 226.876C478.257 229.086 469.585 229.086 461.35 226.876L241.974 168ZM217.35 193.495C225.415 191.33 233.908 191.33 241.974 193.495L461.35 252.37C469.585 254.58 478.257 254.58 486.492 252.37L705.868 193.495C713.934 191.33 722.427 191.33 730.492 193.495L949.868 252.37C958.103 254.58 966.776 254.58 975.011 252.37L1194.39 193.495C1202.45 191.33 1210.95 191.33 1219.01 193.495L1450.83 255.709L1451.09 254.743L1219.27 192.529C1211.04 190.319 1202.36 190.319 1194.13 192.529L974.752 251.404C966.686 253.569 958.193 253.569 950.127 251.404L730.752 192.529C722.516 190.319 713.844 190.319 705.609 192.529L486.233 251.404C478.168 253.569 469.674 253.569 461.609 251.404L242.233 192.529C233.998 190.319 225.326 190.319 217.09 192.529L-14.7275 254.743L-14.4683 255.709L217.35 193.495ZM241.974 331.347C233.908 329.182 225.415 329.182 217.35 331.347L-14.4683 393.561L-14.7275 392.595L217.09 330.381C225.326 328.171 233.998 328.171 242.233 330.381L461.609 389.256C469.674 391.42 478.168 391.42 486.233 389.256L705.609 330.381C713.844 328.171 722.516 328.171 730.752 330.381L950.127 389.256C958.193 391.42 966.686 391.42 974.752 389.256L1194.13 330.381C1202.36 328.171 1211.04 328.171 1219.27 330.381L1451.09 392.595L1450.83 393.561L1219.01 331.347C1210.95 329.182 1202.45 329.182 1194.39 331.347L975.011 390.222C966.776 392.432 958.103 392.432 949.868 390.222L730.492 331.347C722.427 329.182 713.934 329.182 705.868 331.347L486.492 390.222C478.257 392.432 469.585 392.432 461.35 390.222L241.974 331.347ZM217.35 356.838C225.415 354.674 233.908 354.674 241.974 356.838L461.35 415.713C469.585 417.924 478.257 417.924 486.492 415.713L705.868 356.838C713.934 354.674 722.427 354.674 730.492 356.838L949.868 415.713C958.103 417.924 966.776 417.924 975.011 415.713L1194.39 356.838C1202.45 354.674 1210.95 354.674 1219.01 356.838L1450.83 419.052L1451.09 418.087L1219.27 355.872C1211.04 353.662 1202.36 353.662 1194.13 355.872L974.752 414.748C966.686 416.912 958.193 416.912 950.127 414.748L730.752 355.872C722.516 353.662 713.844 353.662 705.609 355.872L486.233 414.748C478.168 416.912 469.674 416.912 461.609 414.748L242.233 355.872C233.998 353.662 225.326 353.662 217.09 355.872L-14.7275 418.087L-14.4683 419.052L217.35 356.838ZM241.974 385.973C233.908 383.808 225.415 383.808 217.35 385.973L-14.4683 448.187L-14.7275 447.221L217.09 385.007C225.326 382.797 233.998 382.797 242.233 385.007L461.609 443.882C469.674 446.047 478.168 446.047 486.233 443.882L705.609 385.007C713.844 382.797 722.516 382.797 730.752 385.007L950.127 443.882C958.193 446.047 966.686 446.047 974.752 443.882L1194.13 385.007C1202.36 382.797 1211.04 382.797 1219.27 385.007L1451.09 447.221L1450.83 448.187L1219.01 385.973C1210.95 383.808 1202.45 383.808 1194.39 385.973L975.011 444.848C966.776 447.058 958.103 447.058 949.868 444.848L730.492 385.973C722.427 383.808 713.934 383.808 705.868 385.973L486.492 444.848C478.257 447.058 469.585 447.058 461.35 444.848L241.974 385.973ZM217.35 411.467C225.415 409.303 233.908 409.303 241.974 411.467L461.35 470.342C469.585 472.552 478.257 472.552 486.492 470.342L705.868 411.467C713.934 409.303 722.427 409.303 730.492 411.467L949.868 470.342C958.103 472.552 966.776 472.552 975.011 470.342L1194.39 411.467C1202.45 409.303 1210.95 409.303 1219.01 411.467L1450.83 473.681L1451.09 472.716L1219.27 410.501C1211.04 408.291 1202.36 408.291 1194.13 410.501L974.752 469.377C966.686 471.541 958.193 471.541 950.127 469.377L730.752 410.501C722.516 408.291 713.844 408.291 705.609 410.501L486.233 469.377C478.168 471.541 469.674 471.541 461.609 469.377L242.233 410.501C233.998 408.291 225.326 408.291 217.09 410.501L-14.7275 472.716L-14.4683 473.681L217.35 411.467Z" fill="url(#paint0_linear_10_23)"/>
</g>
<defs>
<linearGradient id="paint0_linear_10_23" x1="718.18" y1="391.346" x2="718.191" y2="0.986366" gradientUnits="userSpaceOnUse">
<stop stop-color="#FBC6CF"/>
<stop offset="1" stop-color="#FBC6CF" stop-opacity="0"/>
</linearGradient>
<clipPath id="clip0_10_23">
<rect width="1440" height="319" fill="white"/>
</clipPath>
</defs>
</svg>
