<svg width="100%" height="100%" viewBox="0 0 445 573" preserveAspectRatio="xMidYMid slice"
    fill="none"
    xmlns="http://www.w3.org/2000/svg">
    <g clip-path="url(#clip0_592_218)">
        <mask id="mask0_592_218" style="mask-type:alpha" maskUnits="userSpaceOnUse" x="0" y="-46"
            width="618" height="962">
            <path d="M0 -46H618V916H0V-46Z" fill="#D9D9D9" />
        </mask>
        <g mask="url(#mask0_592_218)">
            <path fill-rule="evenodd" clip-rule="evenodd"
                d="M-437.751 440.293C-430.548 438.36 -422.964 438.36 -415.761 440.293L-219.854 492.86C-212.5 494.833 -204.756 494.833 -197.402 492.86L-1.49537 440.293C5.70771 438.36 13.2921 438.36 20.4942 440.293L216.401 492.86C223.755 494.833 231.5 494.833 238.854 492.86L434.762 440.293C441.96 438.36 449.551 438.36 456.748 440.293L663.768 495.841L664 494.979L456.981 439.43C449.631 437.457 441.88 437.457 434.53 439.43L238.623 491.997C231.42 493.93 223.835 493.93 216.632 491.997L20.7264 439.43C13.3715 437.457 5.62728 437.457 -1.72672 439.43L-197.633 491.997C-204.836 493.93 -212.421 493.93 -219.623 491.997L-415.53 439.43C-422.884 437.457 -430.628 437.457 -437.983 439.43L-645 494.979L-644.769 495.841L-437.751 440.293ZM-437.751 463.053C-430.548 461.12 -422.964 461.12 -415.761 463.053L-219.854 515.62C-212.5 517.593 -204.756 517.593 -197.402 515.62L-1.49537 463.053C5.70771 461.12 13.2921 461.12 20.4942 463.053L216.401 515.62C223.755 517.593 231.5 517.593 238.854 515.62L434.762 463.053C441.96 461.12 449.551 461.12 456.748 463.053L663.768 518.601L664 517.739L456.981 462.19C449.631 460.217 441.88 460.217 434.53 462.19L238.623 514.758C231.42 516.69 223.835 516.69 216.632 514.758L20.7264 462.19C13.3715 460.217 5.62728 460.217 -1.72672 462.19L-197.633 514.758C-204.836 516.69 -212.421 516.69 -219.623 514.758L-415.53 462.19C-422.884 460.217 -430.628 460.217 -437.983 462.19L-645 517.739L-644.769 518.601L-437.751 463.053ZM-415.761 489.066C-422.964 487.134 -430.548 487.134 -437.751 489.066L-644.769 544.614L-645 543.753L-437.983 488.204C-430.628 486.231 -422.884 486.231 -415.53 488.204L-219.623 540.772C-212.421 542.704 -204.836 542.704 -197.633 540.772L-1.72672 488.204C5.62728 486.231 13.3715 486.231 20.7264 488.204L216.632 540.772C223.835 542.704 231.42 542.704 238.623 540.772L434.53 488.204C441.88 486.231 449.631 486.231 456.981 488.204L664 543.753L663.768 544.614L456.748 489.066C449.551 487.134 441.96 487.134 434.762 489.066L238.854 541.633C231.5 543.607 223.755 543.607 216.401 541.633L20.4942 489.066C13.2921 487.134 5.70771 487.134 -1.49537 489.066L-197.402 541.633C-204.756 543.607 -212.5 543.607 -219.854 541.633L-415.761 489.066ZM-437.751 511.829C-430.548 509.896 -422.964 509.896 -415.761 511.829L-219.854 564.396C-212.5 566.37 -204.756 566.37 -197.402 564.396L-1.49537 511.829C5.70771 509.896 13.2921 509.896 20.4942 511.829L216.401 564.396C223.755 566.37 231.5 566.37 238.854 564.396L434.762 511.829C441.96 509.896 449.551 509.896 456.748 511.829L663.768 567.378L664 566.515L456.981 510.967C449.631 508.993 441.88 508.993 434.53 510.967L238.623 563.534C231.42 565.466 223.835 565.466 216.632 563.534L20.7264 510.967C13.3715 508.993 5.62728 508.993 -1.72672 510.967L-197.633 563.534C-204.836 565.466 -212.421 565.466 -219.623 563.534L-415.53 510.967C-422.884 508.993 -430.628 508.993 -437.983 510.967L-645 566.515L-644.769 567.378L-437.751 511.829ZM-415.761 634.911C-422.964 632.979 -430.548 632.979 -437.751 634.911L-644.769 690.46L-645 689.598L-437.983 634.049C-430.628 632.075 -422.884 632.075 -415.53 634.049L-219.623 686.617C-212.421 688.549 -204.836 688.549 -197.633 686.617L-1.72672 634.049C5.62728 632.075 13.3715 632.075 20.7264 634.049L216.632 686.617C223.835 688.549 231.42 688.549 238.623 686.617L434.53 634.049C441.88 632.075 449.631 632.075 456.981 634.049L664 689.598L663.768 690.46L456.748 634.911C449.551 632.979 441.96 632.979 434.762 634.911L238.854 687.479C231.5 689.452 223.755 689.452 216.401 687.479L20.4942 634.911C13.2921 632.979 5.70771 632.979 -1.49537 634.911L-197.402 687.479C-204.756 689.452 -212.5 689.452 -219.854 687.479L-415.761 634.911ZM-437.751 657.672C-430.548 655.739 -422.964 655.739 -415.761 657.672L-219.854 710.239C-212.5 712.212 -204.756 712.212 -197.402 710.239L-1.49537 657.672C5.70771 655.739 13.2921 655.739 20.4942 657.672L216.401 710.239C223.755 712.212 231.5 712.212 238.854 710.239L434.762 657.672C441.96 655.739 449.551 655.739 456.748 657.672L663.768 713.22L664 712.358L456.981 656.809C449.631 654.836 441.88 654.836 434.53 656.809L238.623 709.376C231.42 711.31 223.835 711.31 216.632 709.376L20.7264 656.809C13.3715 654.836 5.62728 654.836 -1.72672 656.809L-197.633 709.376C-204.836 711.31 -212.421 711.31 -219.623 709.376L-415.53 656.809C-422.884 654.836 -430.628 654.836 -437.983 656.809L-645 712.358L-644.769 713.22L-437.751 657.672ZM-415.761 683.684C-422.964 681.752 -430.548 681.752 -437.751 683.684L-644.769 739.234L-645 738.371L-437.983 682.823C-430.628 680.849 -422.884 680.849 -415.53 682.823L-219.623 735.39C-212.421 737.322 -204.836 737.322 -197.633 735.39L-1.72672 682.823C5.62728 680.849 13.3715 680.849 20.7264 682.823L216.632 735.39C223.835 737.322 231.42 737.322 238.623 735.39L434.53 682.823C441.88 680.849 449.631 680.849 456.981 682.823L664 738.371L663.768 739.234L456.748 683.684C449.551 681.752 441.96 681.752 434.762 683.684L238.854 736.252C231.5 738.226 223.755 738.226 216.401 736.252L20.4942 683.684C13.2921 681.752 5.70771 681.752 -1.49537 683.684L-197.402 736.252C-204.756 738.226 -212.5 738.226 -219.854 736.252L-415.761 683.684ZM-437.751 706.448C-430.548 704.515 -422.964 704.515 -415.761 706.448L-219.854 759.015C-212.5 760.988 -204.756 760.988 -197.402 759.015L-1.49537 706.448C5.70771 704.515 13.2921 704.515 20.4942 706.448L216.401 759.015C223.755 760.988 231.5 760.988 238.854 759.015L434.762 706.448C441.96 704.515 449.551 704.515 456.748 706.448L663.768 761.996L664 761.134L456.981 705.585C449.631 703.612 441.88 703.612 434.53 705.585L238.623 758.152C231.42 760.086 223.835 760.086 216.632 758.152L20.7264 705.585C13.3715 703.612 5.62728 703.612 -1.72672 705.585L-197.633 758.152C-204.836 760.086 -212.421 760.086 -219.623 758.152L-415.53 705.585C-422.884 703.612 -430.628 703.612 -437.983 705.585L-645 761.134L-644.769 761.996L-437.751 706.448ZM-415.761 538.297C-422.964 536.364 -430.548 536.364 -437.751 538.297L-644.769 593.846L-645 592.983L-437.983 537.435C-430.628 535.461 -422.884 535.461 -415.53 537.435L-219.623 590.002C-212.421 591.934 -204.836 591.934 -197.633 590.002L-1.72672 537.435C5.62728 535.461 13.3715 535.461 20.7264 537.435L216.632 590.002C223.835 591.934 231.42 591.934 238.623 590.002L434.53 537.435C441.88 535.461 449.631 535.461 456.981 537.435L664 592.983L663.768 593.846L456.748 538.297C449.551 536.364 441.96 536.364 434.762 538.297L238.854 590.865C231.5 592.838 223.755 592.838 216.401 590.865L20.4942 538.297C13.2921 536.364 5.70771 536.364 -1.49537 538.297L-197.402 590.865C-204.756 592.838 -212.5 592.838 -219.854 590.865L-415.761 538.297ZM-437.751 561.057C-430.548 559.124 -422.964 559.124 -415.761 561.057L-219.854 613.624C-212.5 615.598 -204.756 615.598 -197.402 613.624L-1.49537 561.057C5.70771 559.124 13.2921 559.124 20.4942 561.057L216.401 613.624C223.755 615.598 231.5 615.598 238.854 613.624L434.762 561.057C441.96 559.124 449.551 559.124 456.748 561.057L663.768 616.606L664 615.743L456.981 560.195C449.631 558.222 441.88 558.222 434.53 560.195L238.623 612.762C231.42 614.694 223.835 614.694 216.632 612.762L20.7264 560.195C13.3715 558.222 5.62728 558.222 -1.72672 560.195L-197.633 612.762C-204.836 614.694 -212.421 614.694 -219.623 612.762L-415.53 560.195C-422.884 558.222 -430.628 558.222 -437.983 560.195L-645 615.743L-644.769 616.606L-437.751 561.057ZM-415.761 587.07C-422.964 585.138 -430.548 585.138 -437.751 587.07L-644.769 642.619L-645 641.757L-437.983 586.208C-430.628 584.234 -422.884 584.234 -415.53 586.208L-219.623 638.775C-212.421 640.708 -204.836 640.708 -197.633 638.775L-1.72672 586.208C5.62728 584.234 13.3715 584.234 20.7264 586.208L216.632 638.775C223.835 640.708 231.42 640.708 238.623 638.775L434.53 586.208C441.88 584.234 449.631 584.234 456.981 586.208L664 641.757L663.768 642.619L456.748 587.07C449.551 585.138 441.96 585.138 434.762 587.07L238.854 639.638C231.5 641.611 223.755 641.611 216.401 639.638L20.4942 587.07C13.2921 585.138 5.70771 585.138 -1.49537 587.07L-197.402 639.638C-204.756 641.611 -212.5 641.611 -219.854 639.638L-415.761 587.07ZM-437.751 609.833C-430.548 607.9 -422.964 607.9 -415.761 609.833L-219.854 662.4C-212.5 664.374 -204.756 664.374 -197.402 662.4L-1.49537 609.833C5.70771 607.9 13.2921 607.9 20.4942 609.833L216.401 662.4C223.755 664.374 231.5 664.374 238.854 662.4L434.762 609.833C441.96 607.9 449.551 607.9 456.748 609.833L663.768 665.382L664 664.519L456.981 608.971C449.631 606.998 441.88 606.998 434.53 608.971L238.623 661.538C231.42 663.471 223.835 663.471 216.632 661.538L20.7264 608.971C13.3715 606.998 5.62728 606.998 -1.72672 608.971L-197.633 661.538C-204.836 663.471 -212.421 663.471 -219.623 661.538L-415.53 608.971C-422.884 606.998 -430.628 606.998 -437.983 608.971L-645 664.519L-644.769 665.382L-437.751 609.833ZM-415.761 732.916C-422.964 730.983 -430.548 730.983 -437.751 732.916L-644.769 788.464L-645 787.602L-437.983 732.053C-430.628 730.08 -422.884 730.08 -415.53 732.053L-219.623 784.62C-212.421 786.553 -204.836 786.553 -197.633 784.62L-1.72672 732.053C5.62728 730.08 13.3715 730.08 20.7264 732.053L216.632 784.62C223.835 786.553 231.42 786.553 238.623 784.62L434.53 732.053C441.88 730.08 449.631 730.08 456.981 732.053L664 787.602L663.768 788.464L456.748 732.916C449.551 730.983 441.96 730.983 434.762 732.916L238.854 785.483C231.5 787.456 223.755 787.456 216.401 785.483L20.4942 732.916C13.2921 730.983 5.70771 730.983 -1.49537 732.916L-197.402 785.483C-204.756 787.456 -212.5 787.456 -219.854 785.483L-415.761 732.916ZM-437.751 755.676C-430.548 753.744 -422.964 753.744 -415.761 755.676L-219.854 808.243C-212.5 810.217 -204.756 810.217 -197.402 808.243L-1.49537 755.676C5.70771 753.744 13.2921 753.744 20.4942 755.676L216.401 808.243C223.755 810.217 231.5 810.217 238.854 808.243L434.762 755.676C441.96 753.744 449.551 753.744 456.748 755.676L663.768 811.224L664 810.362L456.981 754.813C449.631 752.84 441.88 752.84 434.53 754.813L238.623 807.381C231.42 809.313 223.835 809.313 216.632 807.381L20.7264 754.813C13.3715 752.84 5.62728 752.84 -1.72672 754.813L-197.633 807.381C-204.836 809.313 -212.421 809.313 -219.623 807.381L-415.53 754.813C-422.884 752.84 -430.628 752.84 -437.983 754.813L-645 810.362L-644.769 811.224L-437.751 755.676ZM-415.761 781.689C-422.964 779.756 -430.548 779.756 -437.751 781.689L-644.769 837.237L-645 836.375L-437.983 780.827C-430.628 778.853 -422.884 778.853 -415.53 780.827L-219.623 833.394C-212.421 835.327 -204.836 835.327 -197.633 833.394L-1.72672 780.827C5.62728 778.853 13.3715 778.853 20.7264 780.827L216.632 833.394C223.835 835.327 231.42 835.327 238.623 833.394L434.53 780.827C441.88 778.853 449.631 778.853 456.981 780.827L664 836.375L663.768 837.237L456.748 781.689C449.551 779.756 441.96 779.756 434.762 781.689L238.854 834.256C231.5 836.229 223.755 836.229 216.401 834.256L20.4942 781.689C13.2921 779.756 5.70771 779.756 -1.49537 781.689L-197.402 834.256C-204.756 836.229 -212.5 836.229 -219.854 834.256L-415.761 781.689ZM-437.751 804.452C-430.548 802.52 -422.964 802.52 -415.761 804.452L-219.854 857.019C-212.5 858.992 -204.756 858.992 -197.402 857.019L-1.49537 804.452C5.70771 802.52 13.2921 802.52 20.4942 804.452L216.401 857.019C223.755 858.992 231.5 858.992 238.854 857.019L434.762 804.452C441.96 802.52 449.551 802.52 456.748 804.452L663.768 860L664 859.138L456.981 803.589C449.631 801.616 441.88 801.616 434.53 803.589L238.623 856.157C231.42 858.089 223.835 858.089 216.632 856.157L20.7264 803.589C13.3715 801.616 5.62728 801.616 -1.72672 803.589L-197.633 856.157C-204.836 858.089 -212.421 858.089 -219.623 856.157L-415.53 803.589C-422.884 801.616 -430.628 801.616 -437.983 803.589L-645 859.138L-644.769 860L-437.751 804.452Z"
                fill="url(#paint0_linear_592_218)" />
            <path fill-rule="evenodd" clip-rule="evenodd"
                d="M-437.751 53.3423C-430.548 51.4097 -422.964 51.4097 -415.761 53.3423L-219.854 105.91C-212.5 107.883 -204.756 107.883 -197.402 105.91L-1.49537 53.3423C5.70771 51.4097 13.2921 51.4097 20.4942 53.3423L216.401 105.91C223.755 107.883 231.5 107.883 238.854 105.91L434.762 53.3423C441.96 51.4097 449.551 51.4097 456.748 53.3423L663.768 108.891L664 108.029L456.981 52.48C449.631 50.5067 441.88 50.5067 434.53 52.48L238.623 105.047C231.42 106.98 223.835 106.98 216.632 105.047L20.7264 52.48C13.3715 50.5067 5.62728 50.5067 -1.72672 52.48L-197.633 105.047C-204.836 106.98 -212.421 106.98 -219.623 105.047L-415.53 52.48C-422.884 50.5067 -430.628 50.5067 -437.983 52.48L-645 108.029L-644.769 108.891L-437.751 53.3423ZM-437.751 76.1024C-430.548 74.1698 -422.964 74.1698 -415.761 76.1024L-219.854 128.67C-212.5 130.643 -204.756 130.643 -197.402 128.67L-1.49537 76.1024C5.70771 74.1698 13.2921 74.1698 20.4942 76.1024L216.401 128.67C223.755 130.643 231.5 130.643 238.854 128.67L434.762 76.1024C441.96 74.1698 449.551 74.1698 456.748 76.1024L663.768 131.651L664 130.789L456.981 75.24C449.631 73.2667 441.88 73.2667 434.53 75.24L238.623 127.807C231.42 129.74 223.835 129.74 216.632 127.807L20.7264 75.24C13.3715 73.2667 5.62728 73.2667 -1.72672 75.24L-197.633 127.807C-204.836 129.74 -212.421 129.74 -219.623 127.807L-415.53 75.24C-422.884 73.2667 -430.628 73.2667 -437.983 75.24L-645 130.789L-644.769 131.651L-437.751 76.1024ZM-415.761 102.116C-422.964 100.183 -430.548 100.183 -437.751 102.116L-644.769 157.664L-645 156.803L-437.983 101.254C-430.628 99.2804 -422.884 99.2804 -415.53 101.254L-219.623 153.821C-212.421 155.754 -204.836 155.754 -197.633 153.821L-1.72672 101.254C5.62728 99.2804 13.3715 99.2804 20.7264 101.254L216.632 153.821C223.835 155.754 231.42 155.754 238.623 153.821L434.53 101.254C441.88 99.2804 449.631 99.2804 456.981 101.254L664 156.803L663.768 157.664L456.748 102.116C449.551 100.183 441.96 100.183 434.762 102.116L238.854 154.683C231.5 156.657 223.755 156.657 216.401 154.683L20.4942 102.116C13.2921 100.183 5.70771 100.183 -1.49537 102.116L-197.402 154.683C-204.756 156.657 -212.5 156.657 -219.854 154.683L-415.761 102.116ZM-437.751 124.879C-430.548 122.946 -422.964 122.946 -415.761 124.879L-219.854 177.446C-212.5 179.42 -204.756 179.42 -197.402 177.446L-1.49537 124.879C5.70771 122.946 13.2921 122.946 20.4942 124.879L216.401 177.446C223.755 179.42 231.5 179.42 238.854 177.446L434.762 124.879C441.96 122.946 449.551 122.946 456.748 124.879L663.768 180.428L664 179.565L456.981 124.016C449.631 122.043 441.88 122.043 434.53 124.016L238.623 176.584C231.42 178.516 223.835 178.516 216.632 176.584L20.7264 124.016C13.3715 122.043 5.62728 122.043 -1.72672 124.016L-197.633 176.584C-204.836 178.516 -212.421 178.516 -219.623 176.584L-415.53 124.016C-422.884 122.043 -430.628 122.043 -437.983 124.016L-645 179.565L-644.769 180.428L-437.751 124.879ZM-415.761 247.961C-422.964 246.029 -430.548 246.029 -437.751 247.961L-644.769 303.51L-645 302.648L-437.983 247.099C-430.628 245.125 -422.884 245.125 -415.53 247.099L-219.623 299.666C-212.421 301.598 -204.836 301.598 -197.633 299.666L-1.72672 247.099C5.62728 245.125 13.3715 245.125 20.7264 247.099L216.632 299.666C223.835 301.598 231.42 301.598 238.623 299.666L434.53 247.099C441.88 245.125 449.631 245.125 456.981 247.099L664 302.648L663.768 303.51L456.748 247.961C449.551 246.029 441.96 246.029 434.762 247.961L238.854 300.529C231.5 302.502 223.755 302.502 216.401 300.529L20.4942 247.961C13.2921 246.029 5.70771 246.029 -1.49537 247.961L-197.402 300.529C-204.756 302.502 -212.5 302.502 -219.854 300.529L-415.761 247.961ZM-437.751 270.722C-430.548 268.789 -422.964 268.789 -415.761 270.722L-219.854 323.289C-212.5 325.262 -204.756 325.262 -197.402 323.289L-1.49537 270.722C5.70771 268.789 13.2921 268.789 20.4942 270.722L216.401 323.289C223.755 325.262 231.5 325.262 238.854 323.289L434.762 270.722C441.96 268.789 449.551 268.789 456.748 270.722L663.768 326.27L664 325.407L456.981 269.859C449.631 267.886 441.88 267.886 434.53 269.859L238.623 322.426C231.42 324.359 223.835 324.359 216.632 322.426L20.7264 269.859C13.3715 267.886 5.62728 267.886 -1.72672 269.859L-197.633 322.426C-204.836 324.359 -212.421 324.359 -219.623 322.426L-415.53 269.859C-422.884 267.886 -430.628 267.886 -437.983 269.859L-645 325.407L-644.769 326.27L-437.751 270.722ZM-415.761 296.734C-422.964 294.802 -430.548 294.802 -437.751 296.734L-644.769 352.283L-645 351.421L-437.983 295.873C-430.628 293.898 -422.884 293.898 -415.53 295.873L-219.623 348.44C-212.421 350.372 -204.836 350.372 -197.633 348.44L-1.72672 295.873C5.62728 293.898 13.3715 293.898 20.7264 295.873L216.632 348.44C223.835 350.372 231.42 350.372 238.623 348.44L434.53 295.873C441.88 293.898 449.631 293.898 456.981 295.873L664 351.421L663.768 352.283L456.748 296.734C449.551 294.802 441.96 294.802 434.762 296.734L238.854 349.302C231.5 351.275 223.755 351.275 216.401 349.302L20.4942 296.734C13.2921 294.802 5.70771 294.802 -1.49537 296.734L-197.402 349.302C-204.756 351.275 -212.5 351.275 -219.854 349.302L-415.761 296.734ZM-437.751 319.498C-430.548 317.565 -422.964 317.565 -415.761 319.498L-219.854 372.065C-212.5 374.038 -204.756 374.038 -197.402 372.065L-1.49537 319.498C5.70771 317.565 13.2921 317.565 20.4942 319.498L216.401 372.065C223.755 374.038 231.5 374.038 238.854 372.065L434.762 319.498C441.96 317.565 449.551 317.565 456.748 319.498L663.768 375.046L664 374.183L456.981 318.635C449.631 316.662 441.88 316.662 434.53 318.635L238.623 371.202C231.42 373.135 223.835 373.135 216.632 371.202L20.7264 318.635C13.3715 316.662 5.62728 316.662 -1.72672 318.635L-197.633 371.202C-204.836 373.135 -212.421 373.135 -219.623 371.202L-415.53 318.635C-422.884 316.662 -430.628 316.662 -437.983 318.635L-645 374.183L-644.769 375.046L-437.751 319.498ZM-415.761 151.346C-422.964 149.414 -430.548 149.414 -437.751 151.346L-644.769 206.896L-645 206.033L-437.983 150.485C-430.628 148.511 -422.884 148.511 -415.53 150.485L-219.623 203.052C-212.421 204.984 -204.836 204.984 -197.633 203.052L-1.72672 150.485C5.62728 148.511 13.3715 148.511 20.7264 150.485L216.632 203.052C223.835 204.984 231.42 204.984 238.623 203.052L434.53 150.485C441.88 148.511 449.631 148.511 456.981 150.485L664 206.033L663.768 206.896L456.748 151.346C449.551 149.414 441.96 149.414 434.762 151.346L238.854 203.914C231.5 205.888 223.755 205.888 216.401 203.914L20.4942 151.346C13.2921 149.414 5.70771 149.414 -1.49537 151.346L-197.402 203.914C-204.756 205.888 -212.5 205.888 -219.854 203.914L-415.761 151.346ZM-437.751 174.107C-430.548 172.174 -422.964 172.174 -415.761 174.107L-219.854 226.674C-212.5 228.647 -204.756 228.647 -197.402 226.674L-1.49537 174.107C5.70771 172.174 13.2921 172.174 20.4942 174.107L216.401 226.674C223.755 228.647 231.5 228.647 238.854 226.674L434.762 174.107C441.96 172.174 449.551 172.174 456.748 174.107L663.768 229.655L664 228.793L456.981 173.245C449.631 171.271 441.88 171.271 434.53 173.245L238.623 225.812C231.42 227.744 223.835 227.744 216.632 225.812L20.7264 173.245C13.3715 171.271 5.62728 171.271 -1.72672 173.245L-197.633 225.812C-204.836 227.744 -212.421 227.744 -219.623 225.812L-415.53 173.245C-422.884 171.271 -430.628 171.271 -437.983 173.245L-645 228.793L-644.769 229.655L-437.751 174.107ZM-415.761 200.12C-422.964 198.188 -430.548 198.188 -437.751 200.12L-644.769 255.669L-645 254.806L-437.983 199.258C-430.628 197.284 -422.884 197.284 -415.53 199.258L-219.623 251.825C-212.421 253.757 -204.836 253.757 -197.633 251.825L-1.72672 199.258C5.62728 197.284 13.3715 197.284 20.7264 199.258L216.632 251.825C223.835 253.757 231.42 253.757 238.623 251.825L434.53 199.258C441.88 197.284 449.631 197.284 456.981 199.258L664 254.806L663.768 255.669L456.748 200.12C449.551 198.188 441.96 198.188 434.762 200.12L238.854 252.688C231.5 254.661 223.755 254.661 216.401 252.688L20.4942 200.12C13.2921 198.188 5.70771 198.188 -1.49537 200.12L-197.402 252.688C-204.756 254.661 -212.5 254.661 -219.854 252.688L-415.761 200.12ZM-437.751 222.883C-430.548 220.95 -422.964 220.95 -415.761 222.883L-219.854 275.45C-212.5 277.423 -204.756 277.423 -197.402 275.45L-1.49537 222.883C5.70771 220.95 13.2921 220.95 20.4942 222.883L216.401 275.45C223.755 277.423 231.5 277.423 238.854 275.45L434.762 222.883C441.96 220.95 449.551 220.95 456.748 222.883L663.768 278.431L664 277.569L456.981 222.021C449.631 220.047 441.88 220.047 434.53 222.021L238.623 274.588C231.42 276.521 223.835 276.521 216.632 274.588L20.7264 222.021C13.3715 220.047 5.62728 220.047 -1.72672 222.021L-197.633 274.588C-204.836 276.521 -212.421 276.521 -219.623 274.588L-415.53 222.021C-422.884 220.047 -430.628 220.047 -437.983 222.021L-645 277.569L-644.769 278.431L-437.751 222.883ZM-415.761 345.966C-422.964 344.032 -430.548 344.032 -437.751 345.966L-644.769 401.514L-645 400.651L-437.983 345.103C-430.628 343.13 -422.884 343.13 -415.53 345.103L-219.623 397.67C-212.421 399.602 -204.836 399.602 -197.633 397.67L-1.72672 345.103C5.62728 343.13 13.3715 343.13 20.7264 345.103L216.632 397.67C223.835 399.602 231.42 399.602 238.623 397.67L434.53 345.103C441.88 343.13 449.631 343.13 456.981 345.103L664 400.651L663.768 401.514L456.748 345.966C449.551 344.032 441.96 344.032 434.762 345.966L238.854 398.533C231.5 400.506 223.755 400.506 216.401 398.533L20.4942 345.966C13.2921 344.032 5.70771 344.032 -1.49537 345.966L-197.402 398.533C-204.756 400.506 -212.5 400.506 -219.854 398.533L-415.761 345.966ZM-437.751 368.725C-430.548 366.793 -422.964 366.793 -415.761 368.725L-219.854 421.293C-212.5 423.267 -204.756 423.267 -197.402 421.293L-1.49537 368.725C5.70771 366.793 13.2921 366.793 20.4942 368.725L216.401 421.293C223.755 423.267 231.5 423.267 238.854 421.293L434.762 368.725C441.96 366.793 449.551 366.793 456.748 368.725L663.768 424.274L664 423.412L456.981 367.863C449.631 365.89 441.88 365.89 434.53 367.863L238.623 420.431C231.42 422.363 223.835 422.363 216.632 420.431L20.7264 367.863C13.3715 365.89 5.62728 365.89 -1.72672 367.863L-197.633 420.431C-204.836 422.363 -212.421 422.363 -219.623 420.431L-415.53 367.863C-422.884 365.89 -430.628 365.89 -437.983 367.863L-645 423.412L-644.769 424.274L-437.751 368.725ZM-415.761 394.739C-422.964 392.806 -430.548 392.806 -437.751 394.739L-644.769 450.287L-645 449.425L-437.983 393.876C-430.628 391.903 -422.884 391.903 -415.53 393.876L-219.623 446.443C-212.421 448.376 -204.836 448.376 -197.633 446.443L-1.72672 393.876C5.62728 391.903 13.3715 391.903 20.7264 393.876L216.632 446.443C223.835 448.376 231.42 448.376 238.623 446.443L434.53 393.876C441.88 391.903 449.631 391.903 456.981 393.876L664 449.425L663.768 450.287L456.748 394.739C449.551 392.806 441.96 392.806 434.762 394.739L238.854 447.306C231.5 449.279 223.755 449.279 216.401 447.306L20.4942 394.739C13.2921 392.806 5.70771 392.806 -1.49537 394.739L-197.402 447.306C-204.756 449.279 -212.5 449.279 -219.854 447.306L-415.761 394.739ZM-437.751 417.501C-430.548 415.569 -422.964 415.569 -415.761 417.501L-219.854 470.069C-212.5 472.042 -204.756 472.042 -197.402 470.069L-1.49537 417.501C5.70771 415.569 13.2921 415.569 20.4942 417.501L216.401 470.069C223.755 472.042 231.5 472.042 238.854 470.069L434.762 417.501C441.96 415.569 449.551 415.569 456.748 417.501L663.768 473.05L664 472.188L456.981 416.639C449.631 414.666 441.88 414.666 434.53 416.639L238.623 469.207C231.42 471.139 223.835 471.139 216.632 469.207L20.7264 416.639C13.3715 414.666 5.62728 414.666 -1.72672 416.639L-197.633 469.207C-204.836 471.139 -212.421 471.139 -219.623 469.207L-415.53 416.639C-422.884 414.666 -430.628 414.666 -437.983 416.639L-645 472.188L-644.769 473.05L-437.751 417.501Z"
                fill="url(#paint1_linear_592_218)" />
        </g>
    </g>
    <defs>
        <linearGradient id="paint0_linear_592_218" x1="9.16487" y1="-162.165" x2="9.16487"
            y2="1147.64" gradientUnits="userSpaceOnUse">
            <stop stop-color="#FBC6CF" />
            <stop offset="0.229502" stop-color="#FBC6CF" stop-opacity="0.16" />
            <stop offset="1" stop-color="#FBC6CF" stop-opacity="0" />
        </linearGradient>
        <linearGradient id="paint1_linear_592_218" x1="9.16487" y1="-162.165" x2="9.16487"
            y2="1147.64" gradientUnits="userSpaceOnUse">
            <stop stop-color="#FBC6CF" />
            <stop offset="0.229502" stop-color="#FBC6CF" stop-opacity="0.16" />
            <stop offset="1" stop-color="#FBC6CF" stop-opacity="0" />
        </linearGradient>
        <clipPath id="clip0_592_218">
            <rect width="445" height="573" fill="white" />
        </clipPath>
    </defs>
</svg>