<svg width="1440" height="319" viewBox="0 0 1440 319" fill="none" xmlns="http://www.w3.org/2000/svg">
<path fill-rule="evenodd" clip-rule="evenodd" d="M217.35 3.59315C225.415 1.42859 233.909 1.42859 241.974 3.59315L461.35 62.4683C469.585 64.6784 478.257 64.6784 486.493 62.4683L705.868 3.59315C713.934 1.42859 722.427 1.42859 730.493 3.59315L949.868 62.4683C958.104 64.6784 966.776 64.6784 975.011 62.4683L1194.39 3.59315C1202.45 1.42859 1210.95 1.42859 1219.01 3.59315L1450.83 65.8074L1451.09 64.8415L1219.27 2.62732C1211.04 0.417195 1202.36 0.417194 1194.13 2.62732L974.752 61.5025C966.687 63.667 958.193 63.667 950.128 61.5025L730.752 2.62732C722.517 0.417195 713.844 0.417194 705.609 2.62732L486.233 61.5025C478.168 63.667 469.674 63.667 461.609 61.5025L242.233 2.62732C233.998 0.417195 225.326 0.417194 217.091 2.62732L-14.7271 64.8415L-14.4678 65.8074L217.35 3.59315ZM217.35 29.0844C225.415 26.9198 233.909 26.9198 241.974 29.0844L461.35 87.9595C469.585 90.1696 478.257 90.1696 486.493 87.9595L705.868 29.0844C713.934 26.9198 722.427 26.9198 730.493 29.0844L949.868 87.9595C958.104 90.1696 966.776 90.1696 975.011 87.9595L1194.39 29.0844C1202.45 26.9198 1210.95 26.9198 1219.01 29.0844L1450.83 91.2986L1451.09 90.3328L1219.27 28.1185C1211.04 25.9084 1202.36 25.9084 1194.13 28.1185L974.752 86.9937C966.687 89.1583 958.193 89.1583 950.128 86.9937L730.752 28.1185C722.517 25.9084 713.844 25.9084 705.609 28.1185L486.233 86.9937C478.168 89.1583 469.674 89.1583 461.609 86.9937L242.233 28.1185C233.998 25.9084 225.326 25.9084 217.091 28.1185L-14.7271 90.3328L-14.4678 91.2986L217.35 29.0844ZM241.974 58.2196C233.909 56.0551 225.415 56.0551 217.35 58.2196L-14.4678 120.434L-14.7271 119.468L217.091 57.2538C225.326 55.0437 233.998 55.0437 242.233 57.2538L461.609 116.129C469.674 118.294 478.168 118.294 486.233 116.129L705.609 57.2538C713.844 55.0437 722.517 55.0437 730.752 57.2538L950.128 116.129C958.193 118.294 966.687 118.294 974.752 116.129L1194.13 57.2538C1202.36 55.0437 1211.04 55.0437 1219.27 57.2538L1451.09 119.468L1450.83 120.434L1219.01 58.2196C1210.95 56.0551 1202.45 56.0551 1194.39 58.2196L975.011 117.095C966.776 119.305 958.104 119.305 949.868 117.095L730.493 58.2196C722.427 56.0551 713.934 56.0551 705.868 58.2196L486.493 117.095C478.257 119.305 469.585 119.305 461.35 117.095L241.974 58.2196ZM217.35 83.7137C225.415 81.5492 233.909 81.5492 241.974 83.7138L461.35 142.589C469.585 144.799 478.257 144.799 486.493 142.589L705.868 83.7137C713.934 81.5492 722.427 81.5492 730.493 83.7138L949.868 142.589C958.104 144.799 966.776 144.799 975.011 142.589L1194.39 83.7137C1202.45 81.5492 1210.95 81.5492 1219.01 83.7138L1450.83 145.928L1451.09 144.962L1219.27 82.7479C1211.04 80.5378 1202.36 80.5378 1194.13 82.7479L974.752 141.623C966.687 143.788 958.193 143.788 950.128 141.623L730.752 82.7479C722.517 80.5378 713.844 80.5378 705.609 82.7479L486.233 141.623C478.168 143.788 469.674 143.788 461.609 141.623L242.233 82.7479C233.998 80.5378 225.326 80.5378 217.091 82.7479L-14.7271 144.962L-14.4678 145.928L217.35 83.7137ZM241.974 221.566C233.909 219.401 225.415 219.401 217.35 221.566L-14.4678 283.78L-14.7271 282.814L217.091 220.6C225.326 218.39 233.998 218.39 242.233 220.6L461.609 279.475C469.674 281.64 478.168 281.64 486.233 279.475L705.609 220.6C713.844 218.39 722.517 218.39 730.752 220.6L950.128 279.475C958.193 281.64 966.687 281.64 974.752 279.475L1194.13 220.6C1202.36 218.39 1211.04 218.39 1219.27 220.6L1451.09 282.814L1450.83 283.78L1219.01 221.566C1210.95 219.401 1202.45 219.401 1194.39 221.566L975.011 280.441C966.776 282.651 958.104 282.651 949.868 280.441L730.493 221.566C722.427 219.401 713.934 219.401 705.868 221.566L486.493 280.441C478.257 282.651 469.585 282.651 461.35 280.441L241.974 221.566ZM217.35 247.057C225.415 244.892 233.909 244.892 241.974 247.057L461.35 305.932C469.585 308.142 478.257 308.142 486.493 305.932L705.868 247.057C713.934 244.892 722.427 244.892 730.493 247.057L949.868 305.932C958.104 308.142 966.776 308.142 975.011 305.932L1194.39 247.057C1202.45 244.892 1210.95 244.892 1219.01 247.057L1450.83 309.271L1451.09 308.305L1219.27 246.091C1211.04 243.881 1202.36 243.881 1194.13 246.091L974.752 304.966C966.687 307.131 958.193 307.131 950.128 304.966L730.752 246.091C722.517 243.881 713.844 243.881 705.609 246.091L486.233 304.966C478.168 307.131 469.674 307.131 461.609 304.966L242.233 246.091C233.998 243.881 225.326 243.881 217.091 246.091L-14.7271 308.305L-14.4678 309.271L217.35 247.057ZM241.974 276.192C233.909 274.027 225.415 274.027 217.35 276.192L-14.4678 338.406L-14.7271 337.44L217.091 275.226C225.326 273.016 233.998 273.016 242.233 275.226L461.609 334.101C469.674 336.266 478.168 336.266 486.233 334.101L705.609 275.226C713.844 273.016 722.517 273.016 730.752 275.226L950.128 334.101C958.193 336.266 966.687 336.266 974.752 334.101L1194.13 275.226C1202.36 273.016 1211.04 273.016 1219.27 275.226L1451.09 337.44L1450.83 338.406L1219.01 276.192C1210.95 274.027 1202.45 274.027 1194.39 276.192L975.011 335.067C966.776 337.277 958.104 337.277 949.868 335.067L730.493 276.192C722.427 274.027 713.934 274.027 705.868 276.192L486.493 335.067C478.257 337.277 469.585 337.277 461.35 335.067L241.974 276.192ZM217.35 301.686C225.415 299.522 233.909 299.522 241.974 301.686L461.35 360.562C469.585 362.772 478.257 362.772 486.493 360.562L705.868 301.686C713.934 299.522 722.427 299.522 730.493 301.686L949.868 360.562C958.104 362.772 966.776 362.772 975.011 360.562L1194.39 301.686C1202.45 299.522 1210.95 299.522 1219.01 301.686L1450.83 363.901L1451.09 362.935L1219.27 300.721C1211.04 298.51 1202.36 298.51 1194.13 300.721L974.752 359.596C966.687 361.76 958.193 361.76 950.128 359.596L730.752 300.721C722.517 298.51 713.844 298.51 705.609 300.721L486.233 359.596C478.168 361.76 469.674 361.76 461.609 359.596L242.233 300.721C233.998 298.51 225.326 298.51 217.091 300.721L-14.7271 362.935L-14.4678 363.901L217.35 301.686ZM241.974 113.358C233.909 111.193 225.415 111.193 217.35 113.358L-14.4678 175.572L-14.7271 174.606L217.091 112.392C225.326 110.182 233.998 110.182 242.233 112.392L461.609 171.267C469.674 173.432 478.168 173.432 486.233 171.267L705.609 112.392C713.844 110.182 722.517 110.182 730.752 112.392L950.128 171.267C958.193 173.432 966.687 173.432 974.752 171.267L1194.13 112.392C1202.36 110.182 1211.04 110.182 1219.27 112.392L1451.09 174.606L1450.83 175.572L1219.01 113.358C1210.95 111.193 1202.45 111.193 1194.39 113.358L975.011 172.233C966.776 174.443 958.104 174.443 949.868 172.233L730.493 113.358C722.427 111.193 713.934 111.193 705.868 113.358L486.493 172.233C478.257 174.443 469.585 174.443 461.35 172.233L241.974 113.358ZM217.35 138.849C225.415 136.684 233.909 136.684 241.974 138.849L461.35 197.724C469.585 199.934 478.257 199.934 486.493 197.724L705.868 138.849C713.934 136.684 722.427 136.684 730.493 138.849L949.868 197.724C958.104 199.934 966.776 199.934 975.011 197.724L1194.39 138.849C1202.45 136.684 1210.95 136.684 1219.01 138.849L1450.83 201.063L1451.09 200.097L1219.27 137.883C1211.04 135.673 1202.36 135.673 1194.13 137.883L974.752 196.758C966.687 198.923 958.193 198.923 950.128 196.758L730.752 137.883C722.517 135.673 713.844 135.673 705.609 137.883L486.233 196.758C478.168 198.923 469.674 198.923 461.609 196.758L242.233 137.883C233.998 135.673 225.326 135.673 217.091 137.883L-14.7271 200.097L-14.4678 201.063L217.35 138.849ZM241.974 167.984C233.909 165.819 225.415 165.819 217.35 167.984L-14.4678 230.198L-14.7271 229.232L217.091 167.018C225.326 164.808 233.998 164.808 242.233 167.018L461.609 225.893C469.674 228.058 478.168 228.058 486.233 225.893L705.609 167.018C713.844 164.808 722.517 164.808 730.752 167.018L950.128 225.893C958.193 228.058 966.687 228.058 974.752 225.893L1194.13 167.018C1202.36 164.808 1211.04 164.808 1219.27 167.018L1451.09 229.232L1450.83 230.198L1219.01 167.984C1210.95 165.819 1202.45 165.819 1194.39 167.984L975.011 226.859C966.776 229.069 958.104 229.069 949.868 226.859L730.493 167.984C722.427 165.819 713.934 165.819 705.868 167.984L486.493 226.859C478.257 229.069 469.585 229.069 461.35 226.859L241.974 167.984ZM217.35 193.478C225.415 191.314 233.909 191.314 241.974 193.478L461.35 252.354C469.585 254.564 478.257 254.564 486.493 252.354L705.868 193.478C713.934 191.314 722.427 191.314 730.493 193.478L949.868 252.354C958.104 254.564 966.776 254.564 975.011 252.354L1194.39 193.478C1202.45 191.314 1210.95 191.314 1219.01 193.478L1450.83 255.693L1451.09 254.727L1219.27 192.513C1211.04 190.302 1202.36 190.302 1194.13 192.513L974.752 251.388C966.687 253.552 958.193 253.552 950.128 251.388L730.752 192.513C722.517 190.302 713.844 190.302 705.609 192.513L486.233 251.388C478.168 253.552 469.674 253.552 461.609 251.388L242.233 192.513C233.998 190.302 225.326 190.302 217.091 192.513L-14.7271 254.727L-14.4678 255.693L217.35 193.478ZM241.974 331.33C233.909 329.165 225.415 329.165 217.35 331.33L-14.4678 393.544L-14.7271 392.578L217.091 330.364C225.326 328.154 233.998 328.154 242.233 330.364L461.609 389.239C469.674 391.404 478.168 391.404 486.233 389.239L705.609 330.364C713.844 328.154 722.517 328.154 730.752 330.364L950.128 389.239C958.193 391.404 966.687 391.404 974.752 389.239L1194.13 330.364C1202.36 328.154 1211.04 328.154 1219.27 330.364L1451.09 392.578L1450.83 393.544L1219.01 331.33C1210.95 329.165 1202.45 329.165 1194.39 331.33L975.011 390.205C966.776 392.415 958.104 392.415 949.868 390.205L730.493 331.33C722.427 329.165 713.934 329.165 705.868 331.33L486.493 390.205C478.257 392.415 469.585 392.415 461.35 390.205L241.974 331.33ZM217.35 356.822C225.415 354.657 233.909 354.657 241.974 356.822L461.35 415.697C469.585 417.907 478.257 417.907 486.493 415.697L705.868 356.822C713.934 354.657 722.427 354.657 730.493 356.822L949.868 415.697C958.104 417.907 966.776 417.907 975.011 415.697L1194.39 356.822C1202.45 354.657 1210.95 354.657 1219.01 356.822L1450.83 419.036L1451.09 418.07L1219.27 355.856C1211.04 353.646 1202.36 353.646 1194.13 355.856L974.752 414.731C966.687 416.896 958.193 416.896 950.128 414.731L730.752 355.856C722.517 353.646 713.844 353.646 705.609 355.856L486.233 414.731C478.168 416.896 469.674 416.896 461.609 414.731L242.233 355.856C233.998 353.646 225.326 353.646 217.091 355.856L-14.7271 418.07L-14.4678 419.036L217.35 356.822ZM241.974 385.956C233.909 383.792 225.415 383.792 217.35 385.956L-14.4678 448.171L-14.7271 447.205L217.091 384.991C225.326 382.78 233.998 382.78 242.233 384.991L461.609 443.866C469.674 446.03 478.168 446.03 486.233 443.866L705.609 384.991C713.844 382.78 722.517 382.78 730.752 384.991L950.128 443.866C958.193 446.03 966.687 446.03 974.752 443.866L1194.13 384.991C1202.36 382.78 1211.04 382.78 1219.27 384.991L1451.09 447.205L1450.83 448.171L1219.01 385.956C1210.95 383.792 1202.45 383.792 1194.39 385.956L975.011 444.832C966.776 447.042 958.104 447.042 949.868 444.832L730.493 385.956C722.427 383.792 713.934 383.792 705.868 385.956L486.493 444.832C478.257 447.042 469.585 447.042 461.35 444.832L241.974 385.956ZM217.35 411.451C225.415 409.286 233.909 409.286 241.974 411.451L461.35 470.326C469.585 472.536 478.257 472.536 486.493 470.326L705.868 411.451C713.934 409.286 722.427 409.286 730.493 411.451L949.868 470.326C958.104 472.536 966.776 472.536 975.011 470.326L1194.39 411.451C1202.45 409.286 1210.95 409.286 1219.01 411.451L1450.83 473.665L1451.09 472.699L1219.27 410.485C1211.04 408.275 1202.36 408.275 1194.13 410.485L974.752 469.36C966.687 471.524 958.193 471.524 950.128 469.36L730.752 410.485C722.517 408.275 713.844 408.275 705.609 410.485L486.233 469.36C478.168 471.524 469.674 471.524 461.609 469.36L242.233 410.485C233.998 408.275 225.326 408.275 217.091 410.485L-14.7271 472.699L-14.4678 473.665L217.35 411.451Z" fill="url(#paint0_linear_169_1784)"/>
<defs>
<linearGradient id="paint0_linear_169_1784" x1="718.181" y1="391.33" x2="718.192" y2="0.96976" gradientUnits="userSpaceOnUse">
<stop stop-color="#38ACDD"/>
<stop offset="1" stop-color="#38ACDD" stop-opacity="0"/>
</linearGradient>
</defs>
</svg>
