<svg width="100%" height="100%" viewBox="0 0 1440 319" preserveAspectRatio="xMidYMid slice" fill="none" xmlns="http://www.w3.org/2000/svg">
<mask id="mask0_576_224" style="mask-type:luminance" maskUnits="userSpaceOnUse" x="0" y="0" width="1440" height="319">
<path d="M1440 0H0V319H1440V0Z" fill="white"/>
</mask>
<g mask="url(#mask0_576_224)">
<mask id="mask1_576_224" style="mask-type:luminance" maskUnits="userSpaceOnUse" x="0" y="0" width="1440" height="319">
<path d="M1440 0H0V319H1440V0Z" fill="white"/>
</mask>
<g mask="url(#mask1_576_224)">
<path fill-rule="evenodd" clip-rule="evenodd" d="M217.351 3.60975C225.416 1.44519 233.909 1.44519 241.975 3.60975L461.351 62.4849C469.586 64.695 478.258 64.695 486.493 62.4849L705.869 3.60975C713.935 1.44519 722.428 1.44519 730.493 3.60975L949.869 62.4849C958.104 64.695 966.777 64.695 975.012 62.4849L1194.39 3.60975C1202.45 1.44519 1210.95 1.44519 1219.01 3.60975L1450.83 65.824L1451.09 64.8582L1219.27 2.64392C1211.04 0.433797 1202.36 0.433797 1194.13 2.64392L974.753 61.5191C966.687 63.6836 958.194 63.6836 950.128 61.5191L730.753 2.64392C722.517 0.433797 713.845 0.433797 705.61 2.64392L486.234 61.5191C478.169 63.6836 469.675 63.6836 461.61 61.5191L242.234 2.64392C233.999 0.433797 225.327 0.433797 217.091 2.64392L-14.7266 64.8582L-14.4674 65.824L217.351 3.60975ZM217.351 29.101C225.416 26.9364 233.909 26.9364 241.975 29.101L461.351 87.9761C469.586 90.1862 478.258 90.1862 486.493 87.9761L705.869 29.101C713.935 26.9364 722.428 26.9364 730.493 29.101L949.869 87.9761C958.104 90.1862 966.777 90.1862 975.012 87.9761L1194.39 29.101C1202.45 26.9364 1210.95 26.9364 1219.01 29.101L1450.83 91.3152L1451.09 90.3494L1219.27 28.1351C1211.04 25.925 1202.36 25.925 1194.13 28.1351L974.753 87.0103C966.687 89.1749 958.194 89.1749 950.128 87.0103L730.753 28.1351C722.517 25.925 713.845 25.925 705.61 28.1351L486.234 87.0103C478.169 89.1749 469.675 89.1749 461.61 87.0103L242.234 28.1351C233.999 25.925 225.327 25.925 217.091 28.1351L-14.7266 90.3494L-14.4674 91.3152L217.351 29.101ZM241.975 58.2362C233.909 56.0717 225.416 56.0717 217.351 58.2362L-14.4674 120.45L-14.7266 119.485L217.091 57.2704C225.327 55.0603 233.999 55.0603 242.234 57.2704L461.61 116.146C469.675 118.31 478.169 118.31 486.234 116.146L705.61 57.2704C713.845 55.0603 722.517 55.0603 730.753 57.2704L950.128 116.146C958.194 118.31 966.687 118.31 974.753 116.146L1194.13 57.2704C1202.36 55.0603 1211.04 55.0603 1219.27 57.2704L1451.09 119.485L1450.83 120.45L1219.01 58.2362C1210.95 56.0717 1202.45 56.0717 1194.39 58.2362L975.012 117.111C966.777 119.322 958.104 119.322 949.869 117.111L730.493 58.2362C722.428 56.0717 713.935 56.0717 705.869 58.2362L486.493 117.111C478.258 119.322 469.586 119.322 461.351 117.111L241.975 58.2362ZM217.351 83.7303C225.416 81.5658 233.909 81.5658 241.975 83.7304L461.351 142.605C469.586 144.816 478.258 144.816 486.493 142.605L705.869 83.7303C713.935 81.5658 722.428 81.5658 730.493 83.7304L949.869 142.605C958.104 144.816 966.777 144.816 975.012 142.605L1194.39 83.7303C1202.45 81.5658 1210.95 81.5658 1219.01 83.7304L1450.83 145.945L1451.09 144.979L1219.27 82.7645C1211.04 80.5544 1202.36 80.5544 1194.13 82.7645L974.753 141.64C966.687 143.804 958.194 143.804 950.128 141.64L730.753 82.7645C722.517 80.5544 713.845 80.5544 705.61 82.7645L486.234 141.64C478.169 143.804 469.675 143.804 461.61 141.64L242.234 82.7645C233.999 80.5544 225.327 80.5544 217.091 82.7645L-14.7266 144.979L-14.4674 145.945L217.351 83.7303ZM241.975 221.582C233.909 219.418 225.416 219.418 217.351 221.582L-14.4674 283.797L-14.7266 282.831L217.091 220.617C225.327 218.406 233.999 218.406 242.234 220.617L461.61 279.492C469.675 281.656 478.169 281.656 486.234 279.492L705.61 220.617C713.845 218.406 722.517 218.406 730.753 220.617L950.128 279.492C958.194 281.656 966.687 281.656 974.753 279.492L1194.13 220.617C1202.36 218.406 1211.04 218.406 1219.27 220.617L1451.09 282.831L1450.83 283.797L1219.01 221.582C1210.95 219.418 1202.45 219.418 1194.39 221.582L975.012 280.458C966.777 282.668 958.104 282.668 949.869 280.458L730.493 221.582C722.428 219.418 713.935 219.418 705.869 221.582L486.493 280.458C478.258 282.668 469.586 282.668 461.351 280.458L241.975 221.582ZM217.351 247.074C225.416 244.909 233.909 244.909 241.975 247.074L461.351 305.949C469.586 308.159 478.258 308.159 486.493 305.949L705.869 247.074C713.935 244.909 722.428 244.909 730.493 247.074L949.869 305.949C958.104 308.159 966.777 308.159 975.012 305.949L1194.39 247.074C1202.45 244.909 1210.95 244.909 1219.01 247.074L1450.83 309.288L1451.09 308.322L1219.27 246.108C1211.04 243.898 1202.36 243.898 1194.13 246.108L974.753 304.983C966.687 307.148 958.194 307.148 950.128 304.983L730.753 246.108C722.517 243.898 713.845 243.898 705.61 246.108L486.234 304.983C478.169 307.148 469.675 307.148 461.61 304.983L242.234 246.108C233.999 243.898 225.327 243.898 217.091 246.108L-14.7266 308.322L-14.4674 309.288L217.351 247.074ZM241.975 276.208C233.909 274.044 225.416 274.044 217.351 276.208L-14.4674 338.423L-14.7266 337.457L217.091 275.243C225.327 273.032 233.999 273.032 242.234 275.243L461.61 334.118C469.675 336.282 478.169 336.282 486.234 334.118L705.61 275.243C713.845 273.032 722.517 273.032 730.753 275.243L950.128 334.118C958.194 336.282 966.687 336.282 974.753 334.118L1194.13 275.243C1202.36 273.032 1211.04 273.032 1219.27 275.243L1451.09 337.457L1450.83 338.423L1219.01 276.208C1210.95 274.044 1202.45 274.044 1194.39 276.208L975.012 335.084C966.777 337.294 958.104 337.294 949.869 335.084L730.493 276.208C722.428 274.044 713.935 274.044 705.869 276.208L486.493 335.084C478.258 337.294 469.586 337.294 461.351 335.084L241.975 276.208ZM217.351 301.703C225.416 299.538 233.909 299.538 241.975 301.703L461.351 360.578C469.586 362.788 478.258 362.788 486.493 360.578L705.869 301.703C713.935 299.538 722.428 299.538 730.493 301.703L949.869 360.578C958.104 362.788 966.777 362.788 975.012 360.578L1194.39 301.703C1202.45 299.538 1210.95 299.538 1219.01 301.703L1450.83 363.917L1451.09 362.951L1219.27 300.737C1211.04 298.527 1202.36 298.527 1194.13 300.737L974.753 359.612C966.687 361.777 958.194 361.777 950.128 359.612L730.753 300.737C722.517 298.527 713.845 298.527 705.61 300.737L486.234 359.612C478.169 361.777 469.675 361.777 461.61 359.612L242.234 300.737C233.999 298.527 225.327 298.527 217.091 300.737L-14.7266 362.951L-14.4674 363.917L217.351 301.703ZM241.975 113.374C233.909 111.21 225.416 111.21 217.351 113.374L-14.4674 175.589L-14.7266 174.623L217.091 112.409C225.327 110.198 233.999 110.198 242.234 112.409L461.61 171.284C469.675 173.448 478.169 173.448 486.234 171.284L705.61 112.409C713.845 110.198 722.517 110.198 730.753 112.409L950.128 171.284C958.194 173.448 966.687 173.448 974.753 171.284L1194.13 112.409C1202.36 110.198 1211.04 110.198 1219.27 112.409L1451.09 174.623L1450.83 175.589L1219.01 113.374C1210.95 111.21 1202.45 111.21 1194.39 113.374L975.012 172.25C966.777 174.46 958.104 174.46 949.869 172.25L730.493 113.374C722.428 111.21 713.935 111.21 705.869 113.374L486.493 172.25C478.258 174.46 469.586 174.46 461.351 172.25L241.975 113.374ZM217.351 138.866C225.416 136.701 233.909 136.701 241.975 138.866L461.351 197.741C469.586 199.951 478.258 199.951 486.493 197.741L705.869 138.866C713.935 136.701 722.428 136.701 730.493 138.866L949.869 197.741C958.104 199.951 966.777 199.951 975.012 197.741L1194.39 138.866C1202.45 136.701 1210.95 136.701 1219.01 138.866L1450.83 201.08L1451.09 200.114L1219.27 137.9C1211.04 135.69 1202.36 135.69 1194.13 137.9L974.753 196.775C966.687 198.939 958.194 198.939 950.128 196.775L730.753 137.9C722.517 135.69 713.845 135.69 705.61 137.9L486.234 196.775C478.169 198.939 469.675 198.939 461.61 196.775L242.234 137.9C233.999 135.69 225.327 135.69 217.091 137.9L-14.7266 200.114L-14.4674 201.08L217.351 138.866ZM241.975 168C233.909 165.836 225.416 165.836 217.351 168L-14.4674 230.215L-14.7266 229.249L217.091 167.035C225.327 164.824 233.999 164.824 242.234 167.035L461.61 225.91C469.675 228.074 478.169 228.074 486.234 225.91L705.61 167.035C713.845 164.824 722.517 164.824 730.753 167.035L950.128 225.91C958.194 228.074 966.687 228.074 974.753 225.91L1194.13 167.035C1202.36 164.824 1211.04 164.824 1219.27 167.035L1451.09 229.249L1450.83 230.215L1219.01 168C1210.95 165.836 1202.45 165.836 1194.39 168L975.012 226.876C966.777 229.086 958.104 229.086 949.869 226.876L730.493 168C722.428 165.836 713.935 165.836 705.869 168L486.493 226.876C478.258 229.086 469.586 229.086 461.351 226.876L241.975 168ZM217.351 193.495C225.416 191.33 233.909 191.33 241.975 193.495L461.351 252.37C469.586 254.58 478.258 254.58 486.493 252.37L705.869 193.495C713.935 191.33 722.428 191.33 730.493 193.495L949.869 252.37C958.104 254.58 966.777 254.58 975.012 252.37L1194.39 193.495C1202.45 191.33 1210.95 191.33 1219.01 193.495L1450.83 255.709L1451.09 254.743L1219.27 192.529C1211.04 190.319 1202.36 190.319 1194.13 192.529L974.753 251.404C966.687 253.569 958.194 253.569 950.128 251.404L730.753 192.529C722.517 190.319 713.845 190.319 705.61 192.529L486.234 251.404C478.169 253.569 469.675 253.569 461.61 251.404L242.234 192.529C233.999 190.319 225.327 190.319 217.091 192.529L-14.7266 254.743L-14.4674 255.709L217.351 193.495ZM241.975 331.347C233.909 329.182 225.416 329.182 217.351 331.347L-14.4674 393.561L-14.7266 392.595L217.091 330.381C225.327 328.171 233.999 328.171 242.234 330.381L461.61 389.256C469.675 391.42 478.169 391.42 486.234 389.256L705.61 330.381C713.845 328.171 722.517 328.171 730.753 330.381L950.128 389.256C958.194 391.42 966.687 391.42 974.753 389.256L1194.13 330.381C1202.36 328.171 1211.04 328.171 1219.27 330.381L1451.09 392.595L1450.83 393.561L1219.01 331.347C1210.95 329.182 1202.45 329.182 1194.39 331.347L975.012 390.222C966.777 392.432 958.104 392.432 949.869 390.222L730.493 331.347C722.428 329.182 713.935 329.182 705.869 331.347L486.493 390.222C478.258 392.432 469.586 392.432 461.351 390.222L241.975 331.347ZM217.351 356.838C225.416 354.674 233.909 354.674 241.975 356.838L461.351 415.713C469.586 417.924 478.258 417.924 486.493 415.713L705.869 356.838C713.935 354.674 722.428 354.674 730.493 356.838L949.869 415.713C958.104 417.924 966.777 417.924 975.012 415.713L1194.39 356.838C1202.45 354.674 1210.95 354.674 1219.01 356.838L1450.83 419.052L1451.09 418.087L1219.27 355.872C1211.04 353.662 1202.36 353.662 1194.13 355.872L974.753 414.748C966.687 416.912 958.194 416.912 950.128 414.748L730.753 355.872C722.517 353.662 713.845 353.662 705.61 355.872L486.234 414.748C478.169 416.912 469.675 416.912 461.61 414.748L242.234 355.872C233.999 353.662 225.327 353.662 217.091 355.872L-14.7266 418.087L-14.4674 419.052L217.351 356.838ZM241.975 385.973C233.909 383.808 225.416 383.808 217.351 385.973L-14.4674 448.187L-14.7266 447.221L217.091 385.007C225.327 382.797 233.999 382.797 242.234 385.007L461.61 443.882C469.675 446.047 478.169 446.047 486.234 443.882L705.61 385.007C713.845 382.797 722.517 382.797 730.753 385.007L950.128 443.882C958.194 446.047 966.687 446.047 974.753 443.882L1194.13 385.007C1202.36 382.797 1211.04 382.797 1219.27 385.007L1451.09 447.221L1450.83 448.187L1219.01 385.973C1210.95 383.808 1202.45 383.808 1194.39 385.973L975.012 444.848C966.777 447.058 958.104 447.058 949.869 444.848L730.493 385.973C722.428 383.808 713.935 383.808 705.869 385.973L486.493 444.848C478.258 447.058 469.586 447.058 461.351 444.848L241.975 385.973ZM217.351 411.467C225.416 409.303 233.909 409.303 241.975 411.467L461.351 470.342C469.586 472.552 478.258 472.552 486.493 470.342L705.869 411.467C713.935 409.303 722.428 409.303 730.493 411.467L949.869 470.342C958.104 472.552 966.777 472.552 975.012 470.342L1194.39 411.467C1202.45 409.303 1210.95 409.303 1219.01 411.467L1450.83 473.681L1451.09 472.716L1219.27 410.501C1211.04 408.291 1202.36 408.291 1194.13 410.501L974.753 469.377C966.687 471.541 958.194 471.541 950.128 469.377L730.753 410.501C722.517 408.291 713.845 408.291 705.61 410.501L486.234 469.377C478.169 471.541 469.675 471.541 461.61 469.377L242.234 410.501C233.999 408.291 225.327 408.291 217.091 410.501L-14.7266 472.716L-14.4674 473.681L217.351 411.467Z" fill="url(#paint0_linear_576_224)"/>
</g>
</g>
<defs>
<linearGradient id="paint0_linear_576_224" x1="718" y1="784.5" x2="718" y2="1.00006" gradientUnits="userSpaceOnUse">
<stop stop-color="#FBC6CF"/>
<stop offset="0.14125" stop-color="#FBC6CF" stop-opacity="0.37"/>
<stop offset="1" stop-color="#FBC6CF" stop-opacity="0"/>
</linearGradient>
</defs>
</svg>
