<svg width="1102" height="486" viewBox="0 0 1102 486" fill="none" xmlns="http://www.w3.org/2000/svg">
<rect x="1" y="0.820801" width="580" height="420" rx="32" fill="#020220" fill-opacity="0.75"/>
<rect x="1" y="0.820801" width="580" height="420" rx="32" stroke="url(#paint0_linear_169_1926)"/>
<rect x="33" y="32.8208" width="516" height="356" rx="16" fill="#001A72" fill-opacity="0.75"/>
<rect x="261" y="32.8208" width="580" height="420" rx="32" fill="#020220" fill-opacity="0.75"/>
<rect x="261" y="32.8208" width="580" height="420" rx="32" stroke="url(#paint1_linear_169_1926)"/>
<rect x="293" y="372.821" width="516" height="48" rx="16" fill="#001A72" fill-opacity="0.75"/>
<rect x="521" y="64.8208" width="580" height="420" rx="32" fill="#020220" fill-opacity="0.75"/>
<rect x="521" y="64.8208" width="580" height="420" rx="32" stroke="url(#paint2_linear_169_1926)"/>
<rect x="989" y="96.8208" width="80" height="80" rx="16" fill="#001A72" fill-opacity="0.75"/>
<rect x="989" y="192.821" width="80" height="80" rx="16" fill="#001A72" fill-opacity="0.75"/>
<rect x="989" y="288.821" width="80" height="80" rx="16" fill="#001A72" fill-opacity="0.75"/>
<defs>
<linearGradient id="paint0_linear_169_1926" x1="291" y1="0.820801" x2="291" y2="420.821" gradientUnits="userSpaceOnUse">
<stop stop-color="#38ACDD"/>
<stop offset="1" stop-color="#001A72"/>
</linearGradient>
<linearGradient id="paint1_linear_169_1926" x1="551" y1="32.8208" x2="551" y2="452.821" gradientUnits="userSpaceOnUse">
<stop stop-color="#38ACDD"/>
<stop offset="1" stop-color="#001A72"/>
</linearGradient>
<linearGradient id="paint2_linear_169_1926" x1="811" y1="64.8208" x2="811" y2="484.821" gradientUnits="userSpaceOnUse">
<stop stop-color="#38ACDD"/>
<stop offset="1" stop-color="#001A72"/>
</linearGradient>
</defs>
</svg>
