<svg width="455" height="358" viewBox="0 0 455 358" fill="none" xmlns="http://www.w3.org/2000/svg">
<path fill-rule="evenodd" clip-rule="evenodd" d="M49.5637 9.57792C65.5473 -1.11418 86.4007 -1.11419 102.384 9.57791L124.704 24.5082C141.024 35.4254 162.316 35.4254 178.636 24.5082L200.956 9.57792C216.939 -1.11418 237.793 -1.11419 253.776 9.57791L276.096 24.5082C292.416 35.4254 313.708 35.4254 330.028 24.5082L352.348 9.57792C368.331 -1.11418 389.185 -1.11419 405.168 9.57791L454.176 42.3611L454.732 41.5299L405.724 8.74673C389.404 -2.17046 368.112 -2.17046 351.792 8.74674L329.472 23.677C313.489 34.3691 292.635 34.3691 276.652 23.677L254.332 8.74673C238.012 -2.17046 216.72 -2.17046 200.4 8.74674L178.08 23.677C162.097 34.3691 141.243 34.3691 125.26 23.677L102.94 8.74673C86.6202 -2.17046 65.3278 -2.17046 49.0077 8.74674L0 41.5299L0.556007 42.3611L49.5637 9.57792ZM49.5637 29.2688C65.5473 18.5767 86.4007 18.5767 102.384 29.2688L124.704 44.1991C141.024 55.1163 162.316 55.1163 178.636 44.1991L200.956 29.2688C216.939 18.5767 237.793 18.5767 253.776 29.2688L276.096 44.1991C292.416 55.1163 313.708 55.1163 330.028 44.1991L352.348 29.2688C368.331 18.5767 389.185 18.5767 405.168 29.2688L454.176 62.052L454.732 61.2208L405.724 28.4377C389.404 17.5205 368.112 17.5205 351.792 28.4377L329.472 43.3679C313.489 54.06 292.635 54.06 276.652 43.3679L254.332 28.4377C238.012 17.5205 216.72 17.5205 200.4 28.4377L178.08 43.3679C162.097 54.06 141.243 54.06 125.26 43.3679L102.94 28.4377C86.6202 17.5205 65.3278 17.5205 49.0077 28.4377L0 61.2208L0.556007 62.052L49.5637 29.2688ZM102.384 51.7742C86.4007 41.0821 65.5473 41.0821 49.5637 51.7742L0.556007 84.5574L0 83.7262L49.0077 50.943C65.3278 40.0258 86.6202 40.0258 102.94 50.943L125.26 65.8733C141.243 76.5654 162.097 76.5654 178.08 65.8733L200.4 50.943C216.72 40.0258 238.012 40.0258 254.332 50.943L276.652 65.8733C292.635 76.5654 313.489 76.5654 329.472 65.8733L351.792 50.943C368.112 40.0258 389.404 40.0258 405.724 50.943L454.732 83.7262L454.176 84.5574L405.168 51.7742C389.185 41.0821 368.331 41.0821 352.348 51.7742L330.028 66.7045C313.708 77.6217 292.416 77.6217 276.096 66.7045L253.776 51.7742C237.793 41.0821 216.939 41.0821 200.956 51.7742L178.636 66.7045C162.316 77.6217 141.024 77.6217 124.704 66.7045L102.384 51.7742ZM49.5637 71.4676C65.5473 60.7755 86.4007 60.7755 102.384 71.4676L124.704 86.3978C141.024 97.315 162.316 97.315 178.636 86.3978L200.956 71.4676C216.939 60.7755 237.793 60.7755 253.776 71.4676L276.096 86.3978C292.416 97.315 313.708 97.315 330.028 86.3978L352.348 71.4676C368.331 60.7755 389.185 60.7755 405.168 71.4676L454.176 104.251L454.732 103.42L405.724 70.6364C389.404 59.7192 368.112 59.7192 351.792 70.6364L329.472 85.5667C313.489 96.2588 292.635 96.2588 276.652 85.5667L254.332 70.6364C238.012 59.7192 216.72 59.7192 200.4 70.6364L178.08 85.5667C162.097 96.2588 141.243 96.2588 125.26 85.5667L102.94 70.6364C86.6202 59.7192 65.3278 59.7192 49.0077 70.6364L0 103.42L0.556007 104.251L49.5637 71.4676ZM102.384 177.949C86.4007 167.257 65.5473 167.257 49.5637 177.949L0.556007 210.732L0 209.901L49.0077 177.118C65.3278 166.201 86.6202 166.201 102.94 177.118L125.26 192.048C141.243 202.74 162.097 202.74 178.08 192.048L200.4 177.118C216.72 166.201 238.012 166.201 254.332 177.118L276.652 192.048C292.635 202.74 313.489 202.74 329.472 192.048L351.792 177.118C368.112 166.201 389.404 166.201 405.724 177.118L454.732 209.901L454.176 210.732L405.168 177.949C389.185 167.257 368.331 167.257 352.348 177.949L330.028 192.879C313.708 203.796 292.416 203.796 276.096 192.879L253.776 177.949C237.793 167.257 216.939 167.257 200.956 177.949L178.636 192.879C162.316 203.796 141.024 203.796 124.704 192.879L102.384 177.949ZM49.5637 197.639C65.5473 186.947 86.4007 186.947 102.384 197.639L124.704 212.57C141.024 223.487 162.316 223.487 178.636 212.57L200.956 197.639C216.939 186.947 237.793 186.947 253.776 197.639L276.096 212.57C292.416 223.487 313.708 223.487 330.028 212.57L352.348 197.639C368.331 186.947 389.185 186.947 405.168 197.639L454.176 230.423L454.732 229.591L405.724 196.808C389.404 185.891 368.112 185.891 351.792 196.808L329.472 211.739C313.489 222.431 292.635 222.431 276.652 211.739L254.332 196.808C238.012 185.891 216.72 185.891 200.4 196.808L178.08 211.739C162.097 222.431 141.243 222.431 125.26 211.739L102.94 196.808C86.6202 185.891 65.3278 185.891 49.0077 196.808L0 229.591L0.556007 230.423L49.5637 197.639ZM102.384 220.145C86.4007 209.453 65.5473 209.453 49.5637 220.145L0.556007 252.928L0 252.097L49.0077 219.314C65.3278 208.397 86.6202 208.397 102.94 219.314L125.26 234.244C141.243 244.936 162.097 244.936 178.08 234.244L200.4 219.314C216.72 208.397 238.012 208.397 254.332 219.314L276.652 234.244C292.635 244.936 313.489 244.936 329.472 234.244L351.792 219.314C368.112 208.397 389.404 208.397 405.724 219.314L454.732 252.097L454.176 252.928L405.168 220.145C389.185 209.453 368.331 209.453 352.348 220.145L330.028 235.076C313.708 245.993 292.416 245.993 276.096 235.076L253.776 220.145C237.793 209.453 216.939 209.453 200.956 220.145L178.636 235.076C162.316 245.993 141.024 245.993 124.704 235.076L102.384 220.145ZM49.5637 239.839C65.5473 229.147 86.4007 229.147 102.384 239.839L124.704 254.769C141.024 265.686 162.316 265.686 178.636 254.769L200.956 239.839C216.939 229.147 237.793 229.147 253.776 239.839L276.096 254.769C292.416 265.686 313.708 265.686 330.028 254.769L352.348 239.839C368.331 229.147 389.185 229.147 405.168 239.839L454.176 272.622L454.732 271.791L405.724 239.007C389.404 228.09 368.112 228.09 351.792 239.007L329.472 253.938C313.489 264.63 292.635 264.63 276.652 253.938L254.332 239.007C238.012 228.09 216.72 228.09 200.4 239.007L178.08 253.938C162.097 264.63 141.243 264.63 125.26 253.938L102.94 239.007C86.6202 228.09 65.3278 228.09 49.0077 239.007L0 271.791L0.556007 272.622L49.5637 239.839ZM102.384 94.3655C86.4007 83.6734 65.5473 83.6734 49.5637 94.3655L0.556007 127.149L0 126.318L49.0077 93.5343C65.3278 82.6171 86.6202 82.6171 102.94 93.5343L125.26 108.465C141.243 119.157 162.097 119.157 178.08 108.465L200.4 93.5343C216.72 82.6171 238.012 82.6171 254.332 93.5343L276.652 108.465C292.635 119.157 313.489 119.157 329.472 108.465L351.792 93.5343C368.112 82.6171 389.404 82.6171 405.724 93.5343L454.732 126.318L454.176 127.149L405.168 94.3655C389.185 83.6734 368.331 83.6734 352.348 94.3655L330.028 109.296C313.708 120.213 292.416 120.213 276.096 109.296L253.776 94.3655C237.793 83.6734 216.939 83.6734 200.956 94.3655L178.636 109.296C162.316 120.213 141.024 120.213 124.704 109.296L102.384 94.3655ZM49.5637 114.056C65.5473 103.364 86.4007 103.364 102.384 114.056L124.704 128.986C141.024 139.903 162.316 139.903 178.636 128.986L200.956 114.056C216.939 103.364 237.793 103.364 253.776 114.056L276.096 128.986C292.416 139.903 313.708 139.903 330.028 128.986L352.348 114.056C368.331 103.364 389.185 103.364 405.168 114.056L454.176 146.839L454.732 146.008L405.724 113.225C389.404 102.308 368.112 102.308 351.792 113.225L329.472 128.155C313.489 138.847 292.635 138.847 276.652 128.155L254.332 113.225C238.012 102.308 216.72 102.308 200.4 113.225L178.08 128.155C162.097 138.847 141.243 138.847 125.26 128.155L102.94 113.225C86.6202 102.308 65.3278 102.308 49.0077 113.225L0 146.008L0.556007 146.839L49.5637 114.056ZM102.384 136.56C86.4007 125.868 65.5473 125.868 49.5637 136.56L0.556007 169.344L0 168.512L49.0077 135.729C65.3278 124.812 86.6202 124.812 102.94 135.729L125.26 150.659C141.243 161.352 162.097 161.352 178.08 150.659L200.4 135.729C216.72 124.812 238.012 124.812 254.332 135.729L276.652 150.659C292.635 161.352 313.489 161.352 329.472 150.659L351.792 135.729C368.112 124.812 389.404 124.812 405.724 135.729L454.732 168.512L454.176 169.344L405.168 136.56C389.185 125.868 368.331 125.868 352.348 136.56L330.028 151.491C313.708 162.408 292.416 162.408 276.096 151.491L253.776 136.56C237.793 125.868 216.939 125.868 200.956 136.56L178.636 151.491C162.316 162.408 141.024 162.408 124.704 151.491L102.384 136.56ZM49.5637 156.254C65.5473 145.562 86.4007 145.562 102.384 156.254L124.704 171.184C141.024 182.101 162.316 182.101 178.636 171.184L200.956 156.254C216.939 145.562 237.793 145.562 253.776 156.254L276.096 171.184C292.416 182.101 313.708 182.101 330.028 171.184L352.348 156.254C368.331 145.562 389.185 145.562 405.168 156.254L454.176 189.037L454.732 188.206L405.724 155.423C389.404 144.505 368.112 144.505 351.792 155.423L329.472 170.353C313.489 181.045 292.635 181.045 276.652 170.353L254.332 155.423C238.012 144.505 216.72 144.505 200.4 155.423L178.08 170.353C162.097 181.045 141.243 181.045 125.26 170.353L102.94 155.423C86.6202 144.505 65.3278 144.505 49.0077 155.423L0 188.206L0.556007 189.037L49.5637 156.254ZM102.384 262.737C86.4007 252.045 65.5473 252.045 49.5637 262.737L0.556007 295.52L0 294.689L49.0077 261.905C65.3278 250.988 86.6202 250.988 102.94 261.905L125.26 276.836C141.243 287.528 162.097 287.528 178.08 276.836L200.4 261.905C216.72 250.988 238.012 250.988 254.332 261.905L276.652 276.836C292.635 287.528 313.489 287.528 329.472 276.836L351.792 261.905C368.112 250.988 389.404 250.988 405.724 261.905L454.732 294.689L454.176 295.52L405.168 262.737C389.185 252.045 368.331 252.045 352.348 262.737L330.028 277.667C313.708 288.584 292.416 288.584 276.096 277.667L253.776 262.737C237.793 252.045 216.939 252.045 200.956 262.737L178.636 277.667C162.316 288.584 141.024 288.584 124.704 277.667L102.384 262.737ZM49.5637 282.427C65.5473 271.735 86.4007 271.735 102.384 282.427L124.704 297.357C141.024 308.274 162.316 308.275 178.636 297.357L200.956 282.427C216.939 271.735 237.793 271.735 253.776 282.427L276.096 297.357C292.416 308.274 313.708 308.275 330.028 297.357L352.348 282.427C368.331 271.735 389.185 271.735 405.168 282.427L454.176 315.21L454.732 314.379L405.724 281.596C389.404 270.679 368.112 270.679 351.792 281.596L329.472 296.526C313.489 307.218 292.635 307.218 276.652 296.526L254.332 281.596C238.012 270.679 216.72 270.679 200.4 281.596L178.08 296.526C162.097 307.218 141.243 307.218 125.26 296.526L102.94 281.596C86.6202 270.679 65.3278 270.679 49.0077 281.596L0 314.379L0.556007 315.21L49.5637 282.427ZM102.384 304.932C86.4007 294.24 65.5473 294.24 49.5637 304.932L0.556007 337.716L0 336.884L49.0077 304.101C65.3278 293.184 86.6202 293.184 102.94 304.101L125.26 319.031C141.243 329.724 162.097 329.724 178.08 319.031L200.4 304.101C216.72 293.184 238.012 293.184 254.332 304.101L276.652 319.031C292.635 329.724 313.489 329.724 329.472 319.031L351.792 304.101C368.112 293.184 389.404 293.184 405.724 304.101L454.732 336.884L454.176 337.716L405.168 304.932C389.185 294.24 368.331 294.24 352.348 304.932L330.028 319.863C313.708 330.78 292.416 330.78 276.096 319.863L253.776 304.932C237.793 294.24 216.939 294.24 200.956 304.932L178.636 319.863C162.316 330.78 141.024 330.78 124.704 319.863L102.384 304.932ZM49.5637 324.625C65.5473 313.933 86.4007 313.933 102.384 324.625L124.704 339.555C141.024 350.472 162.316 350.472 178.636 339.555L200.956 324.625C216.939 313.933 237.793 313.933 253.776 324.625L276.096 339.555C292.416 350.472 313.708 350.472 330.028 339.555L352.348 324.625C368.331 313.933 389.185 313.933 405.168 324.625L454.176 357.408L454.732 356.577L405.724 323.794C389.404 312.876 368.112 312.876 351.792 323.794L329.472 338.724C313.489 349.416 292.635 349.416 276.652 338.724L254.332 323.794C238.012 312.876 216.72 312.876 200.4 323.794L178.08 338.724C162.097 349.416 141.243 349.416 125.26 338.724L102.94 323.794C86.6202 312.876 65.3278 312.876 49.0077 323.794L0 356.577L0.556007 357.408L49.5637 324.625Z" fill="url(#paint0_linear_169_1875)"/>
<defs>
<linearGradient id="paint0_linear_169_1875" x1="0" y1="357.408" x2="448.673" y2="-6.90321" gradientUnits="userSpaceOnUse">
<stop stop-color="#38ACDD"/>
<stop offset="1" stop-color="#38ACDD" stop-opacity="0"/>
</linearGradient>
</defs>
</svg>
