<svg width="100%" height="100%" viewBox="0 0 1572 1467" fill="none" xmlns="http://www.w3.org/2000/svg">
<g opacity="0.8">
<g filter="url(#filter0_f_439_330)">
<path d="M695.379 878.345C589.5 905.354 532.586 969.869 425.071 950.519C176.128 905.72 208.328 433.379 425.071 303.01C555.459 224.57 675.267 242.218 814.778 303.01C950.891 362.322 1003.64 414.161 1078.93 542.105C1106.3 588.626 1138.35 675.922 1121.35 738.446C1101.98 809.754 1046.68 842.861 974.224 857.479C899.625 872.528 826.764 844.823 695.379 878.345Z" fill="#F24664"/>
</g>
<g filter="url(#filter1_f_439_330)">
<path d="M631.592 814.096C540.893 837.241 492.131 892.526 400.001 875.943C186.734 837.553 214.335 432.784 400.001 321.065C511.733 253.844 614.367 268.967 733.894 321.065C850.507 371.892 895.69 416.313 960.169 525.957C983.629 565.821 1011.08 640.63 996.535 694.207C979.924 755.315 932.568 783.687 870.492 796.214C806.575 809.112 744.142 785.369 631.592 814.096Z" fill="#F24664" fill-opacity="0.75"/>
</g>
<g filter="url(#filter2_f_439_330)">
<path d="M941.986 462.653C774.817 395.416 602.177 433.2 556.385 547.046C510.593 660.892 608.988 807.688 776.157 874.926C943.326 942.163 1115.97 904.378 1161.76 790.532C1207.55 676.686 1109.16 529.89 941.986 462.653Z" fill="#FBC6CF"/>
</g>
</g>
<g opacity="0.2" filter="url(#filter3_f_439_330)">
<path d="M641.942 530.298C741.611 433.003 763.309 325.511 894.361 278.338C1197.74 169.126 1463.27 711.111 1307.09 993.176C1213.12 1162.89 1069.63 1219.76 876.855 1241.57C688.761 1262.85 597.5 1239.23 432.841 1145.97C372.962 1112.06 281.931 1036.11 260.847 956.255C236.799 865.181 276.718 793.39 347.406 731.07C420.139 666.913 518.275 651.048 641.942 530.298Z" fill="#001A72"/>
</g>
<mask id="mask0_439_330" style="mask-type:luminance" maskUnits="userSpaceOnUse" x="23" y="191" width="1223" height="1080">
<path d="M1245.65 191.377H23.1484V1270.73H1245.65V191.377Z" fill="white"/>
</mask>
<g mask="url(#mask0_439_330)">
<path d="M91.538 193.483L1177.27 384.913C1214.45 391.475 1244.61 426.929 1244.61 464.109V1213.16C1244.61 1250.34 1214.45 1275.17 1177.27 1268.62L91.538 1077.19C54.3537 1070.63 24.2227 1035.18 24.2227 997.996V248.947C24.2227 211.746 54.3537 186.918 91.538 193.483Z" fill="#161127" fill-opacity="0.75"/>
<path d="M91.538 193.483L1177.27 384.913C1214.45 391.475 1244.61 426.929 1244.61 464.109V1213.16C1244.61 1250.34 1214.45 1275.17 1177.27 1268.62L91.538 1077.19C54.3537 1070.63 24.2227 1035.18 24.2227 997.996V248.947C24.2227 211.746 54.3537 186.918 91.538 193.483Z" stroke="url(#paint0_linear_439_330)" stroke-width="0.823333"/>
<path d="M125.222 266.744L1143.61 446.305C1162.22 449.586 1177.27 467.304 1177.27 485.903V1167.62C1177.27 1186.22 1162.22 1198.64 1143.61 1195.36L125.222 1015.79C106.617 1012.51 91.5391 994.796 91.5391 976.194V294.474C91.5391 275.875 106.617 263.46 125.222 266.744Z" fill="#FBC6C7" fill-opacity="0.25"/>
<path d="M740.949 758.256C740.949 821.338 689.836 863.461 626.738 852.329C563.665 841.199 512.527 781.064 512.527 717.986C512.527 654.904 563.665 612.781 626.738 623.911C689.836 635.043 740.949 695.177 740.949 758.256Z" fill="#161127" fill-opacity="0.75"/>
<path d="M681.121 748.555L592.594 784.05V681.835L681.121 748.555Z" fill="#F24664" fill-opacity="0.75"/>
<path opacity="0.5" d="M537.366 912.739C535.015 912.341 532.664 911.372 530.466 909.857C459.189 860.874 414.926 780.753 414.926 700.777C414.926 620.8 459.189 556.288 530.466 532.429C537.928 529.925 547.077 534.512 550.885 542.654C554.693 550.799 551.754 559.424 544.292 561.928C483.212 582.36 445.312 637.634 445.312 706.141C445.312 774.65 483.238 843.285 544.292 885.262C551.754 890.396 554.719 900.074 550.885 906.869C548.202 911.646 542.86 913.728 537.34 912.762L537.366 912.739Z" fill="#F24664"/>
<path opacity="0.5" d="M716.134 944.26C710.588 943.291 705.273 939.315 702.59 933.593C698.756 925.448 701.746 916.823 709.208 914.319C770.262 893.887 808.188 838.613 808.188 770.106C808.188 701.597 770.237 632.962 709.208 590.985C701.746 585.851 698.756 576.173 702.59 569.378C706.397 562.58 715.547 561.233 723.035 566.367C794.285 615.352 838.574 695.474 838.574 775.45C838.574 855.426 794.285 919.936 723.035 943.797C720.811 944.533 718.46 944.658 716.134 944.239V944.26Z" fill="#F24664"/>
<path opacity="0.5" d="M508.208 964.817C505.857 964.418 503.506 963.449 501.282 961.934C408.411 898.096 350.73 793.694 350.73 689.478C350.73 585.263 408.411 501.206 501.282 470.107C508.77 467.603 517.92 472.19 521.753 480.334C525.561 488.476 522.596 497.104 515.134 499.606C432.46 527.275 381.117 602.096 381.117 694.843C381.117 787.591 432.46 880.506 515.134 937.339C522.596 942.471 525.586 952.151 521.753 958.946C519.044 963.723 513.728 965.806 508.208 964.84V964.817Z" fill="#F24664" fill-opacity="0.75"/>
<path opacity="0.5" d="M745.291 1006.62C739.745 1005.65 734.43 1001.68 731.746 995.951C727.938 987.809 730.903 979.182 738.365 976.677C821.04 949.008 872.382 874.189 872.382 781.441C872.382 688.694 821.014 595.777 738.365 538.946C730.903 533.812 727.938 524.134 731.746 517.337C735.554 510.541 744.729 509.195 752.191 514.329C845.063 578.167 902.768 682.571 902.768 786.807C902.768 891.043 845.063 975.08 752.191 1006.18C749.968 1006.91 747.616 1007.04 745.291 1006.62Z" fill="#F24664" fill-opacity="0.75"/>
<path opacity="0.5" d="M478.41 1018.74C476.085 1018.32 473.733 1017.37 471.51 1015.86C356.609 936.869 285.23 807.701 285.23 678.74C285.23 549.782 356.609 445.799 471.51 407.338C478.998 404.833 488.147 409.42 491.981 417.562C495.788 425.704 492.824 434.332 485.362 436.836C380.658 471.891 315.617 566.636 315.617 684.107C315.617 801.578 380.658 919.279 485.362 991.239C492.824 996.373 495.814 1006.05 491.981 1012.85C489.272 1017.62 483.956 1019.71 478.41 1018.74Z" fill="#F24664" fill-opacity="0.5"/>
<path opacity="0.5" d="M775.065 1071.05C769.519 1070.08 764.203 1066.11 761.52 1060.38C757.712 1052.24 760.676 1043.61 768.139 1041.11C872.843 1006.06 937.883 911.309 937.883 793.84C937.883 676.369 872.843 558.667 768.139 486.708C760.676 481.574 757.712 471.894 761.52 465.098C765.327 458.303 774.502 456.956 781.965 462.09C896.865 541.078 968.244 670.246 968.244 799.204C968.244 928.162 896.865 1032.15 781.965 1070.61C779.741 1071.35 777.39 1071.47 775.065 1071.05Z" fill="#F24664" fill-opacity="0.5"/>
<path d="M1143.61 446.31C1162.22 449.591 1177.27 467.306 1177.27 485.908V1167.63C1177.27 1186.23 1162.22 1198.64 1143.61 1195.36L125.222 1015.8C106.617 1012.52 91.5391 994.799 91.5391 976.199L1143.61 446.31Z" fill="url(#paint1_linear_439_330)" fill-opacity="0.25"/>
</g>
<defs>
<filter id="filter0_f_439_330" x="0.230469" y="0.589844" width="1375.87" height="1203.49" filterUnits="userSpaceOnUse" color-interpolation-filters="sRGB">
<feFlood flood-opacity="0" result="BackgroundImageFix"/>
<feBlend mode="normal" in="SourceGraphic" in2="BackgroundImageFix" result="shape"/>
<feGaussianBlur stdDeviation="125" result="effect1_foregroundBlur_439_330"/>
</filter>
<filter id="filter1_f_439_330" x="150.223" y="176.142" width="950.371" height="802.854" filterUnits="userSpaceOnUse" color-interpolation-filters="sRGB">
<feFlood flood-opacity="0" result="BackgroundImageFix"/>
<feBlend mode="normal" in="SourceGraphic" in2="BackgroundImageFix" result="shape"/>
<feGaussianBlur stdDeviation="50" result="effect1_foregroundBlur_439_330"/>
</filter>
<filter id="filter2_f_439_330" x="295.156" y="179.349" width="1127.83" height="978.881" filterUnits="userSpaceOnUse" color-interpolation-filters="sRGB">
<feFlood flood-opacity="0" result="BackgroundImageFix"/>
<feBlend mode="normal" in="SourceGraphic" in2="BackgroundImageFix" result="shape"/>
<feGaussianBlur stdDeviation="125" result="effect1_foregroundBlur_439_330"/>
</filter>
<filter id="filter3_f_439_330" x="35.8541" y="46.0363" width="1535.41" height="1420.77" filterUnits="userSpaceOnUse" color-interpolation-filters="sRGB">
<feFlood flood-opacity="0" result="BackgroundImageFix"/>
<feBlend mode="normal" in="SourceGraphic" in2="BackgroundImageFix" result="shape"/>
<feGaussianBlur stdDeviation="108.987" result="effect1_foregroundBlur_439_330"/>
</filter>
<linearGradient id="paint0_linear_439_330" x1="1556.45" y1="191.669" x2="-93.2018" y2="655.526" gradientUnits="userSpaceOnUse">
<stop stop-color="#FBC6CF"/>
<stop offset="1" stop-color="#161127"/>
</linearGradient>
<linearGradient id="paint1_linear_439_330" x1="794.873" y1="274.725" x2="449.88" y2="1239.45" gradientUnits="userSpaceOnUse">
<stop stop-color="#FBC6CF"/>
<stop offset="1" stop-color="#853946"/>
</linearGradient>
</defs>
</svg>
